  0
SECTION
  2
HEADER
  9
$ACADVER
  1
AC1024
  9
$ACADMAINTVER
 70
6
  9
$DWGCODEPAGE
  3
ANSI_1252
  9
$LASTSAVEDBY
  1
ezdxf
  9
$INSBASE
 10
0.0
 20
0.0
 30
0.0
  9
$EXTMIN
 10
1e+20
 20
1e+20
 30
1e+20
  9
$EXTMAX
 10
-1e+20
 20
-1e+20
 30
-1e+20
  9
$LIMMIN
 10
0.0
 20
0.0
  9
$LIMMAX
 10
420.0
 20
297.0
  9
$ORTHOMODE
 70
0
  9
$REGENMODE
 70
1
  9
$FILLMODE
 70
1
  9
$QTEXTMODE
 70
0
  9
$MIRRTEXT
 70
1
  9
$LTSCALE
 40
1.0
  9
$ATTMODE
 70
1
  9
$TEXTSIZE
 40
2.5
  9
$TRACEWID
 40
1.0
  9
$TEXTSTYLE
  7
OpenSans
  9
$CLAYER
  8
0
  9
$CELTYPE
  6
ByLayer
  9
$CECOLOR
 62
256
  9
$CELTSCALE
 40
1.0
  9
$DISPSILH
 70
0
  9
$DIMSCALE
 40
1.0
  9
$DIMASZ
 40
0.175
  9
$DIMEXO
 40
0.125
  9
$DIMDLI
 40
3.75
  9
$DIMRND
 40
0.0
  9
$DIMDLE
 40
0.0
  9
$DIMEXE
 40
0.375
  9
$DIMTP
 40
0.0
  9
$DIMTM
 40
0.0
  9
$DIMTXT
 40
0.25
  9
$DIMCEN
 40
2.5
  9
$DIMTSZ
 40
0.0
  9
$DIMTOL
 70
0
  9
$DIMLIM
 70
0
  9
$DIMTIH
 70
0
  9
$DIMTOH
 70
0
  9
$DIMSE1
 70
0
  9
$DIMSE2
 70
0
  9
$DIMTAD
 70
1
  9
$DIMZIN
 70
12
  9
$DIMBLK
  1
ARCHTICK
  9
$DIMASO
 70
1
  9
$DIMSHO
 70
1
  9
$DIMPOST
  1

  9
$DIMAPOST
  1

  9
$DIMALT
 70
0
  9
$DIMALTD
 70
3
  9
$DIMALTF
 40
0.03937007874
  9
$DIMLFAC
 40
100.0
  9
$DIMTOFL
 70
1
  9
$DIMTVP
 40
0.0
  9
$DIMTIX
 70
0
  9
$DIMSOXD
 70
0
  9
$DIMSAH
 70
0
  9
$DIMBLK1
  1

  9
$DIMBLK2
  1

  9
$DIMSTYLE
  2
EZDXF
  9
$DIMCLRD
 70
0
  9
$DIMCLRE
 70
0
  9
$DIMCLRT
 70
0
  9
$DIMTFAC
 40
0.5
  9
$DIMGAP
 40
0.1
  9
$DIMJUST
 70
0
  9
$DIMSD1
 70
0
  9
$DIMSD2
 70
0
  9
$DIMTOLJ
 70
0
  9
$DIMTZIN
 70
8
  9
$DIMALTZ
 70
0
  9
$DIMALTTZ
 70
0
  9
$DIMUPT
 70
1
  9
$DIMDEC
 70
2
  9
$DIMTDEC
 70
2
  9
$DIMALTU
 70
2
  9
$DIMALTTD
 70
3
  9
$DIMTXSTY
  7
OpenSansCondensed-Light
  9
$DIMAUNIT
 70
0
  9
$DIMADEC
 70
2
  9
$DIMALTRND
 40
0.0
  9
$DIMAZIN
 70
3
  9
$DIMDSEP
 70
46
  9
$DIMATFIT
 70
3
  9
$DIMFRAC
 70
0
  9
$DIMLDRBLK
  1

  9
$DIMLUNIT
 70
2
  9
$DIMLWD
 70
-2
  9
$DIMLWE
 70
-2
  9
$DIMTMOVE
 70
2
  9
$DIMFXL
 40
1.0
  9
$DIMFXLON
 70
0
  9
$DIMJOGANG
 40
0.785398163397
  9
$DIMTFILL
 70
0
  9
$DIMTFILLCLR
 70
0
  9
$DIMARCSYM
 70
0
  9
$DIMLTYPE
  6

  9
$DIMLTEX1
  6

  9
$DIMLTEX2
  6

  9
$DIMTXTDIRECTION
 70
0
  9
$LUNITS
 70
2
  9
$LUPREC
 70
4
  9
$SKETCHINC
 40
1.0
  9
$FILLETRAD
 40
10.0
  9
$AUNITS
 70
0
  9
$AUPREC
 70
2
  9
$MENU
  1
.
  9
$ELEVATION
 40
0.0
  9
$PELEVATION
 40
0.0
  9
$THICKNESS
 40
0.0
  9
$LIMCHECK
 70
0
  9
$CHAMFERA
 40
0.0
  9
$CHAMFERB
 40
0.0
  9
$CHAMFERC
 40
0.0
  9
$CHAMFERD
 40
0.0
  9
$SKPOLY
 70
0
  9
$TDCREATE
 40
2461246.6801620373
  9
$TDUCREATE
 40
2458532.153996898
  9
$TDUPDATE
 40
2461246.6801736113
  9
$TDUUPDATE
 40
2458532.1544311
  9
$TDINDWG
 40
0.0
  9
$TDUSRTIMER
 40
0.0
  9
$USRTIMER
 70
1
  9
$ANGBASE
 50
0.0
  9
$ANGDIR
 70
0
  9
$PDMODE
 70
0
  9
$PDSIZE
 40
0.0
  9
$PLINEWID
 40
0.0
  9
$SPLFRAME
 70
0
  9
$SPLINETYPE
 70
6
  9
$SPLINESEGS
 70
8
  9
$HANDSEED
  5
1B4
  9
$SURFTAB1
 70
6
  9
$SURFTAB2
 70
6
  9
$SURFTYPE
 70
6
  9
$SURFU
 70
6
  9
$SURFV
 70
6
  9
$UCSBASE
  2

  9
$UCSNAME
  2

  9
$UCSORG
 10
0.0
 20
0.0
 30
0.0
  9
$UCSXDIR
 10
1.0
 20
0.0
 30
0.0
  9
$UCSYDIR
 10
0.0
 20
1.0
 30
0.0
  9
$UCSORTHOREF
  2

  9
$UCSORTHOVIEW
 70
0
  9
$UCSORGTOP
 10
0.0
 20
0.0
 30
0.0
  9
$UCSORGBOTTOM
 10
0.0
 20
0.0
 30
0.0
  9
$UCSORGLEFT
 10
0.0
 20
0.0
 30
0.0
  9
$UCSORGRIGHT
 10
0.0
 20
0.0
 30
0.0
  9
$UCSORGFRONT
 10
0.0
 20
0.0
 30
0.0
  9
$UCSORGBACK
 10
0.0
 20
0.0
 30
0.0
  9
$PUCSBASE
  2

  9
$PUCSNAME
  2

  9
$PUCSORG
 10
0.0
 20
0.0
 30
0.0
  9
$PUCSXDIR
 10
1.0
 20
0.0
 30
0.0
  9
$PUCSYDIR
 10
0.0
 20
1.0
 30
0.0
  9
$PUCSORTHOREF
  2

  9
$PUCSORTHOVIEW
 70
0
  9
$PUCSORGTOP
 10
0.0
 20
0.0
 30
0.0
  9
$PUCSORGBOTTOM
 10
0.0
 20
0.0
 30
0.0
  9
$PUCSORGLEFT
 10
0.0
 20
0.0
 30
0.0
  9
$PUCSORGRIGHT
 10
0.0
 20
0.0
 30
0.0
  9
$PUCSORGFRONT
 10
0.0
 20
0.0
 30
0.0
  9
$PUCSORGBACK
 10
0.0
 20
0.0
 30
0.0
  9
$USERI1
 70
0
  9
$USERI2
 70
0
  9
$USERI3
 70
0
  9
$USERI4
 70
0
  9
$USERI5
 70
0
  9
$USERR1
 40
0.0
  9
$USERR2
 40
0.0
  9
$USERR3
 40
0.0
  9
$USERR4
 40
0.0
  9
$USERR5
 40
0.0
  9
$WORLDVIEW
 70
1
  9
$SHADEDGE
 70
3
  9
$SHADEDIF
 70
70
  9
$TILEMODE
 70
1
  9
$MAXACTVP
 70
64
  9
$PINSBASE
 10
0.0
 20
0.0
 30
0.0
  9
$PLIMCHECK
 70
0
  9
$PEXTMIN
 10
1e+20
 20
1e+20
 30
1e+20
  9
$PEXTMAX
 10
-1e+20
 20
-1e+20
 30
-1e+20
  9
$PLIMMIN
 10
0.0
 20
0.0
  9
$PLIMMAX
 10
420.0
 20
297.0
  9
$UNITMODE
 70
0
  9
$VISRETAIN
 70
1
  9
$PLINEGEN
 70
0
  9
$PSLTSCALE
 70
1
  9
$TREEDEPTH
 70
3020
  9
$CMLSTYLE
  2
Standard
  9
$CMLJUST
 70
0
  9
$CMLSCALE
 40
20.0
  9
$PROXYGRAPHICS
 70
1
  9
$MEASUREMENT
 70
1
  9
$CELWEIGHT
370
-1
  9
$ENDCAPS
280
0
  9
$JOINSTYLE
280
0
  9
$LWDISPLAY
290
1
  9
$INSUNITS
 70
0
  9
$HYPERLINKBASE
  1

  9
$STYLESHEET
  1

  9
$XEDIT
290
1
  9
$CEPSNTYPE
380
0
  9
$PSTYLEMODE
290
1
  9
$FINGERPRINTGUID
  2
{3BA49D39-1E6D-4FDB-86CB-F22D69BD5AFA}
  9
$VERSIONGUID
  2
{255A4D68-19BA-40E2-94E3-500E07C223EC}
  9
$EXTNAMES
290
1
  9
$PSVPSCALE
 40
0.0
  9
$OLESTARTUP
290
0
  9
$SORTENTS
280
127
  9
$INDEXCTL
280
0
  9
$HIDETEXT
280
1
  9
$XCLIPFRAME
280
1
  9
$HALOGAP
280
0
  9
$OBSCOLOR
 70
257
  9
$OBSLTYPE
280
0
  9
$INTERSECTIONDISPLAY
280
0
  9
$INTERSECTIONCOLOR
 70
257
  9
$DIMASSOC
280
2
  9
$PROJECTNAME
  1

  9
$CAMERADISPLAY
290
0
  9
$LENSLENGTH
 40
50.0
  9
$CAMERAHEIGHT
 40
0.0
  9
$STEPSPERSEC
 40
24.0
  9
$STEPSIZE
 40
100.0
  9
$3DDWFPREC
 40
2.0
  9
$PSOLWIDTH
 40
0.005
  9
$PSOLHEIGHT
 40
0.08
  9
$LOFTANG1
 40
1.570796326795
  9
$LOFTANG2
 40
1.570796326795
  9
$LOFTMAG1
 40
0.0
  9
$LOFTMAG2
 40
0.0
  9
$LOFTPARAM
 70
7
  9
$LOFTNORMALS
280
1
  9
$LATITUDE
 40
37.795
  9
$LONGITUDE
 40
-122.394
  9
$NORTHDIRECTION
 40
0.0
  9
$TIMEZONE
 70
-8000
  9
$LIGHTGLYPHDISPLAY
280
1
  9
$TILEMODELIGHTSYNCH
280
1
  9
$CMATERIAL
347
20
  9
$SOLIDHIST
280
0
  9
$SHOWHIST
280
1
  9
$DWFFRAME
280
2
  9
$DGNFRAME
280
2
  9
$REALWORLDSCALE
290
1
  9
$INTERFERECOLOR
 62
256
  9
$CSHADOW
280
0
  9
$SHADOWPLANELOCATION
 40
0.0
  0
ENDSEC
  0
SECTION
  2
CLASSES
  0
CLASS
  1
ACDBDICTIONARYWDFLT
  2
AcDbDictionaryWithDefault
  3
ObjectDBX Classes
 90
0
 91
0
280
0
281
0
  0
CLASS
  1
SUN
  2
AcDbSun
  3
SCENEOE
 90
1153
 91
0
280
0
281
0
  0
CLASS
  1
VISUALSTYLE
  2
AcDbVisualStyle
  3
ObjectDBX Classes
 90
4095
 91
0
280
0
281
0
  0
CLASS
  1
MATERIAL
  2
AcDbMaterial
  3
ObjectDBX Classes
 90
1153
 91
0
280
0
281
0
  0
CLASS
  1
SCALE
  2
AcDbScale
  3
ObjectDBX Classes
 90
1153
 91
0
280
0
281
0
  0
CLASS
  1
TABLESTYLE
  2
AcDbTableStyle
  3
ObjectDBX Classes
 90
4095
 91
0
280
0
281
0
  0
CLASS
  1
MLEADERSTYLE
  2
AcDbMLeaderStyle
  3
ACDB_MLEADERSTYLE_CLASS
 90
4095
 91
0
280
0
281
0
  0
CLASS
  1
DICTIONARYVAR
  2
AcDbDictionaryVar
  3
ObjectDBX Classes
 90
0
 91
0
280
0
281
0
  0
CLASS
  1
CELLSTYLEMAP
  2
AcDbCellStyleMap
  3
ObjectDBX Classes
 90
1152
 91
0
280
0
281
0
  0
CLASS
  1
MENTALRAYRENDERSETTINGS
  2
AcDbMentalRayRenderSettings
  3
SCENEOE
 90
1024
 91
0
280
0
281
0
  0
CLASS
  1
ACDBDETAILVIEWSTYLE
  2
AcDbDetailViewStyle
  3
ObjectDBX Classes
 90
1025
 91
0
280
0
281
0
  0
CLASS
  1
ACDBSECTIONVIEWSTYLE
  2
AcDbSectionViewStyle
  3
ObjectDBX Classes
 90
1025
 91
0
280
0
281
0
  0
CLASS
  1
RASTERVARIABLES
  2
AcDbRasterVariables
  3
ISM
 90
0
 91
0
280
0
281
0
  0
CLASS
  1
ACDBPLACEHOLDER
  2
AcDbPlaceHolder
  3
ObjectDBX Classes
 90
0
 91
0
280
0
281
0
  0
CLASS
  1
LAYOUT
  2
AcDbLayout
  3
ObjectDBX Classes
 90
0
 91
0
280
0
281
0
  0
CLASS
  1
SORTENTSTABLE
  2
AcDbSortentsTable
  3
ObjectDBX Classes
 90
0
 91
0
280
0
281
0
  0
ENDSEC
  0
SECTION
  2
TABLES
  0
TABLE
  2
VPORT
  5
8
330
0
100
AcDbSymbolTable
 70
1
  0
VPORT
  5
1B0
330
8
100
AcDbSymbolTableRecord
100
AcDbViewportTableRecord
  2
*Active
 70
0
 10
0.0
 20
0.0
 11
1.0
 21
1.0
 12
1311.864372253418
 22
1828.7757759094236
 13
0.0
 23
0.0
 14
0.5
 24
0.5
 15
0.5
 25
0.5
 16
0.0
 26
0.0
 36
1.0
 17
0.0
 27
0.0
 37
0.0
 40
3491.386462631226
 41
1.34
 42
50.0
 43
0.0
 44
0.0
 50
0.0
 51
0.0
 71
0
 72
1000
 73
1
 74
3
 75
0
 76
0
 77
0
 78
0
281
0
 65
1
110
0.0
120
0.0
130
0.0
111
1.0
121
0.0
131
0.0
112
0.0
122
1.0
132
0.0
 79
0
146
0.0
  0
ENDTAB
  0
TABLE
  2
LTYPE
  5
2
330
0
100
AcDbSymbolTable
 70
21
  0
LTYPE
  5
24
330
2
100
AcDbSymbolTableRecord
100
AcDbLinetypeTableRecord
  2
ByBlock
 70
0
  3

 72
65
 73
0
 40
0.0
  0
LTYPE
  5
25
330
2
100
AcDbSymbolTableRecord
100
AcDbLinetypeTableRecord
  2
ByLayer
 70
0
  3

 72
65
 73
0
 40
0.0
  0
LTYPE
  5
26
330
2
100
AcDbSymbolTableRecord
100
AcDbLinetypeTableRecord
  2
Continuous
 70
0
  3

 72
65
 73
0
 40
0.0
  0
LTYPE
  5
2F
330
2
100
AcDbSymbolTableRecord
100
AcDbLinetypeTableRecord
  2
CENTER
 70
0
  3
Center ____ _ ____ _ ____ _ ____ _ ____ _ ____
 72
65
 73
4
 40
5.08
 49
3.175
 74
0
 49
-0.635
 74
0
 49
0.635
 74
0
 49
-0.635
 74
0
  0
LTYPE
  5
30
330
2
100
AcDbSymbolTableRecord
100
AcDbLinetypeTableRecord
  2
CENTERX2
 70
0
  3
Center (2x) ________  __  ________  __  ________
 72
65
 73
4
 40
8.89
 49
6.35
 74
0
 49
-0.635
 74
0
 49
1.27
 74
0
 49
-0.635
 74
0
  0
LTYPE
  5
31
330
2
100
AcDbSymbolTableRecord
100
AcDbLinetypeTableRecord
  2
CENTER2
 70
0
  3
Center (.5x) ____ _ ____ _ ____ _ ____ _ ____
 72
65
 73
4
 40
2.54
 49
1.587
 74
0
 49
-0.318
 74
0
 49
0.318
 74
0
 49
-0.318
 74
0
  0
LTYPE
  5
32
330
2
100
AcDbSymbolTableRecord
100
AcDbLinetypeTableRecord
  2
DASHED
 70
0
  3
Dashed __ __ __ __ __ __ __ __ __ __ __ __ __ _
 72
65
 73
2
 40
1.524
 49
1.27
 74
0
 49
-0.254
 74
0
  0
LTYPE
  5
33
330
2
100
AcDbSymbolTableRecord
100
AcDbLinetypeTableRecord
  2
DASHEDX2
 70
0
  3
Dashed (2x) ____  ____  ____  ____  ____  ____
 72
65
 73
2
 40
3.048
 49
2.54
 74
0
 49
-0.508
 74
0
  0
LTYPE
  5
34
330
2
100
AcDbSymbolTableRecord
100
AcDbLinetypeTableRecord
  2
DASHED2
 70
0
  3
Dashed (.5x) _ _ _ _ _ _ _ _ _ _ _ _ _ _
 72
65
 73
2
 40
0.762
 49
0.635
 74
0
 49
-0.127
 74
0
  0
LTYPE
  5
35
330
2
100
AcDbSymbolTableRecord
100
AcDbLinetypeTableRecord
  2
PHANTOM
 70
0
  3
Phantom ______  __  __  ______  __  __  ______
 72
65
 73
6
 40
6.35
 49
3.175
 74
0
 49
-0.635
 74
0
 49
0.635
 74
0
 49
-0.635
 74
0
 49
0.635
 74
0
 49
-0.635
 74
0
  0
LTYPE
  5
36
330
2
100
AcDbSymbolTableRecord
100
AcDbLinetypeTableRecord
  2
PHANTOMX2
 70
0
  3
Phantom (2x)____________    ____    ____    ____________
 72
65
 73
6
 40
10.795
 49
6.35
 74
0
 49
-0.635
 74
0
 49
1.27
 74
0
 49
-0.635
 74
0
 49
1.27
 74
0
 49
-0.635
 74
0
  0
LTYPE
  5
37
330
2
100
AcDbSymbolTableRecord
100
AcDbLinetypeTableRecord
  2
PHANTOM2
 70
0
  3
Phantom (.5x) ___ _ _ ___ _ _ ___ _ _ ___ _ _ ___
 72
65
 73
6
 40
3.175
 49
1.587
 74
0
 49
-0.318
 74
0
 49
0.318
 74
0
 49
-0.318
 74
0
 49
0.318
 74
0
 49
-0.318
 74
0
  0
LTYPE
  5
38
330
2
100
AcDbSymbolTableRecord
100
AcDbLinetypeTableRecord
  2
DASHDOT
 70
0
  3
Dash dot __ . __ . __ . __ . __ . __ . __ . __
 72
65
 73
4
 40
3.556
 49
2.54
 74
0
 49
-0.508
 74
0
 49
0.0
 74
0
 49
-0.508
 74
0
  0
LTYPE
  5
39
330
2
100
AcDbSymbolTableRecord
100
AcDbLinetypeTableRecord
  2
DASHDOTX2
 70
0
  3
Dash dot (2x) ____  .  ____  .  ____  .  ____
 72
65
 73
4
 40
6.096
 49
5.08
 74
0
 49
-0.508
 74
0
 49
0.0
 74
0
 49
-0.508
 74
0
  0
LTYPE
  5
3A
330
2
100
AcDbSymbolTableRecord
100
AcDbLinetypeTableRecord
  2
DASHDOT2
 70
0
  3
Dash dot (.5x) _ . _ . _ . _ . _ . _ . _ . _
 72
65
 73
4
 40
1.778
 49
1.27
 74
0
 49
-0.254
 74
0
 49
0.0
 74
0
 49
-0.254
 74
0
  0
LTYPE
  5
3B
330
2
100
AcDbSymbolTableRecord
100
AcDbLinetypeTableRecord
  2
DOT
 70
0
  3
Dot .  .  .  .  .  .  .  .  .  .  .  .  .  .  .  .
 72
65
 73
2
 40
0.508
 49
0.0
 74
0
 49
-0.508
 74
0
  0
LTYPE
  5
3C
330
2
100
AcDbSymbolTableRecord
100
AcDbLinetypeTableRecord
  2
DOTX2
 70
0
  3
Dot (2x) .    .    .    .    .    .    .    . 
 72
65
 73
2
 40
1.016
 49
0.0
 74
0
 49
-1.016
 74
0
  0
LTYPE
  5
3D
330
2
100
AcDbSymbolTableRecord
100
AcDbLinetypeTableRecord
  2
DOT2
 70
0
  3
Dot (.5) . . . . . . . . . . . . . . . . . . . 
 72
65
 73
2
 40
0.254
 49
0.0
 74
0
 49
-0.254
 74
0
  0
LTYPE
  5
3E
330
2
100
AcDbSymbolTableRecord
100
AcDbLinetypeTableRecord
  2
DIVIDE
 70
0
  3
Divide __ . . __ . . __ . . __ . . __ . . __
 72
65
 73
6
 40
4.064
 49
2.54
 74
0
 49
-0.508
 74
0
 49
0.0
 74
0
 49
-0.508
 74
0
 49
0.0
 74
0
 49
-0.508
 74
0
  0
LTYPE
  5
3F
330
2
100
AcDbSymbolTableRecord
100
AcDbLinetypeTableRecord
  2
DIVIDEX2
 70
0
  3
Divide (2x) ____  . .  ____  . .  ____  . .  ____
 72
65
 73
6
 40
6.604
 49
5.08
 74
0
 49
-0.508
 74
0
 49
0.0
 74
0
 49
-0.508
 74
0
 49
0.0
 74
0
 49
-0.508
 74
0
  0
LTYPE
  5
40
330
2
100
AcDbSymbolTableRecord
100
AcDbLinetypeTableRecord
  2
DIVIDE2
 70
0
  3
Divide(.5x) _ . _ . _ . _ . _ . _ . _ . _
 72
65
 73
6
 40
2.032
 49
1.27
 74
0
 49
-0.254
 74
0
 49
0.0
 74
0
 49
-0.254
 74
0
 49
0.0
 74
0
 49
-0.254
 74
0
  0
ENDTAB
  0
TABLE
  2
LAYER
  5
1
330
0
100
AcDbSymbolTable
 70
8
  0
LAYER
  5
27
330
1
100
AcDbSymbolTableRecord
100
AcDbLayerTableRecord
  2
0
 70
0
 62
7
  6
Continuous
370
-3
390
13
347
21
  0
LAYER
  5
28
330
1
100
AcDbSymbolTableRecord
100
AcDbLayerTableRecord
  2
Defpoints
 70
0
 62
7
  6
Continuous
290
0
370
-3
390
13
347
21
  0
LAYER
  5
8A
330
1
100
AcDbSymbolTableRecord
100
AcDbLayerTableRecord
  2
SCAN_UNDERLAY
 70
0
 62
8
  6
Continuous
370
0
390
13
347
21
  0
LAYER
  5
8B
330
1
100
AcDbSymbolTableRecord
100
AcDbLayerTableRecord
  2
TRACE_STRAIGHT
 70
0
 62
5
  6
Continuous
370
0
390
13
347
21
  0
LAYER
  5
8C
330
1
100
AcDbSymbolTableRecord
100
AcDbLayerTableRecord
  2
TRACE_CURVE
 70
0
 62
3
  6
Continuous
370
0
390
13
347
21
  0
LAYER
  5
8D
330
1
100
AcDbSymbolTableRecord
100
AcDbLayerTableRecord
  2
TRACE_TEXT_SYMBOL
 70
0
 62
6
  6
Continuous
370
0
390
13
347
21
  0
LAYER
  5
8E
330
1
100
AcDbSymbolTableRecord
100
AcDbLayerTableRecord
  2
OCR_TEXT
 70
0
 62
6
  6
Continuous
370
0
390
13
347
21
  0
LAYER
  5
8F
330
1
100
AcDbSymbolTableRecord
100
AcDbLayerTableRecord
  2
SIGNATURE_OVERLAY
 70
0
 62
6
  6
Continuous
370
0
390
13
347
21
  0
ENDTAB
  0
TABLE
  2
STYLE
  5
5
330
0
100
AcDbSymbolTable
 70
27
  0
STYLE
  5
29
330
5
100
AcDbSymbolTableRecord
100
AcDbTextStyleTableRecord
  2
Standard
 70
0
 40
0.0
 41
1.0
 50
0.0
 71
0
 42
2.5
  3
txt
  4

  0
STYLE
  5
41
330
5
100
AcDbSymbolTableRecord
100
AcDbTextStyleTableRecord
  2
OpenSans-Light
 70
0
 40
0.0
 41
1.0
 50
0.0
 71
0
 42
2.5
  3
OpenSans-Light.ttf
  4

  0
STYLE
  5
42
330
5
100
AcDbSymbolTableRecord
100
AcDbTextStyleTableRecord
  2
OpenSans-Light-Italic
 70
0
 40
0.0
 41
1.0
 50
0.0
 71
0
 42
2.5
  3
OpenSans-LightItalic.ttf
  4

  0
STYLE
  5
43
330
5
100
AcDbSymbolTableRecord
100
AcDbTextStyleTableRecord
  2
OpenSans
 70
0
 40
0.0
 41
1.0
 50
0.0
 71
0
 42
2.5
  3
OpenSans-Regular.ttf
  4

  0
STYLE
  5
44
330
5
100
AcDbSymbolTableRecord
100
AcDbTextStyleTableRecord
  2
OpenSans-Italic
 70
0
 40
0.0
 41
1.0
 50
0.0
 71
0
 42
2.5
  3
OpenSans-Italic.ttf
  4

  0
STYLE
  5
45
330
5
100
AcDbSymbolTableRecord
100
AcDbTextStyleTableRecord
  2
OpenSans-SemiBold
 70
0
 40
0.0
 41
1.0
 50
0.0
 71
0
 42
2.5
  3
OpenSans-SemiBold.ttf
  4

  0
STYLE
  5
46
330
5
100
AcDbSymbolTableRecord
100
AcDbTextStyleTableRecord
  2
OpenSans-SemiBoldItalic
 70
0
 40
0.0
 41
1.0
 50
0.0
 71
0
 42
2.5
  3
OpenSans-SemiBoldItalic.ttf
  4

  0
STYLE
  5
47
330
5
100
AcDbSymbolTableRecord
100
AcDbTextStyleTableRecord
  2
OpenSans-Bold
 70
0
 40
0.0
 41
1.0
 50
0.0
 71
0
 42
2.5
  3
OpenSans-Bold.ttf
  4

  0
STYLE
  5
48
330
5
100
AcDbSymbolTableRecord
100
AcDbTextStyleTableRecord
  2
OpenSans-BoldItalic
 70
0
 40
0.0
 41
1.0
 50
0.0
 71
0
 42
2.5
  3
OpenSans-BoldItalic.ttf
  4

  0
STYLE
  5
49
330
5
100
AcDbSymbolTableRecord
100
AcDbTextStyleTableRecord
  2
OpenSans-ExtraBold
 70
0
 40
0.0
 41
1.0
 50
0.0
 71
0
 42
2.5
  3
OpenSans-ExtraBold.ttf
  4

  0
STYLE
  5
4A
330
5
100
AcDbSymbolTableRecord
100
AcDbTextStyleTableRecord
  2
OpenSans-ExtraBoldItalic
 70
0
 40
0.0
 41
1.0
 50
0.0
 71
0
 42
2.5
  3
OpenSans-ExtraBoldItalic.ttf
  4

  0
STYLE
  5
4B
330
5
100
AcDbSymbolTableRecord
100
AcDbTextStyleTableRecord
  2
OpenSansCondensed-Bold
 70
0
 40
0.0
 41
1.0
 50
0.0
 71
0
 42
2.5
  3
OpenSansCondensed-Bold.ttf
  4

  0
STYLE
  5
4C
330
5
100
AcDbSymbolTableRecord
100
AcDbTextStyleTableRecord
  2
OpenSansCondensed-Light
 70
0
 40
0.0
 41
1.0
 50
0.0
 71
0
 42
2.5
  3
OpenSansCondensed-Light.ttf
  4

  0
STYLE
  5
4D
330
5
100
AcDbSymbolTableRecord
100
AcDbTextStyleTableRecord
  2
OpenSansCondensed-Italic
 70
0
 40
0.0
 41
1.0
 50
0.0
 71
0
 42
2.5
  3
OpenSansCondensed-LightItalic.ttf
  4

  0
STYLE
  5
4E
330
5
100
AcDbSymbolTableRecord
100
AcDbTextStyleTableRecord
  2
LiberationSans
 70
0
 40
0.0
 41
1.0
 50
0.0
 71
0
 42
2.5
  3
LiberationSans-Regular.ttf
  4

  0
STYLE
  5
4F
330
5
100
AcDbSymbolTableRecord
100
AcDbTextStyleTableRecord
  2
LiberationSans-Bold
 70
0
 40
0.0
 41
1.0
 50
0.0
 71
0
 42
2.5
  3
LiberationSans-Bold.ttf
  4

  0
STYLE
  5
50
330
5
100
AcDbSymbolTableRecord
100
AcDbTextStyleTableRecord
  2
LiberationSans-BoldItalic
 70
0
 40
0.0
 41
1.0
 50
0.0
 71
0
 42
2.5
  3
LiberationSans-BoldItalic.ttf
  4

  0
STYLE
  5
51
330
5
100
AcDbSymbolTableRecord
100
AcDbTextStyleTableRecord
  2
LiberationSans-Italic
 70
0
 40
0.0
 41
1.0
 50
0.0
 71
0
 42
2.5
  3
LiberationSans-Italic.ttf
  4

  0
STYLE
  5
52
330
5
100
AcDbSymbolTableRecord
100
AcDbTextStyleTableRecord
  2
LiberationSerif
 70
0
 40
0.0
 41
1.0
 50
0.0
 71
0
 42
2.5
  3
LiberationSerif-Regular.ttf
  4

  0
STYLE
  5
53
330
5
100
AcDbSymbolTableRecord
100
AcDbTextStyleTableRecord
  2
LiberationSerif-Bold
 70
0
 40
0.0
 41
1.0
 50
0.0
 71
0
 42
2.5
  3
LiberationSerif-Bold.ttf
  4

  0
STYLE
  5
54
330
5
100
AcDbSymbolTableRecord
100
AcDbTextStyleTableRecord
  2
LiberationSerif-BoldItalic
 70
0
 40
0.0
 41
1.0
 50
0.0
 71
0
 42
2.5
  3
LiberationSerif-BoldItalic.ttf
  4

  0
STYLE
  5
55
330
5
100
AcDbSymbolTableRecord
100
AcDbTextStyleTableRecord
  2
LiberationSerif-Italic
 70
0
 40
0.0
 41
1.0
 50
0.0
 71
0
 42
2.5
  3
LiberationSerif-Italic.ttf
  4

  0
STYLE
  5
56
330
5
100
AcDbSymbolTableRecord
100
AcDbTextStyleTableRecord
  2
LiberationMono
 70
0
 40
0.0
 41
1.0
 50
0.0
 71
0
 42
2.5
  3
LiberationMono-Regular.ttf
  4

  0
STYLE
  5
57
330
5
100
AcDbSymbolTableRecord
100
AcDbTextStyleTableRecord
  2
LiberationMono-Bold
 70
0
 40
0.0
 41
1.0
 50
0.0
 71
0
 42
2.5
  3
LiberationMono-Bold.ttf
  4

  0
STYLE
  5
58
330
5
100
AcDbSymbolTableRecord
100
AcDbTextStyleTableRecord
  2
LiberationMono-BoldItalic
 70
0
 40
0.0
 41
1.0
 50
0.0
 71
0
 42
2.5
  3
LiberationMono-BoldItalic.ttf
  4

  0
STYLE
  5
59
330
5
100
AcDbSymbolTableRecord
100
AcDbTextStyleTableRecord
  2
LiberationMono-Italic
 70
0
 40
0.0
 41
1.0
 50
0.0
 71
0
 42
2.5
  3
LiberationMono-Italic.ttf
  4

  0
STYLE
  5
15A
330
5
100
AcDbSymbolTableRecord
100
AcDbTextStyleTableRecord
  2
wqy-unicode
 70
0
 40
0.0
 41
1.0
 50
0.0
 71
0
 42
2.5
  3
wqy-unicode.lff
  4

  0
ENDTAB
  0
TABLE
  2
VIEW
  5
7
330
0
100
AcDbSymbolTable
 70
0
  0
ENDTAB
  0
TABLE
  2
UCS
  5
6
330
0
100
AcDbSymbolTable
 70
0
  0
ENDTAB
  0
TABLE
  2
APPID
  5
3
330
0
100
AcDbSymbolTable
 70
4
  0
APPID
  5
2A
330
3
100
AcDbSymbolTableRecord
100
AcDbRegAppTableRecord
  2
ACAD
 70
0
  0
APPID
  5
159
330
3
100
AcDbSymbolTableRecord
100
AcDbRegAppTableRecord
  2
OCR_TEXT_LINE
 70
0
  0
APPID
  5
1B1
330
3
100
AcDbSymbolTableRecord
100
AcDbRegAppTableRecord
  2
HATCHBACKGROUNDCOLOR
 70
0
  0
APPID
  5
1B2
330
3
100
AcDbSymbolTableRecord
100
AcDbRegAppTableRecord
  2
EZDXF
 70
0
  0
ENDTAB
  0
TABLE
  2
DIMSTYLE
  5
4
330
0
100
AcDbSymbolTable
 70
12
100
AcDbDimStyleTable
  0
DIMSTYLE
105
2B
330
4
100
AcDbSymbolTableRecord
100
AcDbDimStyleTableRecord
  2
Standard
 70
0
 40
1.0
 41
2.5
 42
0.625
 43
3.75
 44
1.25
 45
0.0
 46
0.0
 47
0.0
 48
0.0
 49
2.5
140
2.5
141
2.5
142
0.0
143
0.03937007874
144
1.0
145
0.0
146
1.0
147
0.625
148
0.0
 69
0
 70
0
 71
0
 72
0
 73
0
 74
0
 75
0
 76
0
 77
1
 78
8
 79
3
170
0
171
3
172
1
173
0
174
0
175
0
176
0
177
0
178
0
179
2
271
2
272
2
273
2
274
3
275
0
276
0
277
2
278
44
279
0
280
0
281
0
282
0
283
0
284
8
285
0
286
0
288
0
289
3
290
0
371
-2
372
-2
  0
DIMSTYLE
105
73
330
4
100
AcDbSymbolTableRecord
100
AcDbDimStyleTableRecord
  2
EZDXF
 70
0
 40
1.0
 41
0.175
 42
0.125
 43
3.75
 44
0.375
 45
0.0
 46
0.0
 47
0.0
 48
0.0
 49
2.5
140
0.25
141
2.5
142
0.0
143
0.03937007874
144
100.0
145
0.0
146
0.5
147
0.1
148
0.0
 69
0
 70
0
 71
0
 72
0
 73
0
 74
0
 75
0
 76
0
 77
1
 78
12
 79
3
170
0
171
3
172
1
173
0
174
0
175
0
176
0
177
0
178
0
179
2
271
2
272
2
273
2
274
3
275
0
276
0
277
2
278
46
279
2
280
0
281
0
282
0
283
0
284
8
285
0
286
0
288
1
289
3
290
0
340
4C
342
74
371
-2
372
-2
  0
DIMSTYLE
105
7C
330
4
100
AcDbSymbolTableRecord
100
AcDbDimStyleTableRecord
  2
EZ_M_100_H25_CM
 70
0
 40
1.0
 41
0.25
 42
0.125
 43
3.75
 44
0.375
 45
0.0
 46
0.0
 47
0.0
 48
0.0
 49
2.5
140
0.25
141
2.5
142
0.125
143
0.03937007874
144
100.0
145
0.0
146
0.5
147
0.1
148
0.0
 69
0
 70
0
 71
0
 72
0
 73
0
 74
0
 75
0
 76
0
 77
1
 78
12
 79
3
170
0
171
3
172
1
173
0
174
0
175
0
176
0
177
0
178
0
179
2
271
2
272
2
273
2
274
3
275
0
276
0
277
2
278
46
279
2
280
0
281
0
282
0
283
0
284
8
285
0
286
0
288
1
289
3
290
0
340
4C
371
-2
372
-2
  0
DIMSTYLE
105
7D
330
4
100
AcDbSymbolTableRecord
100
AcDbDimStyleTableRecord
  2
EZ_M_50_H25_CM
 70
0
 40
1.0
 41
0.125
 42
0.0625
 43
3.75
 44
0.1875
 45
0.0
 46
0.0
 47
0.0
 48
0.0
 49
2.5
140
0.125
141
2.5
142
0.0625
143
0.03937007874
144
100.0
145
0.0
146
0.5
147
0.05
148
0.0
 69
0
 70
0
 71
0
 72
0
 73
0
 74
0
 75
0
 76
0
 77
1
 78
12
 79
3
170
0
171
3
172
1
173
0
174
0
175
0
176
0
177
0
178
0
179
2
271
2
272
2
273
2
274
3
275
0
276
0
277
2
278
46
279
2
280
0
281
0
282
0
283
0
284
8
285
0
286
0
288
1
289
3
290
0
340
4C
371
-2
372
-2
  0
DIMSTYLE
105
7E
330
4
100
AcDbSymbolTableRecord
100
AcDbDimStyleTableRecord
  2
EZ_M_25_H25_CM
 70
0
 40
1.0
 41
0.0625
 42
0.03125
 43
3.75
 44
0.09375
 45
0.0
 46
0.0
 47
0.0
 48
0.0
 49
2.5
140
0.0625
141
2.5
142
0.03125
143
0.03937007874
144
100.0
145
0.0
146
0.5
147
0.025
148
0.0
 69
0
 70
0
 71
0
 72
0
 73
0
 74
0
 75
0
 76
0
 77
1
 78
12
 79
3
170
0
171
3
172
1
173
0
174
0
175
0
176
0
177
0
178
0
179
2
271
2
272
2
273
2
274
3
275
0
276
0
277
2
278
46
279
2
280
0
281
0
282
0
283
0
284
8
285
0
286
0
288
1
289
3
290
0
340
4C
371
-2
372
-2
  0
DIMSTYLE
105
7F
330
4
100
AcDbSymbolTableRecord
100
AcDbDimStyleTableRecord
  2
EZ_M_20_H25_CM
 70
0
 40
1.0
 41
0.05
 42
0.025
 43
3.75
 44
0.07500000000000001
 45
0.0
 46
0.0
 47
0.0
 48
0.0
 49
2.5
140
0.05
141
2.5
142
0.025
143
0.03937007874
144
100.0
145
0.0
146
0.5
147
0.020000000000000004
148
0.0
 69
0
 70
0
 71
0
 72
0
 73
0
 74
0
 75
0
 76
0
 77
1
 78
12
 79
3
170
0
171
3
172
1
173
0
174
0
175
0
176
0
177
0
178
0
179
2
271
2
272
2
273
2
274
3
275
0
276
0
277
2
278
46
279
2
280
0
281
0
282
0
283
0
284
8
285
0
286
0
288
1
289
3
290
0
340
4C
371
-2
372
-2
  0
DIMSTYLE
105
80
330
4
100
AcDbSymbolTableRecord
100
AcDbDimStyleTableRecord
  2
EZ_M_10_H25_CM
 70
0
 40
1.0
 41
0.025
 42
0.0125
 43
3.75
 44
0.037500000000000006
 45
0.0
 46
0.0
 47
0.0
 48
0.0
 49
2.5
140
0.025
141
2.5
142
0.0125
143
0.03937007874
144
100.0
145
0.0
146
0.5
147
0.010000000000000002
148
0.0
 69
0
 70
0
 71
0
 72
0
 73
0
 74
0
 75
0
 76
0
 77
1
 78
12
 79
3
170
0
171
3
172
1
173
0
174
0
175
0
176
0
177
0
178
0
179
2
271
2
272
2
273
2
274
3
275
0
276
0
277
2
278
46
279
2
280
0
281
0
282
0
283
0
284
8
285
0
286
0
288
1
289
3
290
0
340
4C
371
-2
372
-2
  0
DIMSTYLE
105
81
330
4
100
AcDbSymbolTableRecord
100
AcDbDimStyleTableRecord
  2
EZ_M_5_H25_CM
 70
0
 40
1.0
 41
0.0125
 42
0.00625
 43
3.75
 44
0.018750000000000003
 45
0.0
 46
0.0
 47
0.0
 48
0.0
 49
2.5
140
0.0125
141
2.5
142
0.00625
143
0.03937007874
144
100.0
145
0.0
146
0.5
147
0.005000000000000001
148
0.0
 69
0
 70
0
 71
0
 72
0
 73
0
 74
0
 75
0
 76
0
 77
1
 78
12
 79
3
170
0
171
3
172
1
173
0
174
0
175
0
176
0
177
0
178
0
179
2
271
2
272
2
273
2
274
3
275
0
276
0
277
2
278
46
279
2
280
0
281
0
282
0
283
0
284
8
285
0
286
0
288
1
289
3
290
0
340
4C
371
-2
372
-2
  0
DIMSTYLE
105
82
330
4
100
AcDbSymbolTableRecord
100
AcDbDimStyleTableRecord
  2
EZ_M_1_H25_CM
 70
0
 40
1.0
 41
0.0025
 42
0.00125
 43
3.75
 44
0.00375
 45
0.0
 46
0.0
 47
0.0
 48
0.0
 49
2.5
140
0.0025
141
2.5
142
0.00125
143
0.03937007874
144
100.0
145
0.0
146
0.5
147
0.001
148
0.0
 69
0
 70
0
 71
0
 72
0
 73
0
 74
0
 75
0
 76
0
 77
1
 78
12
 79
3
170
0
171
3
172
1
173
0
174
0
175
0
176
0
177
0
178
0
179
2
271
2
272
2
273
2
274
3
275
0
276
0
277
2
278
46
279
2
280
0
281
0
282
0
283
0
284
8
285
0
286
0
288
1
289
3
290
0
340
4C
371
-2
372
-2
  0
DIMSTYLE
105
83
330
4
100
AcDbSymbolTableRecord
100
AcDbDimStyleTableRecord
  2
EZ_RADIUS
 70
0
 40
1.0
 41
0.25
 42
0.125
 43
3.75
 44
0.375
 45
0.0
 46
0.0
 47
0.0
 48
0.0
 49
2.5
140
0.25
141
0.0
142
0.0
143
0.03937007874
144
100.0
145
0.0
146
0.5
147
0.1
148
0.0
 69
0
 70
0
 71
0
 72
0
 73
0
 74
0
 75
0
 76
0
 77
1
 78
12
 79
3
170
0
171
3
172
0
173
0
174
0
175
0
176
0
177
0
178
0
179
2
271
2
272
2
273
2
274
3
275
0
276
0
277
2
278
46
279
1
280
0
281
0
282
0
283
0
284
8
285
0
286
0
288
1
289
3
290
0
340
4C
342
84
371
-2
372
-2
  0
DIMSTYLE
105
88
330
4
100
AcDbSymbolTableRecord
100
AcDbDimStyleTableRecord
  2
EZ_RADIUS_INSIDE
 70
0
 40
1.0
 41
0.25
 42
0.125
 43
3.75
 44
0.375
 45
0.0
 46
0.0
 47
0.0
 48
0.0
 49
2.5
140
0.25
141
0.0
142
0.0
143
0.03937007874
144
100.0
145
0.0
146
0.5
147
0.1
148
0.0
 69
0
 70
0
 71
0
 72
0
 73
0
 74
0
 75
0
 76
0
 77
0
 78
12
 79
3
170
0
171
3
172
0
173
0
174
1
175
0
176
0
177
0
178
0
179
2
271
2
272
2
273
2
274
3
275
0
276
0
277
2
278
46
279
0
280
0
281
0
282
0
283
0
284
8
285
0
286
0
288
1
289
0
290
0
340
4C
342
84
371
-2
372
-2
  0
DIMSTYLE
105
89
330
4
100
AcDbSymbolTableRecord
100
AcDbDimStyleTableRecord
  2
EZ_CURVED
 70
0
 40
1.0
 41
0.25
 42
0.125
 43
3.75
 44
0.375
 45
0.0
 46
0.0
 47
0.0
 48
0.0
 49
2.5
140
0.25
141
2.5
142
0.0
143
0.03937007874
144
100.0
145
0.0
146
0.5
147
0.1
148
0.0
 69
0
 70
0
 71
0
 72
0
 73
0
 74
0
 75
0
 76
0
 77
1
 78
12
 79
2
 90
2
170
0
171
3
172
1
173
0
174
0
175
0
176
0
177
0
178
0
179
2
271
2
272
2
273
2
274
3
275
0
276
0
277
2
278
46
279
2
280
0
281
0
282
0
283
0
284
8
285
0
286
0
288
1
289
3
290
0
340
4C
371
-2
372
-2
  0
ENDTAB
  0
TABLE
  2
BLOCK_RECORD
  5
9
330
0
100
AcDbSymbolTable
 70
5
  0
BLOCK_RECORD
  5
17
102
{ACAD_XDICTIONARY
360
1AE
102
}
330
9
100
AcDbSymbolTableRecord
100
AcDbBlockTableRecord
  2
*Model_Space
340
1A
 70
0
280
1
281
0
  0
BLOCK_RECORD
  5
1B
330
9
100
AcDbSymbolTableRecord
100
AcDbBlockTableRecord
  2
*Paper_Space
340
1E
 70
0
280
1
281
0
  0
BLOCK_RECORD
  5
74
330
9
100
AcDbSymbolTableRecord
100
AcDbBlockTableRecord
  2
_ARCHTICK
340
0
 70
0
280
1
281
0
  0
BLOCK_RECORD
  5
78
330
9
100
AcDbSymbolTableRecord
100
AcDbBlockTableRecord
  2
_CLOSEDFILLED
340
0
 70
0
280
1
281
0
  0
BLOCK_RECORD
  5
84
330
9
100
AcDbSymbolTableRecord
100
AcDbBlockTableRecord
  2
_CLOSEDBLANK
340
0
 70
0
280
1
281
0
  0
ENDTAB
  0
ENDSEC
  0
SECTION
  2
BLOCKS
  0
BLOCK
  5
18
330
17
100
AcDbEntity
  8
0
100
AcDbBlockBegin
  2
*Model_Space
 70
0
 10
0.0
 20
0.0
 30
0.0
  3
*Model_Space
  1

  0
ENDBLK
  5
19
330
17
100
AcDbEntity
  8
0
100
AcDbBlockEnd
  0
BLOCK
  5
1C
330
1B
100
AcDbEntity
  8
0
100
AcDbBlockBegin
  2
*Paper_Space
 70
0
 10
0.0
 20
0.0
 30
0.0
  3
*Paper_Space
  1

  0
ENDBLK
  5
1D
330
1B
100
AcDbEntity
  8
0
100
AcDbBlockEnd
  0
BLOCK
  5
75
330
74
100
AcDbEntity
  8
0
100
AcDbBlockBegin
  2
_ARCHTICK
 70
0
 10
0.0
 20
0.0
 30
0.0
  3
_ARCHTICK
  1

  0
LWPOLYLINE
  5
77
330
74
100
AcDbEntity
  8
0
  6
BYBLOCK
 62
0
100
AcDbPolyline
 90
2
 70
0
 43
0.15
 10
-0.5
 20
-0.5
 10
0.5
 20
0.5
  0
ENDBLK
  5
76
330
74
100
AcDbEntity
  8
0
100
AcDbBlockEnd
  0
BLOCK
  5
79
330
78
100
AcDbEntity
  8
0
100
AcDbBlockBegin
  2
_CLOSEDFILLED
 70
0
 10
0.0
 20
0.0
 30
0.0
  3
_CLOSEDFILLED
  1

  0
SOLID
  5
7B
330
78
100
AcDbEntity
  8
0
  6
BYBLOCK
 62
0
100
AcDbTrace
 10
-1.0
 20
0.16439898372402537
 30
0.0
 11
0.0
 21
0.0
 31
0.0
 12
-1.0
 22
-0.16439898372402537
 32
0.0
 13
-1.0
 23
-0.16439898372402537
 33
0.0
  0
ENDBLK
  5
7A
330
78
100
AcDbEntity
  8
0
100
AcDbBlockEnd
  0
BLOCK
  5
85
330
84
100
AcDbEntity
  8
0
100
AcDbBlockBegin
  2
_CLOSEDBLANK
 70
0
 10
0.0
 20
0.0
 30
0.0
  3
_CLOSEDBLANK
  1

  0
LWPOLYLINE
  5
87
330
84
100
AcDbEntity
  8
0
  6
BYBLOCK
 62
0
100
AcDbPolyline
 90
3
 70
1
 10
-1.0
 20
0.16439898372402537
 10
0.0
 20
0.0
 10
-1.0
 20
-0.16439898372402537
  0
ENDBLK
  5
86
330
84
100
AcDbEntity
  8
0
100
AcDbBlockEnd
  0
ENDSEC
  0
SECTION
  2
ENTITIES
  0
LINE
  5
90
330
17
100
AcDbEntity
  8
TRACE_STRAIGHT
 62
5
100
AcDbLine
 10
114.70738220214844
 20
3523.6235733032227
 30
0.0
 11
114.70738220214844
 21
133.92797851562455
 31
0.0
  0
LINE
  5
91
330
17
100
AcDbEntity
  8
TRACE_STRAIGHT
 62
5
100
AcDbLine
 10
114.70738220214844
 20
3523.6235733032227
 30
0.0
 11
2509.0213623046875
 21
3523.6235733032227
 31
0.0
  0
LINE
  5
92
330
17
100
AcDbEntity
  8
TRACE_STRAIGHT
 62
5
100
AcDbLine
 10
2509.0213623046875
 20
3523.6235733032227
 30
0.0
 11
2509.0213623046875
 21
133.927978515625
 31
0.0
  0
LINE
  5
93
330
17
100
AcDbEntity
  8
TRACE_STRAIGHT
 62
5
100
AcDbLine
 10
398.2983097162294
 20
3409.6686938064604
 30
0.0
 11
398.2983097162294
 21
246.78592610541318
 31
0.0
  0
LINE
  5
94
330
17
100
AcDbEntity
  8
TRACE_STRAIGHT
 62
5
100
AcDbLine
 10
398.2983097162294
 20
3409.6686938064604
 30
0.0
 11
2397.3175333945646
 21
3409.6686938064604
 31
0.0
  0
LINE
  5
95
330
17
100
AcDbEntity
  8
TRACE_STRAIGHT
 62
5
100
AcDbLine
 10
1312.3042987858475
 20
3409.6686938064604
 30
0.0
 11
1312.3042987858475
 21
2610.373129578178
 31
0.0
  0
LINE
  5
96
330
17
100
AcDbEntity
  8
TRACE_STRAIGHT
 62
5
100
AcDbLine
 10
2397.3175333945646
 20
3409.6686938064604
 30
0.0
 11
2397.3175333945646
 21
246.78592610541273
 31
0.0
  0
LINE
  5
97
330
17
100
AcDbEntity
  8
TRACE_STRAIGHT
 62
5
100
AcDbLine
 10
1665.1033630371094
 20
3339.0
 30
0.0
 11
1665.1033630371094
 21
3257.0
 31
0.0
  0
LINE
  5
98
330
17
100
AcDbEntity
  8
TRACE_STRAIGHT
 62
5
100
AcDbLine
 10
1793.5911712646484
 20
3333.376251220703
 30
0.0
 11
1794.2162551879883
 21
3252.7481536865234
 31
0.0
  0
LINE
  5
99
330
17
100
AcDbEntity
  8
TRACE_STRAIGHT
 62
5
100
AcDbLine
 10
1975.8749084472656
 20
3332.3148078918457
 30
0.0
 11
2018.3126831054688
 21
3332.3148078918457
 31
0.0
  0
LINE
  5
9A
330
17
100
AcDbEntity
  8
TRACE_STRAIGHT
 62
5
100
AcDbLine
 10
1873.30517578125
 20
3331.1181716918945
 30
0.0
 11
1873.30517578125
 21
3261.0
 31
0.0
  0
LINE
  5
9B
330
17
100
AcDbEntity
  8
TRACE_STRAIGHT
 62
5
100
AcDbLine
 10
1873.30517578125
 20
3331.1181716918945
 30
0.0
 11
1925.0
 21
3331.1181716918945
 31
0.0
  0
LINE
  5
9C
330
17
100
AcDbEntity
  8
TRACE_STRAIGHT
 62
5
100
AcDbLine
 10
1665.1033630371094
 20
3329.0848541259766
 30
0.0
 11
1728.428955078125
 21
3329.0848541259766
 31
0.0
  0
LINE
  5
9D
330
17
100
AcDbEntity
  8
TRACE_STRAIGHT
 62
5
100
AcDbLine
 10
1671.3873291015625
 20
3329.0848541259766
 30
0.0
 11
1671.3873291015625
 21
3257.0
 31
0.0
  0
LINE
  5
9E
330
17
100
AcDbEntity
  8
TRACE_STRAIGHT
 62
5
100
AcDbLine
 10
1728.428955078125
 20
3329.0848541259766
 30
0.0
 11
1732.9531118348482
 21
3256.4781198964374
 31
0.0
  0
LINE
  5
9F
330
17
100
AcDbEntity
  8
TRACE_STRAIGHT
 62
5
100
AcDbLine
 10
1728.428955078125
 20
3329.0848541259766
 30
0.0
 11
1728.428955078125
 21
3256.8962402395737
 31
0.0
  0
LINE
  5
A0
330
17
100
AcDbEntity
  8
TRACE_STRAIGHT
 62
5
100
AcDbLine
 10
1873.0
 20
3308.0
 30
0.0
 11
1923.189697265625
 21
3315.0265576171873
 31
0.0
  0
LINE
  5
A1
330
17
100
AcDbEntity
  8
TRACE_STRAIGHT
 62
5
100
AcDbLine
 10
1923.189697265625
 20
3315.0265576171873
 30
0.0
 11
1923.189697265625
 21
3253.3606567382812
 31
0.0
  0
LINE
  5
A2
330
17
100
AcDbEntity
  8
TRACE_STRAIGHT
 62
5
100
AcDbLine
 10
1961.4152389169165
 20
3307.4755394423087
 30
0.0
 11
2036.8946700692602
 21
3311.738768812426
 31
0.0
  0
LINE
  5
A3
330
17
100
AcDbEntity
  8
TRACE_STRAIGHT
 62
5
100
AcDbLine
 10
1996.4047241210938
 20
3250.872314453125
 30
0.0
 11
1999.6070131253039
 21
3309.6326873038693
 31
0.0
  0
LINE
  5
A4
330
17
100
AcDbEntity
  8
TRACE_STRAIGHT
 62
5
100
AcDbLine
 10
1999.0082659195368
 20
3309.5988688630846
 30
0.0
 11
2002.1950073242188
 21
3248.3755798339844
 31
0.0
  0
LINE
  5
A5
330
17
100
AcDbEntity
  8
TRACE_STRAIGHT
 62
5
100
AcDbLine
 10
1873.0
 20
3308.0
 30
0.0
 11
1923.189697265625
 21
3308.0
 31
0.0
  0
LINE
  5
A6
330
17
100
AcDbEntity
  8
TRACE_STRAIGHT
 62
5
100
AcDbLine
 10
1793.828825058637
 20
3302.7218501625207
 30
0.0
 11
1840.562432044825
 21
3302.7218501625207
 31
0.0
  0
LINE
  5
A7
330
17
100
AcDbEntity
  8
TRACE_STRAIGHT
 62
5
100
AcDbLine
 10
1794.2162551879883
 20
3252.7481536865234
 30
0.0
 11
1797.398794274122
 21
3302.7218501625207
 31
0.0
  0
LINE
  5
A8
330
17
100
AcDbEntity
  8
TRACE_STRAIGHT
 62
5
100
AcDbLine
 10
1873.0
 20
3285.5
 30
0.0
 11
1924.0
 21
3285.5
 31
0.0
  0
LINE
  5
A9
330
17
100
AcDbEntity
  8
TRACE_STRAIGHT
 62
5
100
AcDbLine
 10
1665.1033630371094
 20
3262.7487603217173
 30
0.0
 11
1732.9531118348482
 21
3256.4781198964374
 31
0.0
  0
LINE
  5
AA
330
17
100
AcDbEntity
  8
TRACE_STRAIGHT
 62
5
100
AcDbLine
 10
1873.30517578125
 20
3261.0
 30
0.0
 11
1923.189697265625
 21
3262.014019711963
 31
0.0
  0
LINE
  5
AB
330
17
100
AcDbEntity
  8
TRACE_STRAIGHT
 62
5
100
AcDbLine
 10
585.0075415508601
 20
3261.90623722867
 30
0.0
 11
651.4452551739072
 21
3261.90623722867
 31
0.0
  0
LINE
  5
AC
330
17
100
AcDbEntity
  8
TRACE_STRAIGHT
 62
5
100
AcDbLine
 10
824.35242880994
 20
3261.6062240600586
 30
0.0
 11
895.6325073242188
 21
3261.6062240600586
 31
0.0
  0
LINE
  5
AD
330
17
100
AcDbEntity
  8
TRACE_STRAIGHT
 62
5
100
AcDbLine
 10
824.35242880994
 20
3261.6062240600586
 30
0.0
 11
854.6728515625
 21
3236.2308959960938
 31
0.0
  0
LINE
  5
AE
330
17
100
AcDbEntity
  8
TRACE_STRAIGHT
 62
5
100
AcDbLine
 10
692.6522521972656
 20
3261.330502831511
 30
0.0
 11
784.4933573268829
 21
3261.330502831511
 31
0.0
  0
LINE
  5
AF
330
17
100
AcDbEntity
  8
TRACE_STRAIGHT
 62
5
100
AcDbLine
 10
692.6522521972656
 20
3261.330502831511
 30
0.0
 11
692.6522521972656
 21
3213.2977056503296
 31
0.0
  0
LINE
  5
B0
330
17
100
AcDbEntity
  8
TRACE_STRAIGHT
 62
5
100
AcDbLine
 10
784.4933573268829
 20
3261.330502831511
 30
0.0
 11
829.6865234375
 21
3237.7212829589844
 31
0.0
  0
LINE
  5
B1
330
17
100
AcDbEntity
  8
TRACE_STRAIGHT
 62
5
100
AcDbLine
 10
746.2742309570312
 20
3260.869338989258
 30
0.0
 11
793.7403870599719
 21
3256.499791090671
 31
0.0
  0
LINE
  5
B2
330
17
100
AcDbEntity
  8
TRACE_STRAIGHT
 62
5
100
AcDbLine
 10
982.0596635132503
 20
3260.855847720093
 30
0.0
 11
1022.0689510295263
 21
3212.1850459215907
 31
0.0
  0
LINE
  5
B3
330
17
100
AcDbEntity
  8
TRACE_STRAIGHT
 62
5
100
AcDbLine
 10
1665.1033630371094
 20
3257.0
 30
0.0
 11
1732.9205932617188
 21
3257.0
 31
0.0
  0
LINE
  5
B4
330
17
100
AcDbEntity
  8
TRACE_STRAIGHT
 62
5
100
AcDbLine
 10
963.6492919921875
 20
3250.087127685547
 30
0.0
 11
996.539930943889
 21
3212.7706837020596
 31
0.0
  0
LINE
  5
B5
330
17
100
AcDbEntity
  8
TRACE_STRAIGHT
 62
5
100
AcDbLine
 10
962.0
 20
3228.0
 30
0.0
 11
1009.0
 21
3231.0
 31
0.0
  0
LINE
  5
B6
330
17
100
AcDbEntity
  8
TRACE_STRAIGHT
 62
5
100
AcDbLine
 10
649.204542577473
 20
3225.215598933012
 30
0.0
 11
727.204542577473
 21
3151.215598933012
 31
0.0
  0
LINE
  5
B7
330
17
100
AcDbEntity
  8
TRACE_STRAIGHT
 62
5
100
AcDbLine
 10
976.0
 20
3211.0
 30
0.0
 11
1034.0
 21
3216.0
 31
0.0
  0
LINE
  5
B8
330
17
100
AcDbEntity
  8
TRACE_STRAIGHT
 62
5
100
AcDbLine
 10
692.6522521972656
 20
3213.2977056503296
 30
0.0
 11
766.9052734375
 21
3213.2977056503296
 31
0.0
  0
LINE
  5
B9
330
17
100
AcDbEntity
  8
TRACE_STRAIGHT
 62
5
100
AcDbLine
 10
599.5436876603062
 20
3193.70488272856
 30
0.0
 11
660.9232417457072
 21
3138.5863301936156
 31
0.0
  0
LINE
  5
BA
330
17
100
AcDbEntity
  8
TRACE_STRAIGHT
 62
5
100
AcDbLine
 10
1306.998688132065
 20
3180.966076259567
 30
0.0
 11
2397.3175333945646
 21
3180.966076259567
 31
0.0
  0
LINE
  5
BB
330
17
100
AcDbEntity
  8
TRACE_STRAIGHT
 62
5
100
AcDbLine
 10
1540.44472065525
 20
3180.966076259567
 30
0.0
 11
1540.44472065525
 21
2610.373129578178
 31
0.0
  0
LINE
  5
BC
330
17
100
AcDbEntity
  8
TRACE_STRAIGHT
 62
5
100
AcDbLine
 10
1940.4447209864238
 20
3180.966076259567
 30
0.0
 11
1940.444720986424
 21
2610.373129578178
 31
0.0
  0
LINE
  5
BD
330
17
100
AcDbEntity
  8
TRACE_STRAIGHT
 62
5
100
AcDbLine
 10
2167.311798186296
 20
3180.966076259567
 30
0.0
 11
2167.311798186296
 21
2610.373129578178
 31
0.0
  0
LINE
  5
BE
330
17
100
AcDbEntity
  8
TRACE_STRAIGHT
 62
5
100
AcDbLine
 10
1049.8110392764793
 20
3177.7199146729963
 30
0.0
 11
1104.2856791690579
 21
3110.3398945313947
 31
0.0
  0
LINE
  5
BF
330
17
100
AcDbEntity
  8
TRACE_STRAIGHT
 62
5
100
AcDbLine
 10
1022.7054443359375
 20
3176.5428771972656
 30
0.0
 11
1052.177001953125
 21
3142.367141723633
 31
0.0
  0
LINE
  5
C0
330
17
100
AcDbEntity
  8
TRACE_STRAIGHT
 62
5
100
AcDbLine
 10
1029.8583984375
 20
3172.5147094726562
 30
0.0
 11
1052.177001953125
 21
3142.367141723633
 31
0.0
  0
LINE
  5
C1
330
17
100
AcDbEntity
  8
TRACE_STRAIGHT
 62
5
100
AcDbLine
 10
866.4708862304688
 20
3120.7265014648438
 30
0.0
 11
873.0806884765625
 21
3158.382781982422
 31
0.0
  0
LINE
  5
C2
330
17
100
AcDbEntity
  8
TRACE_STRAIGHT
 62
5
100
AcDbLine
 10
858.0305786132812
 20
3108.0201416015625
 30
0.0
 11
869.2799682617188
 21
3144.6541748046875
 31
0.0
  0
LINE
  5
C3
330
17
100
AcDbEntity
  8
TRACE_STRAIGHT
 62
5
100
AcDbLine
 10
976.6466221155962
 20
3092.970583142409
 30
0.0
 11
993.9444580078125
 21
3133.5584716796875
 31
0.0
  0
LINE
  5
C4
330
17
100
AcDbEntity
  8
TRACE_STRAIGHT
 62
5
100
AcDbLine
 10
726.0
 20
3095.0
 30
0.0
 11
779.0
 21
3104.0
 31
0.0
  0
LINE
  5
C5
330
17
100
AcDbEntity
  8
TRACE_STRAIGHT
 62
5
100
AcDbLine
 10
944.4678955078125
 20
3063.1746826171875
 30
0.0
 11
984.2381927439485
 21
3100.0
 31
0.0
  0
LINE
  5
C6
330
17
100
AcDbEntity
  8
TRACE_STRAIGHT
 62
5
100
AcDbLine
 10
971.6281738281249
 20
3065.583282470703
 30
0.0
 11
997.9065527466892
 21
3100.0
 31
0.0
  0
LINE
  5
C7
330
17
100
AcDbEntity
  8
TRACE_STRAIGHT
 62
5
100
AcDbLine
 10
977.0
 20
3100.0
 30
0.0
 11
1016.0
 21
3100.0
 31
0.0
  0
LINE
  5
C8
330
17
100
AcDbEntity
  8
TRACE_STRAIGHT
 62
5
100
AcDbLine
 10
567.6558837890625
 20
3098.2368739987432
 30
0.0
 11
649.0136606776979
 21
3098.2368739987432
 31
0.0
  0
LINE
  5
C9
330
17
100
AcDbEntity
  8
TRACE_STRAIGHT
 62
5
100
AcDbLine
 10
567.6558837890625
 20
3098.2368739987432
 30
0.0
 11
567.6558837890625
 21
3050.6457287256485
 31
0.0
  0
LINE
  5
CA
330
17
100
AcDbEntity
  8
TRACE_STRAIGHT
 62
5
100
AcDbLine
 10
850.2451782226562
 20
3064.9019775390625
 30
0.0
 11
873.5259399414062
 21
3096.8326416015625
 31
0.0
  0
LINE
  5
CB
330
17
100
AcDbEntity
  8
TRACE_STRAIGHT
 62
5
100
AcDbLine
 10
711.1753450294078
 20
3050.8064508372813
 30
0.0
 11
742.7381591796875
 21
3082.5100708007812
 31
0.0
  0
LINE
  5
CC
330
17
100
AcDbEntity
  8
TRACE_STRAIGHT
 62
5
100
AcDbLine
 10
670.7855948960623
 20
3050.6457287256485
 30
0.0
 11
704.8612060546875
 21
3067.3853149414062
 31
0.0
  0
LINE
  5
CD
330
17
100
AcDbEntity
  8
TRACE_STRAIGHT
 62
5
100
AcDbLine
 10
1312.3042987858475
 20
3066.87291886575
 30
0.0
 11
2397.3175333945646
 21
3066.87291886575
 31
0.0
  0
LINE
  5
CE
330
17
100
AcDbEntity
  8
TRACE_STRAIGHT
 62
5
100
AcDbLine
 10
768.3306414770857
 20
3050.8064508372813
 30
0.0
 11
813.6066425413187
 21
3060.3382405350144
 31
0.0
  0
LINE
  5
CF
330
17
100
AcDbEntity
  8
TRACE_STRAIGHT
 62
5
100
AcDbLine
 10
704.1784012940047
 20
3050.8064508372813
 30
0.0
 11
784.9910233643174
 21
3050.8064508372813
 31
0.0
  0
LINE
  5
D0
330
17
100
AcDbEntity
  8
TRACE_STRAIGHT
 62
5
100
AcDbLine
 10
567.6558837890625
 20
3050.6457287256485
 30
0.0
 11
670.7855948960623
 21
3050.6457287256485
 31
0.0
  0
LINE
  5
D1
330
17
100
AcDbEntity
  8
TRACE_STRAIGHT
 62
5
100
AcDbLine
 10
950.9326218417824
 20
3050.055234187037
 30
0.0
 11
1026.9978379062356
 21
3050.055234187037
 31
0.0
  0
LINE
  5
D2
330
17
100
AcDbEntity
  8
TRACE_STRAIGHT
 62
5
100
AcDbLine
 10
827.5713237091823
 20
3049.9633004008147
 30
0.0
 11
911.4726603791041
 21
3049.9633004008147
 31
0.0
  0
LINE
  5
D3
330
17
100
AcDbEntity
  8
TRACE_STRAIGHT
 62
5
100
AcDbLine
 10
1346.0
 20
3031.0
 30
0.0
 11
1384.0
 21
3031.0
 31
0.0
  0
LINE
  5
D4
330
17
100
AcDbEntity
  8
TRACE_STRAIGHT
 62
5
100
AcDbLine
 10
1974.2496744791667
 20
3029.7911071777344
 30
0.0
 11
2011.917236328125
 21
3029.7911071777344
 31
0.0
  0
LINE
  5
D5
330
17
100
AcDbEntity
  8
TRACE_STRAIGHT
 62
5
100
AcDbLine
 10
754.1666666666666
 20
3003.0609741210938
 30
0.0
 11
809.6666666666666
 21
3003.0609741210938
 31
0.0
  0
LINE
  5
D6
330
17
100
AcDbEntity
  8
TRACE_STRAIGHT
 62
5
100
AcDbLine
 10
1212.7708937235552
 20
3002.6009521484375
 30
0.0
 11
1212.7708937235552
 21
2938.0
 31
0.0
  0
LINE
  5
D7
330
17
100
AcDbEntity
  8
TRACE_STRAIGHT
 62
5
100
AcDbLine
 10
644.4840749104819
 20
3002.083577473958
 30
0.0
 11
644.4840749104819
 21
2935.669970671007
 31
0.0
  0
LINE
  5
D8
330
17
100
AcDbEntity
  8
TRACE_STRAIGHT
 62
5
100
AcDbLine
 10
1130.3760681152346
 20
3001.420166510566
 30
0.0
 11
1212.7708937235552
 21
2995.9360046941774
 31
0.0
  0
LINE
  5
D9
330
17
100
AcDbEntity
  8
TRACE_STRAIGHT
 62
5
100
AcDbLine
 10
1130.3760681152346
 20
3001.420166510566
 30
0.0
 11
1130.3760681152346
 21
2938.0
 31
0.0
  0
LINE
  5
DA
330
17
100
AcDbEntity
  8
TRACE_STRAIGHT
 62
5
100
AcDbLine
 10
541.4022979736328
 20
2998.3753967285156
 30
0.0
 11
541.4022979736328
 21
2942.7491760253906
 31
0.0
  0
LINE
  5
DB
330
17
100
AcDbEntity
  8
TRACE_STRAIGHT
 62
5
100
AcDbLine
 10
459.37523651123047
 20
2997.750030517578
 30
0.0
 11
459.37523651123047
 21
2940.875
 31
0.0
  0
LINE
  5
DC
330
17
100
AcDbEntity
  8
TRACE_STRAIGHT
 62
5
100
AcDbLine
 10
1129.0
 20
2994.970413208008
 30
0.0
 11
1212.7708937235552
 21
2995.994241131842
 31
0.0
  0
LINE
  5
DD
330
17
100
AcDbEntity
  8
TRACE_STRAIGHT
 62
5
100
AcDbLine
 10
1197.58708190918
 20
2995.808668197917
 30
0.0
 11
1197.58708190918
 21
2938.0
 31
0.0
  0
LINE
  5
DE
330
17
100
AcDbEntity
  8
TRACE_STRAIGHT
 62
5
100
AcDbLine
 10
657.6999130249023
 20
2995.2501831054688
 30
0.0
 11
657.6999130249023
 21
2935.669970671007
 31
0.0
  0
LINE
  5
DF
330
17
100
AcDbEntity
  8
TRACE_STRAIGHT
 62
5
100
AcDbLine
 10
1146.955533444645
 20
2995.1898614639695
 30
0.0
 11
1146.955533444645
 21
2935.846138500936
 31
0.0
  0
LINE
  5
E0
330
17
100
AcDbEntity
  8
TRACE_STRAIGHT
 62
5
100
AcDbLine
 10
753.4166666666666
 20
2983.064900716146
 30
0.0
 11
809.75
 21
2983.064900716146
 31
0.0
  0
LINE
  5
E1
330
17
100
AcDbEntity
  8
TRACE_STRAIGHT
 62
5
100
AcDbLine
 10
999.6666666666666
 20
2966.0871378580728
 30
0.0
 11
1078.0833333333333
 21
2966.0871378580728
 31
0.0
  0
LINE
  5
E2
330
17
100
AcDbEntity
  8
TRACE_STRAIGHT
 62
5
100
AcDbLine
 10
1312.3042987858475
 20
2952.7733035503707
 30
0.0
 11
2397.3175333945646
 21
2952.7733035503707
 31
0.0
  0
LINE
  5
E3
330
17
100
AcDbEntity
  8
TRACE_STRAIGHT
 62
5
100
AcDbLine
 10
1130.3760681152346
 20
2938.0
 30
0.0
 11
1212.7708937235552
 21
2938.0
 31
0.0
  0
LINE
  5
E4
330
17
100
AcDbEntity
  8
TRACE_STRAIGHT
 62
5
100
AcDbLine
 10
597.2471895673633
 20
2935.669970671007
 30
0.0
 11
657.6999130249023
 21
2935.669970671007
 31
0.0
  0
LINE
  5
E5
330
17
100
AcDbEntity
  8
TRACE_STRAIGHT
 62
5
100
AcDbLine
 10
1312.3042987858475
 20
2837.773303624019
 30
0.0
 11
2397.3175333945646
 21
2837.773303624019
 31
0.0
  0
LINE
  5
E6
330
17
100
AcDbEntity
  8
TRACE_STRAIGHT
 62
5
100
AcDbLine
 10
1448.1248168945312
 20
2785.630630493164
 30
0.0
 11
1485.62548828125
 21
2785.630630493164
 31
0.0
  0
LINE
  5
E7
330
17
100
AcDbEntity
  8
TRACE_STRAIGHT
 62
5
100
AcDbLine
 10
398.2983097162294
 20
2723.982049770484
 30
0.0
 11
2397.3175333945646
 21
2723.982049770484
 31
0.0
  0
LINE
  5
E8
330
17
100
AcDbEntity
  8
TRACE_STRAIGHT
 62
5
100
AcDbLine
 10
567.8639632463171
 20
2723.982049770484
 30
0.0
 11
567.8639632463171
 21
681.5634943528403
 31
0.0
  0
LINE
  5
E9
330
17
100
AcDbEntity
  8
TRACE_STRAIGHT
 62
5
100
AcDbLine
 10
1041.400390625
 20
2697.1251525878906
 30
0.0
 11
1041.400390625
 21
2632.124725341797
 31
0.0
  0
LINE
  5
EA
330
17
100
AcDbEntity
  8
TRACE_STRAIGHT
 62
5
100
AcDbLine
 10
670.0860799153646
 20
2696.7501017252603
 30
0.0
 11
670.0860799153646
 21
2631.7499186197915
 31
0.0
  0
LINE
  5
EB
330
17
100
AcDbEntity
  8
TRACE_STRAIGHT
 62
5
100
AcDbLine
 10
1055.3833618164062
 20
2696.500213623047
 30
0.0
 11
1055.3833618164062
 21
2634.625030517578
 31
0.0
  0
LINE
  5
EC
330
17
100
AcDbEntity
  8
TRACE_STRAIGHT
 62
5
100
AcDbLine
 10
872.7557257458327
 20
2694.751335947426
 30
0.0
 11
872.7557257458327
 21
2636.688835947426
 31
0.0
  0
LINE
  5
ED
330
17
100
AcDbEntity
  8
TRACE_STRAIGHT
 62
5
100
AcDbLine
 10
978.3751831054688
 20
2632.124755859375
 30
0.0
 11
979.0486755371094
 21
2694.6260375976562
 31
0.0
  0
LINE
  5
EE
330
17
100
AcDbEntity
  8
TRACE_STRAIGHT
 62
5
100
AcDbLine
 10
949.375
 20
2694.625
 30
0.0
 11
949.375
 21
2632.125
 31
0.0
  0
LINE
  5
EF
330
17
100
AcDbEntity
  8
TRACE_STRAIGHT
 62
5
100
AcDbLine
 10
864.3772583007812
 20
2690.250213623047
 30
0.0
 11
864.3772583007812
 21
2635.8749084472656
 31
0.0
  0
LINE
  5
F0
330
17
100
AcDbEntity
  8
TRACE_STRAIGHT
 62
5
100
AcDbLine
 10
488.125
 20
2677.5970458984375
 30
0.0
 11
525.625
 21
2677.5970458984375
 31
0.0
  0
LINE
  5
F1
330
17
100
AcDbEntity
  8
TRACE_STRAIGHT
 62
5
100
AcDbLine
 10
799.6729250512689
 20
2617.000057175911
 30
0.0
 11
799.672925051269
 21
681.5634943528403
 31
0.0
  0
LINE
  5
F2
330
17
100
AcDbEntity
  8
TRACE_STRAIGHT
 62
5
100
AcDbLine
 10
1712.6451914983122
 20
2617.0
 30
0.0
 11
1712.6451914983124
 21
681.5634943528403
 31
0.0
  0
LINE
  5
F3
330
17
100
AcDbEntity
  8
TRACE_STRAIGHT
 62
5
100
AcDbLine
 10
1881.095596253962
 20
2617.0
 30
0.0
 11
1881.095596253962
 21
681.5634943528403
 31
0.0
  0
LINE
  5
F4
330
17
100
AcDbEntity
  8
TRACE_STRAIGHT
 62
5
100
AcDbLine
 10
398.2983097162294
 20
2610.373129578178
 30
0.0
 11
2397.3175333945646
 21
2610.373129578178
 31
0.0
  0
LINE
  5
F5
330
17
100
AcDbEntity
  8
TRACE_STRAIGHT
 62
5
100
AcDbLine
 10
2053.0074060891347
 20
2610.373129578178
 30
0.0
 11
2053.0074060891343
 21
681.5634943528403
 31
0.0
  0
LINE
  5
F6
330
17
100
AcDbEntity
  8
TRACE_STRAIGHT
 62
5
100
AcDbLine
 10
1752.1875610351562
 20
2582.3125
 30
0.0
 11
1790.5625610351562
 21
2582.3125
 31
0.0
  0
LINE
  5
F7
330
17
100
AcDbEntity
  8
TRACE_STRAIGHT
 62
5
100
AcDbLine
 10
644.2499796549479
 20
2581.7497151692705
 30
0.0
 11
683.0000203450521
 21
2581.7497151692705
 31
0.0
  0
LINE
  5
F8
330
17
100
AcDbEntity
  8
TRACE_STRAIGHT
 62
5
100
AcDbLine
 10
1150.3119506835938
 20
2581.4022521972656
 30
0.0
 11
1188.5640258789062
 21
2581.4022521972656
 31
0.0
  0
LINE
  5
F9
330
17
100
AcDbEntity
  8
TRACE_STRAIGHT
 62
5
100
AcDbLine
 10
441.8745880126953
 20
2577.121124267578
 30
0.0
 11
480.00030517578125
 21
2577.121124267578
 31
0.0
  0
LINE
  5
FA
330
17
100
AcDbEntity
  8
TRACE_STRAIGHT
 62
5
100
AcDbLine
 10
1925.8134155273438
 20
2567.7456970214844
 30
0.0
 11
1964.6884155273438
 21
2567.7456970214844
 31
0.0
  0
LINE
  5
FB
330
17
100
AcDbEntity
  8
TRACE_STRAIGHT
 62
5
100
AcDbLine
 10
690.0007476806641
 20
2564.6908569335938
 30
0.0
 11
732.5007781982422
 21
2564.6908569335938
 31
0.0
  0
LINE
  5
FC
330
17
100
AcDbEntity
  8
TRACE_STRAIGHT
 62
5
100
AcDbLine
 10
441.9173177083333
 20
2561.0280545552573
 30
0.0
 11
529.3749694824219
 21
2561.0280545552573
 31
0.0
  0
LINE
  5
FD
330
17
100
AcDbEntity
  8
TRACE_STRAIGHT
 62
5
100
AcDbLine
 10
2178.558349609375
 20
2558.289749145508
 30
0.0
 11
2218.8151245117188
 21
2558.289749145508
 31
0.0
  0
LINE
  5
FE
330
17
100
AcDbEntity
  8
TRACE_STRAIGHT
 62
5
100
AcDbLine
 10
1751.8741455078125
 20
2544.625
 30
0.0
 11
1789.375244140625
 21
2544.625
 31
0.0
  0
LINE
  5
FF
330
17
100
AcDbEntity
  8
TRACE_STRAIGHT
 62
5
100
AcDbLine
 10
644.2492268880209
 20
2543.7477416992188
 30
0.0
 11
681.9158935546875
 21
2543.7477416992188
 31
0.0
  0
LINE
  5
100
330
17
100
AcDbEntity
  8
TRACE_STRAIGHT
 62
5
100
AcDbLine
 10
1150.0
 20
2543.0
 30
0.0
 11
1188.0
 21
2543.0
 31
0.0
  0
LINE
  5
101
330
17
100
AcDbEntity
  8
TRACE_STRAIGHT
 62
5
100
AcDbLine
 10
398.2983097162294
 20
2506.659869021493
 30
0.0
 11
2397.3175333945646
 21
2506.659869021493
 31
0.0
  0
LINE
  5
102
330
17
100
AcDbEntity
  8
TRACE_STRAIGHT
 62
5
100
AcDbLine
 10
1965.3868408203125
 20
2442.4547119140625
 30
0.0
 11
1973.978271484375
 21
2481.23974609375
 31
0.0
  0
LINE
  5
103
330
17
100
AcDbEntity
  8
TRACE_STRAIGHT
 62
5
100
AcDbLine
 10
480.8200988769531
 20
2442.080322265625
 30
0.0
 11
489.74755859375
 21
2481.075927734375
 31
0.0
  0
LINE
  5
104
330
17
100
AcDbEntity
  8
TRACE_STRAIGHT
 62
5
100
AcDbLine
 10
398.2983097162294
 20
2417.5195199865557
 30
0.0
 11
2397.3175333945646
 21
2417.5195199865557
 31
0.0
  0
LINE
  5
105
330
17
100
AcDbEntity
  8
TRACE_STRAIGHT
 62
5
100
AcDbLine
 10
1965.5963134765625
 20
2352.13134765625
 30
0.0
 11
1974.0054931640625
 21
2389.9847412109375
 31
0.0
  0
LINE
  5
106
330
17
100
AcDbEntity
  8
TRACE_STRAIGHT
 62
5
100
AcDbLine
 10
398.2983097162294
 20
2323.8535239299135
 30
0.0
 11
2397.3175333945646
 21
2323.8535239299135
 31
0.0
  0
LINE
  5
107
330
17
100
AcDbEntity
  8
TRACE_STRAIGHT
 62
5
100
AcDbLine
 10
1965.3553466796875
 20
2259.96923828125
 30
0.0
 11
1974.131591796875
 21
2298.7132568359375
 31
0.0
  0
LINE
  5
108
330
17
100
AcDbEntity
  8
TRACE_STRAIGHT
 62
5
100
AcDbLine
 10
398.2983097162294
 20
2234.565513132484
 30
0.0
 11
2397.3175333945646
 21
2234.565513132484
 31
0.0
  0
LINE
  5
109
330
17
100
AcDbEntity
  8
TRACE_STRAIGHT
 62
5
100
AcDbLine
 10
1965.398193359375
 20
2168.7059326171875
 30
0.0
 11
1974.08447265625
 21
2207.47021484375
 31
0.0
  0
LINE
  5
10A
330
17
100
AcDbEntity
  8
TRACE_STRAIGHT
 62
5
100
AcDbLine
 10
398.2983097162294
 20
2141.659869793299
 30
0.0
 11
2397.3175333945646
 21
2141.659869793299
 31
0.0
  0
LINE
  5
10B
330
17
100
AcDbEntity
  8
TRACE_STRAIGHT
 62
5
100
AcDbLine
 10
1965.4202880859375
 20
2077.452392578125
 30
0.0
 11
1974.1414794921875
 21
2116.2088623046875
 31
0.0
  0
LINE
  5
10C
330
17
100
AcDbEntity
  8
TRACE_STRAIGHT
 62
5
100
AcDbLine
 10
398.2983097162294
 20
2052.5195199865548
 30
0.0
 11
2397.3175333945646
 21
2052.5195199865548
 31
0.0
  0
LINE
  5
10D
330
17
100
AcDbEntity
  8
TRACE_STRAIGHT
 62
5
100
AcDbLine
 10
1965.3802490234375
 20
1985.9302978515625
 30
0.0
 11
1974.1929931640625
 21
2024.948486328125
 31
0.0
  0
LINE
  5
10E
330
17
100
AcDbEntity
  8
TRACE_STRAIGHT
 62
5
100
AcDbLine
 10
398.2983097162294
 20
1958.8535239299138
 30
0.0
 11
2397.3175333945646
 21
1958.8535239299138
 31
0.0
  0
LINE
  5
10F
330
17
100
AcDbEntity
  8
TRACE_STRAIGHT
 62
5
100
AcDbLine
 10
398.2983097162294
 20
1869.5655131324834
 30
0.0
 11
2397.3175333945646
 21
1869.5655131324834
 31
0.0
  0
LINE
  5
110
330
17
100
AcDbEntity
  8
TRACE_STRAIGHT
 62
5
100
AcDbLine
 10
398.2983097162294
 20
1776.6598697928225
 30
0.0
 11
2397.3175333945646
 21
1776.6598697928225
 31
0.0
  0
LINE
  5
111
330
17
100
AcDbEntity
  8
TRACE_STRAIGHT
 62
5
100
AcDbLine
 10
398.2983097162294
 20
1684.5524431601862
 30
0.0
 11
2397.3175333945646
 21
1684.5524431601862
 31
0.0
  0
LINE
  5
112
330
17
100
AcDbEntity
  8
TRACE_STRAIGHT
 62
5
100
AcDbLine
 10
398.2983097162294
 20
1595.1012914081416
 30
0.0
 11
2397.3175333945646
 21
1595.1012914081416
 31
0.0
  0
LINE
  5
113
330
17
100
AcDbEntity
  8
TRACE_STRAIGHT
 62
5
100
AcDbLine
 10
398.2983097162294
 20
1504.565451525229
 30
0.0
 11
2397.3175333945646
 21
1504.565451525229
 31
0.0
  0
LINE
  5
114
330
17
100
AcDbEntity
  8
TRACE_STRAIGHT
 62
5
100
AcDbLine
 10
398.2983097162294
 20
1412.5195664054208
 30
0.0
 11
2397.3175333945646
 21
1412.5195664054208
 31
0.0
  0
LINE
  5
115
330
17
100
AcDbEntity
  8
TRACE_STRAIGHT
 62
5
100
AcDbLine
 10
398.2983097162294
 20
1319.5525052147032
 30
0.0
 11
2397.3175333945646
 21
1319.5525052147032
 31
0.0
  0
LINE
  5
116
330
17
100
AcDbEntity
  8
TRACE_STRAIGHT
 62
5
100
AcDbLine
 10
398.2983097162294
 20
1229.5654513985646
 30
0.0
 11
2397.3175333945646
 21
1229.5654513985646
 31
0.0
  0
LINE
  5
117
330
17
100
AcDbEntity
  8
TRACE_STRAIGHT
 62
5
100
AcDbLine
 10
398.2983097162294
 20
1136.6598240318408
 30
0.0
 11
2397.3175333945646
 21
1136.6598240318408
 31
0.0
  0
LINE
  5
118
330
17
100
AcDbEntity
  8
TRACE_STRAIGHT
 62
5
100
AcDbLine
 10
398.2983097162294
 20
1047.5195657480144
 30
0.0
 11
2397.3175333945646
 21
1047.5195657480144
 31
0.0
  0
LINE
  5
119
330
17
100
AcDbEntity
  8
TRACE_STRAIGHT
 62
5
100
AcDbLine
 10
398.2983097162294
 20
953.8535385032492
 30
0.0
 11
2397.3175333945646
 21
953.8535385032492
 31
0.0
  0
LINE
  5
11A
330
17
100
AcDbEntity
  8
TRACE_STRAIGHT
 62
5
100
AcDbLine
 10
398.2983097162294
 20
864.5654514193366
 30
0.0
 11
2397.3175333945646
 21
864.5654514193366
 31
0.0
  0
LINE
  5
11B
330
17
100
AcDbEntity
  8
TRACE_STRAIGHT
 62
5
100
AcDbLine
 10
398.2983097162294
 20
771.6598240313633
 30
0.0
 11
2397.3175333945646
 21
771.6598240313633
 31
0.0
  0
LINE
  5
11C
330
17
100
AcDbEntity
  8
TRACE_STRAIGHT
 62
5
100
AcDbLine
 10
398.2983097162294
 20
681.5634943528403
 30
0.0
 11
2397.3175333945646
 21
681.5634943528403
 31
0.0
  0
LINE
  5
11D
330
17
100
AcDbEntity
  8
TRACE_STRAIGHT
 62
5
100
AcDbLine
 10
1877.4994506835938
 20
639.624755859375
 30
0.0
 11
1915.0006103515625
 21
639.624755859375
 31
0.0
  0
LINE
  5
11E
330
17
100
AcDbEntity
  8
TRACE_STRAIGHT
 62
5
100
AcDbLine
 10
398.2983097162294
 20
588.7493829057521
 30
0.0
 11
2397.3175333945646
 21
588.7493829057521
 31
0.0
  0
LINE
  5
11F
330
17
100
AcDbEntity
  8
TRACE_STRAIGHT
 62
5
100
AcDbLine
 10
580.6952823493834
 20
588.7493829057512
 30
0.0
 11
580.6952823493834
 21
246.78592610541318
 31
0.0
  0
LINE
  5
120
330
17
100
AcDbEntity
  8
TRACE_STRAIGHT
 62
5
100
AcDbLine
 10
838.1065905310811
 20
588.7493829057512
 30
0.0
 11
838.1065905310811
 21
246.78592610541318
 31
0.0
  0
LINE
  5
121
330
17
100
AcDbEntity
  8
TRACE_STRAIGHT
 62
5
100
AcDbLine
 10
1097.6106940905254
 20
588.7493829057512
 30
0.0
 11
1097.6106940905254
 21
246.78592610541318
 31
0.0
  0
LINE
  5
122
330
17
100
AcDbEntity
  8
TRACE_STRAIGHT
 62
5
100
AcDbLine
 10
1357.6106940905254
 20
588.7493829057512
 30
0.0
 11
1357.6106940905254
 21
246.78592610541318
 31
0.0
  0
LINE
  5
123
330
17
100
AcDbEntity
  8
TRACE_STRAIGHT
 62
5
100
AcDbLine
 10
1617.6106940905254
 20
588.7493829057512
 30
0.0
 11
1617.6106940905252
 21
246.78592610541273
 31
0.0
  0
LINE
  5
124
330
17
100
AcDbEntity
  8
TRACE_STRAIGHT
 62
5
100
AcDbLine
 10
1877.1620234047746
 20
588.7493829057512
 30
0.0
 11
1877.1620234047746
 21
246.78592610541273
 31
0.0
  0
LINE
  5
125
330
17
100
AcDbEntity
  8
TRACE_STRAIGHT
 62
5
100
AcDbLine
 10
2137.162020758018
 20
588.7493829057512
 30
0.0
 11
2137.162020758018
 21
246.78592610541273
 31
0.0
  0
LINE
  5
126
330
17
100
AcDbEntity
  8
TRACE_STRAIGHT
 62
5
100
AcDbLine
 10
909.1874084472656
 20
556.0711669921875
 30
0.0
 11
946.4375305175781
 21
556.0711669921875
 31
0.0
  0
LINE
  5
127
330
17
100
AcDbEntity
  8
TRACE_STRAIGHT
 62
5
100
AcDbLine
 10
2019.37451171875
 20
555.1866455078125
 30
0.0
 11
2056.8759765625
 21
555.1866455078125
 31
0.0
  0
LINE
  5
128
330
17
100
AcDbEntity
  8
TRACE_STRAIGHT
 62
5
100
AcDbLine
 10
1646.8741455078125
 20
554.0633544921875
 30
0.0
 11
1684.37548828125
 21
554.0633544921875
 31
0.0
  0
LINE
  5
129
330
17
100
AcDbEntity
  8
TRACE_STRAIGHT
 62
5
100
AcDbLine
 10
1688.1248168945312
 20
535.6307373046875
 30
0.0
 11
1726.2504272460938
 21
535.6307373046875
 31
0.0
  0
LINE
  5
12A
330
17
100
AcDbEntity
  8
TRACE_STRAIGHT
 62
5
100
AcDbLine
 10
398.2983097162294
 20
476.2618348163978
 30
0.0
 11
2397.3175333945646
 21
476.2618348163978
 31
0.0
  0
LINE
  5
12B
330
17
100
AcDbEntity
  8
TRACE_STRAIGHT
 62
5
100
AcDbLine
 10
398.2983097162294
 20
362.5260175554322
 30
0.0
 11
2397.3175333945646
 21
362.5260175554322
 31
0.0
  0
LINE
  5
12C
330
17
100
AcDbEntity
  8
TRACE_STRAIGHT
 62
5
100
AcDbLine
 10
398.2983097162294
 20
246.78592610541318
 30
0.0
 11
2397.3175333945646
 21
246.78592610541273
 31
0.0
  0
LINE
  5
12D
330
17
100
AcDbEntity
  8
TRACE_STRAIGHT
 62
5
100
AcDbLine
 10
2352.3324381510415
 20
221.391845703125
 30
0.0
 11
2391.5836588541665
 21
221.391845703125
 31
0.0
  0
LINE
  5
12E
330
17
100
AcDbEntity
  8
TRACE_STRAIGHT
 62
5
100
AcDbLine
 10
2156.1653645833335
 20
220.06254069010402
 30
0.0
 11
2196.083740234375
 21
220.06254069010402
 31
0.0
  0
LINE
  5
12F
330
17
100
AcDbEntity
  8
TRACE_STRAIGHT
 62
5
100
AcDbLine
 10
2233.125
 20
217.59716796875
 30
0.0
 11
2270.625
 21
217.59716796875
 31
0.0
  0
LINE
  5
130
330
17
100
AcDbEntity
  8
TRACE_STRAIGHT
 62
5
100
AcDbLine
 10
2033.4993082682292
 20
213.573974609375
 30
0.0
 11
2074.2510579427085
 21
213.573974609375
 31
0.0
  0
LINE
  5
131
330
17
100
AcDbEntity
  8
TRACE_STRAIGHT
 62
5
100
AcDbLine
 10
2031.6872253417969
 20
198.17752075195312
 30
0.0
 11
2075.5631713867188
 21
198.17752075195312
 31
0.0
  0
LINE
  5
132
330
17
100
AcDbEntity
  8
TRACE_STRAIGHT
 62
5
100
AcDbLine
 10
2231.875
 20
195.627197265625
 30
0.0
 11
2270.6251220703125
 21
195.627197265625
 31
0.0
  0
LINE
  5
133
330
17
100
AcDbEntity
  8
TRACE_STRAIGHT
 62
5
100
AcDbLine
 10
114.70738220214844
 20
133.92797851562455
 30
0.0
 11
2509.0213623046875
 21
133.927978515625
 31
0.0
  0
LWPOLYLINE
  5
134
330
17
100
AcDbEntity
  8
TRACE_TEXT_SYMBOL
 62
6
100
AcDbPolyline
 90
5
 70
1
 10
1969.0
 20
2022.0
 10
1964.0
 20
2017.0
 10
1964.0
 20
2016.0
 10
1965.0
 20
2016.0
 10
1969.0
 20
2020.0
  0
LWPOLYLINE
  5
135
330
17
100
AcDbEntity
  8
TRACE_TEXT_SYMBOL
 62
6
100
AcDbPolyline
 90
5
 70
1
 10
1969.0
 20
2113.0
 10
1964.0
 20
2108.0
 10
1964.0
 20
2107.0
 10
1965.0
 20
2107.0
 10
1969.0
 20
2111.0
  0
LWPOLYLINE
  5
136
330
17
100
AcDbEntity
  8
TRACE_TEXT_SYMBOL
 62
6
100
AcDbPolyline
 90
7
 70
1
 10
1970.0
 20
2206.0
 10
1964.0
 20
2200.0
 10
1964.0
 20
2198.0
 10
1967.0
 20
2201.0
 10
1968.0
 20
2201.0
 10
1969.0
 20
2202.0
 10
1969.0
 20
2205.0
  0
LWPOLYLINE
  5
137
330
17
100
AcDbEntity
  8
TRACE_TEXT_SYMBOL
 62
6
100
AcDbPolyline
 90
5
 70
1
 10
1969.0
 20
2296.0
 10
1964.0
 20
2291.0
 10
1964.0
 20
2290.0
 10
1965.0
 20
2290.0
 10
1969.0
 20
2294.0
  0
LWPOLYLINE
  5
138
330
17
100
AcDbEntity
  8
TRACE_TEXT_SYMBOL
 62
6
100
AcDbPolyline
 90
7
 70
1
 10
1969.0
 20
2387.0
 10
1966.0
 20
2384.0
 10
1965.0
 20
2384.0
 10
1964.0
 20
2383.0
 10
1964.0
 20
2381.0
 10
1965.0
 20
2381.0
 10
1969.0
 20
2385.0
  0
LWPOLYLINE
  5
139
330
17
100
AcDbEntity
  8
TRACE_TEXT_SYMBOL
 62
6
100
AcDbPolyline
 90
5
 70
1
 10
1970.0
 20
2480.0
 10
1964.0
 20
2474.0
 10
1964.0
 20
2472.0
 10
1969.0
 20
2477.0
 10
1969.0
 20
2479.0
  0
LWPOLYLINE
  5
13A
330
17
100
AcDbEntity
  8
TRACE_TEXT_SYMBOL
 62
6
100
AcDbPolyline
 90
6
 70
1
 10
486.0
 20
2480.0
 10
479.0
 20
2473.0
 10
479.0
 20
2472.0
 10
480.0
 20
2472.0
 10
485.0
 20
2477.0
 10
485.0
 20
2479.0
  0
LWPOLYLINE
  5
13B
330
17
100
AcDbEntity
  8
TRACE_TEXT_SYMBOL
 62
6
100
AcDbPolyline
 90
4
 70
1
 10
710.0
 20
3055.0
 10
711.0
 20
3055.0
 10
711.0
 20
3054.0
 10
710.0
 20
3054.0
  0
LWPOLYLINE
  5
13C
330
17
100
AcDbEntity
  8
TRACE_TEXT_SYMBOL
 62
6
100
AcDbPolyline
 90
10
 70
1
 10
968.0
 20
3065.0
 10
963.0
 20
3060.0
 10
962.0
 20
3060.0
 10
956.0
 20
3054.0
 10
955.0
 20
3054.0
 10
958.0
 20
3054.0
 10
961.0
 20
3057.0
 10
962.0
 20
3057.0
 10
969.0
 20
3064.0
 10
969.0
 20
3065.0
  0
LINE
  5
13D
330
17
100
AcDbEntity
  8
TRACE_STRAIGHT
 62
5
100
AcDbLine
 10
942.6194788398365
 20
3064.5278679946427
 30
0.0
 11
912.4851005524266
 21
3051.8472050970586
 31
0.0
  0
LWPOLYLINE
  5
13E
330
17
100
AcDbEntity
  8
TRACE_TEXT_SYMBOL
 62
6
100
AcDbPolyline
 90
16
 70
1
 10
847.0
 20
3067.0
 10
844.0
 20
3064.0
 10
843.0
 20
3064.0
 10
839.0
 20
3060.0
 10
838.0
 20
3060.0
 10
834.0
 20
3056.0
 10
833.0
 20
3056.0
 10
831.0
 20
3054.0
 10
834.0
 20
3054.0
 10
838.0
 20
3058.0
 10
839.0
 20
3058.0
 10
843.0
 20
3062.0
 10
844.0
 20
3062.0
 10
846.0
 20
3064.0
 10
846.0
 20
3065.0
 10
847.0
 20
3066.0
  0
LWPOLYLINE
  5
13F
330
17
100
AcDbEntity
  8
TRACE_TEXT_SYMBOL
 62
6
100
AcDbPolyline
 90
4
 70
1
 10
703.0
 20
3070.0
 10
704.0
 20
3070.0
 10
704.0
 20
3069.0
 10
703.0
 20
3069.0
  0
LINE
  5
140
330
17
100
AcDbEntity
  8
TRACE_STRAIGHT
 62
5
100
AcDbLine
 10
725.3341723384859
 20
3091.7031736198132
 30
0.0
 11
706.0315662178432
 21
3069.971961514765
 31
0.0
  0
LWPOLYLINE
  5
141
330
17
100
AcDbEntity
  8
TRACE_TEXT_SYMBOL
 62
6
100
AcDbPolyline
 90
20
 70
1
 10
748.0
 20
3095.0
 10
747.0
 20
3094.0
 10
746.0
 20
3094.0
 10
745.0
 20
3093.0
 10
745.0
 20
3092.0
 10
744.0
 20
3091.0
 10
744.0
 20
3090.0
 10
742.0
 20
3088.0
 10
742.0
 20
3087.0
 10
739.0
 20
3084.0
 10
741.0
 20
3086.0
 10
742.0
 20
3086.0
 10
743.0
 20
3087.0
 10
744.0
 20
3087.0
 10
744.0
 20
3088.0
 10
745.0
 20
3089.0
 10
745.0
 20
3090.0
 10
746.0
 20
3091.0
 10
746.0
 20
3092.0
 10
748.0
 20
3094.0
  0
LINE
  5
142
330
17
100
AcDbEntity
  8
TRACE_STRAIGHT
 62
5
100
AcDbLine
 10
858.6097331740854
 20
3103.431019967239
 30
0.0
 11
817.1550139662091
 21
3060.899543888555
 31
0.0
  0
LINE
  5
143
330
17
100
AcDbEntity
  8
TRACE_STRAIGHT
 62
5
100
AcDbLine
 10
1108.6916667671937
 20
3103.5557247520933
 30
0.0
 11
1034.3379951431768
 21
3045.449071675852
 31
0.0
  0
LWPOLYLINE
  5
144
330
17
100
AcDbEntity
  8
TRACE_TEXT_SYMBOL
 62
6
100
AcDbPolyline
 90
48
 70
1
 10
659.0
 20
3136.0
 10
661.0
 20
3134.0
 10
661.0
 20
3133.0
 10
662.0
 20
3132.0
 10
662.0
 20
3130.0
 10
663.0
 20
3129.0
 10
663.0
 20
3128.0
 10
664.0
 20
3127.0
 10
664.0
 20
3125.0
 10
665.0
 20
3124.0
 10
665.0
 20
3118.0
 10
663.0
 20
3116.0
 10
663.0
 20
3115.0
 10
662.0
 20
3114.0
 10
662.0
 20
3113.0
 10
661.0
 20
3112.0
 10
661.0
 20
3111.0
 10
657.0
 20
3107.0
 10
656.0
 20
3107.0
 10
653.0
 20
3104.0
 10
652.0
 20
3104.0
 10
650.0
 20
3102.0
 10
648.0
 20
3102.0
 10
649.0
 20
3102.0
 10
650.0
 20
3101.0
 10
651.0
 20
3101.0
 10
653.0
 20
3103.0
 10
654.0
 20
3103.0
 10
656.0
 20
3105.0
 10
657.0
 20
3105.0
 10
662.0
 20
3110.0
 10
662.0
 20
3111.0
 10
663.0
 20
3112.0
 10
663.0
 20
3113.0
 10
664.0
 20
3114.0
 10
664.0
 20
3115.0
 10
666.0
 20
3117.0
 10
666.0
 20
3125.0
 10
665.0
 20
3126.0
 10
665.0
 20
3128.0
 10
664.0
 20
3129.0
 10
664.0
 20
3130.0
 10
663.0
 20
3131.0
 10
663.0
 20
3133.0
 10
662.0
 20
3134.0
 10
662.0
 20
3135.0
 10
661.0
 20
3135.0
 10
660.0
 20
3136.0
  0
LINE
  5
145
330
17
100
AcDbEntity
  8
TRACE_STRAIGHT
 62
5
100
AcDbLine
 10
1054.951585844529
 20
3137.190842331446
 30
0.0
 11
1020.7903949401638
 21
3100.3402694045885
 31
0.0
  0
LWPOLYLINE
  5
146
330
17
100
AcDbEntity
  8
TRACE_TEXT_SYMBOL
 62
6
100
AcDbPolyline
 90
54
 70
1
 10
726.0
 20
3148.0
 10
728.0
 20
3146.0
 10
728.0
 20
3145.0
 10
729.0
 20
3144.0
 10
729.0
 20
3143.0
 10
730.0
 20
3142.0
 10
730.0
 20
3140.0
 10
731.0
 20
3139.0
 10
731.0
 20
3138.0
 10
732.0
 20
3137.0
 10
732.0
 20
3136.0
 10
733.0
 20
3135.0
 10
733.0
 20
3130.0
 10
734.0
 20
3129.0
 10
734.0
 20
3117.0
 10
733.0
 20
3116.0
 10
733.0
 20
3109.0
 10
732.0
 20
3108.0
 10
732.0
 20
3107.0
 10
731.0
 20
3106.0
 10
731.0
 20
3105.0
 10
730.0
 20
3104.0
 10
730.0
 20
3103.0
 10
729.0
 20
3102.0
 10
729.0
 20
3101.0
 10
728.0
 20
3100.0
 10
728.0
 20
3099.0
 10
729.0
 20
3100.0
 10
730.0
 20
3100.0
 10
730.0
 20
3101.0
 10
731.0
 20
3102.0
 10
731.0
 20
3103.0
 10
732.0
 20
3104.0
 10
732.0
 20
3105.0
 10
733.0
 20
3106.0
 10
733.0
 20
3108.0
 10
734.0
 20
3109.0
 10
734.0
 20
3116.0
 10
735.0
 20
3117.0
 10
735.0
 20
3129.0
 10
734.0
 20
3130.0
 10
734.0
 20
3136.0
 10
733.0
 20
3137.0
 10
733.0
 20
3138.0
 10
732.0
 20
3139.0
 10
732.0
 20
3140.0
 10
731.0
 20
3141.0
 10
731.0
 20
3143.0
 10
730.0
 20
3144.0
 10
730.0
 20
3145.0
 10
729.0
 20
3146.0
 10
729.0
 20
3147.0
 10
728.0
 20
3148.0
 10
727.0
 20
3147.0
  0
LWPOLYLINE
  5
147
330
17
100
AcDbEntity
  8
TRACE_TEXT_SYMBOL
 62
6
100
AcDbPolyline
 90
4
 70
1
 10
1027.0
 20
3178.0
 10
1028.0
 20
3177.0
 10
1047.0
 20
3177.0
 10
1046.0
 20
3178.0
  0
LINE
  5
148
330
17
100
AcDbEntity
  8
TRACE_STRAIGHT
 62
5
100
AcDbLine
 10
983.0466032447098
 20
3207.7482615237864
 30
0.0
 11
996.1379694099604
 21
3136.9500671519727
 31
0.0
  0
LWPOLYLINE
  5
149
330
17
100
AcDbEntity
  8
TRACE_TEXT_SYMBOL
 62
6
100
AcDbPolyline
 90
64
 70
0
 10
768.0
 20
3210.0
 10
768.0
 20
3209.0
 10
769.0
 20
3209.0
 10
770.0
 20
3208.0
 10
771.0
 20
3208.0
 10
772.0
 20
3207.0
 10
774.0
 20
3207.0
 10
775.0
 20
3206.0
 10
776.0
 20
3206.0
 10
777.0
 20
3205.0
 10
778.0
 20
3205.0
 10
779.0
 20
3204.0
 10
780.0
 20
3204.0
 10
782.0
 20
3202.0
 10
783.0
 20
3202.0
 10
785.0
 20
3200.0
 10
786.0
 20
3200.0
 10
797.0
 20
3189.0
 10
797.0
 20
3188.0
 10
799.0
 20
3186.0
 10
799.0
 20
3185.0
 10
800.0
 20
3184.0
 10
800.0
 20
3183.0
 10
801.0
 20
3182.0
 10
801.0
 20
3181.0
 10
803.0
 20
3179.0
 10
803.0
 20
3178.0
 10
804.0
 20
3177.0
 10
804.0
 20
3175.0
 10
805.0
 20
3174.0
 10
805.0
 20
3171.0
 10
806.0
 20
3170.0
 10
806.0
 20
3168.0
 10
807.0
 20
3167.0
 10
807.0
 20
3163.0
 10
808.0
 20
3162.0
 10
808.0
 20
3149.0
 10
807.0
 20
3148.0
 10
807.0
 20
3144.0
 10
806.0
 20
3143.0
 10
806.0
 20
3140.0
 10
805.0
 20
3139.0
 10
805.0
 20
3136.0
 10
804.0
 20
3135.0
 10
804.0
 20
3134.0
 10
803.0
 20
3133.0
 10
803.0
 20
3132.0
 10
802.0
 20
3131.0
 10
802.0
 20
3130.0
 10
801.0
 20
3129.0
 10
801.0
 20
3128.0
 10
800.0
 20
3127.0
 10
800.0
 20
3126.0
 10
799.0
 20
3125.0
 10
799.0
 20
3124.0
 10
794.0
 20
3119.0
 10
794.0
 20
3118.0
 10
788.0
 20
3112.0
 10
787.0
 20
3112.0
 10
785.0
 20
3110.0
 10
784.0
 20
3110.0
 10
781.0
 20
3107.0
 10
780.0
 20
3107.0
 10
781.0
 20
3107.0
  0
LWPOLYLINE
  5
14A
330
17
100
AcDbEntity
  8
TRACE_TEXT_SYMBOL
 62
6
100
AcDbPolyline
 90
64
 70
0
 10
781.0
 20
3107.0
 10
782.0
 20
3106.0
 10
784.0
 20
3108.0
 10
785.0
 20
3108.0
 10
787.0
 20
3110.0
 10
788.0
 20
3110.0
 10
797.0
 20
3119.0
 10
797.0
 20
3120.0
 10
800.0
 20
3123.0
 10
800.0
 20
3124.0
 10
801.0
 20
3125.0
 10
801.0
 20
3126.0
 10
802.0
 20
3127.0
 10
802.0
 20
3128.0
 10
803.0
 20
3129.0
 10
803.0
 20
3130.0
 10
804.0
 20
3131.0
 10
804.0
 20
3132.0
 10
805.0
 20
3133.0
 10
805.0
 20
3135.0
 10
806.0
 20
3136.0
 10
806.0
 20
3138.0
 10
807.0
 20
3139.0
 10
807.0
 20
3142.0
 10
808.0
 20
3143.0
 10
808.0
 20
3147.0
 10
809.0
 20
3148.0
 10
809.0
 20
3162.0
 10
808.0
 20
3163.0
 10
808.0
 20
3167.0
 10
807.0
 20
3168.0
 10
807.0
 20
3171.0
 10
806.0
 20
3172.0
 10
806.0
 20
3175.0
 10
805.0
 20
3176.0
 10
805.0
 20
3178.0
 10
804.0
 20
3179.0
 10
804.0
 20
3180.0
 10
802.0
 20
3182.0
 10
802.0
 20
3183.0
 10
801.0
 20
3184.0
 10
801.0
 20
3185.0
 10
800.0
 20
3186.0
 10
800.0
 20
3187.0
 10
799.0
 20
3188.0
 10
799.0
 20
3189.0
 10
791.0
 20
3197.0
 10
791.0
 20
3198.0
 10
790.0
 20
3199.0
 10
789.0
 20
3199.0
 10
787.0
 20
3201.0
 10
786.0
 20
3201.0
 10
784.0
 20
3203.0
 10
783.0
 20
3203.0
 10
781.0
 20
3205.0
 10
780.0
 20
3205.0
 10
779.0
 20
3206.0
 10
778.0
 20
3206.0
 10
777.0
 20
3207.0
 10
776.0
 20
3207.0
 10
775.0
 20
3208.0
 10
773.0
 20
3208.0
 10
772.0
 20
3209.0
 10
771.0
 20
3209.0
  0
LWPOLYLINE
  5
14B
330
17
100
AcDbEntity
  8
TRACE_TEXT_SYMBOL
 62
6
100
AcDbPolyline
 90
3
 70
0
 10
771.0
 20
3209.0
 10
770.0
 20
3210.0
 10
768.0
 20
3210.0
  0
LWPOLYLINE
  5
14C
330
17
100
AcDbEntity
  8
TRACE_TEXT_SYMBOL
 62
6
100
AcDbPolyline
 90
10
 70
1
 10
967.0
 20
3224.0
 10
967.0
 20
3223.0
 10
972.0
 20
3218.0
 10
972.0
 20
3217.0
 10
975.0
 20
3214.0
 10
976.0
 20
3215.0
 10
974.0
 20
3217.0
 10
974.0
 20
3218.0
 10
969.0
 20
3223.0
 10
969.0
 20
3224.0
  0
LWPOLYLINE
  5
14D
330
17
100
AcDbEntity
  8
TRACE_TEXT_SYMBOL
 62
6
100
AcDbPolyline
 90
64
 70
0
 10
858.0
 20
3235.0
 10
858.0
 20
3234.0
 10
857.0
 20
3233.0
 10
859.0
 20
3231.0
 10
859.0
 20
3230.0
 10
861.0
 20
3228.0
 10
861.0
 20
3227.0
 10
864.0
 20
3224.0
 10
864.0
 20
3223.0
 10
866.0
 20
3221.0
 10
866.0
 20
3220.0
 10
869.0
 20
3217.0
 10
869.0
 20
3216.0
 10
871.0
 20
3214.0
 10
871.0
 20
3213.0
 10
872.0
 20
3212.0
 10
876.0
 20
3212.0
 10
877.0
 20
3211.0
 10
881.0
 20
3211.0
 10
882.0
 20
3210.0
 10
885.0
 20
3210.0
 10
886.0
 20
3209.0
 10
890.0
 20
3209.0
 10
891.0
 20
3208.0
 10
894.0
 20
3208.0
 10
895.0
 20
3207.0
 10
897.0
 20
3207.0
 10
899.0
 20
3205.0
 10
900.0
 20
3205.0
 10
902.0
 20
3203.0
 10
903.0
 20
3203.0
 10
905.0
 20
3201.0
 10
906.0
 20
3201.0
 10
908.0
 20
3199.0
 10
909.0
 20
3199.0
 10
911.0
 20
3197.0
 10
912.0
 20
3197.0
 10
913.0
 20
3196.0
 10
914.0
 20
3196.0
 10
915.0
 20
3195.0
 10
915.0
 20
3194.0
 10
917.0
 20
3192.0
 10
917.0
 20
3191.0
 10
919.0
 20
3189.0
 10
919.0
 20
3188.0
 10
921.0
 20
3186.0
 10
921.0
 20
3185.0
 10
923.0
 20
3183.0
 10
923.0
 20
3182.0
 10
925.0
 20
3180.0
 10
925.0
 20
3179.0
 10
927.0
 20
3177.0
 10
927.0
 20
3174.0
 10
928.0
 20
3173.0
 10
928.0
 20
3169.0
 10
929.0
 20
3168.0
 10
929.0
 20
3164.0
 10
930.0
 20
3163.0
 10
930.0
 20
3159.0
 10
931.0
 20
3158.0
 10
931.0
 20
3153.0
 10
930.0
 20
3152.0
 10
930.0
 20
3148.0
 10
929.0
 20
3147.0
  0
LWPOLYLINE
  5
14E
330
17
100
AcDbEntity
  8
TRACE_TEXT_SYMBOL
 62
6
100
AcDbPolyline
 90
64
 70
0
 10
929.0
 20
3147.0
 10
929.0
 20
3143.0
 10
928.0
 20
3142.0
 10
928.0
 20
3137.0
 10
927.0
 20
3136.0
 10
927.0
 20
3134.0
 10
926.0
 20
3133.0
 10
926.0
 20
3132.0
 10
924.0
 20
3130.0
 10
924.0
 20
3129.0
 10
922.0
 20
3127.0
 10
922.0
 20
3126.0
 10
920.0
 20
3124.0
 10
920.0
 20
3123.0
 10
918.0
 20
3121.0
 10
918.0
 20
3120.0
 10
916.0
 20
3118.0
 10
916.0
 20
3117.0
 10
913.0
 20
3114.0
 10
912.0
 20
3114.0
 10
910.0
 20
3112.0
 10
909.0
 20
3112.0
 10
907.0
 20
3110.0
 10
906.0
 20
3110.0
 10
904.0
 20
3108.0
 10
903.0
 20
3108.0
 10
901.0
 20
3106.0
 10
900.0
 20
3106.0
 10
898.0
 20
3104.0
 10
897.0
 20
3104.0
 10
896.0
 20
3103.0
 10
893.0
 20
3103.0
 10
892.0
 20
3102.0
 10
888.0
 20
3102.0
 10
887.0
 20
3101.0
 10
883.0
 20
3101.0
 10
882.0
 20
3100.0
 10
878.0
 20
3100.0
 10
877.0
 20
3099.0
 10
877.0
 20
3098.0
 10
878.0
 20
3098.0
 10
879.0
 20
3099.0
 10
883.0
 20
3099.0
 10
884.0
 20
3100.0
 10
888.0
 20
3100.0
 10
889.0
 20
3101.0
 10
893.0
 20
3101.0
 10
894.0
 20
3102.0
 10
897.0
 20
3102.0
 10
898.0
 20
3103.0
 10
899.0
 20
3103.0
 10
901.0
 20
3105.0
 10
902.0
 20
3105.0
 10
904.0
 20
3107.0
 10
905.0
 20
3107.0
 10
907.0
 20
3109.0
 10
908.0
 20
3109.0
 10
910.0
 20
3111.0
 10
911.0
 20
3111.0
 10
912.0
 20
3112.0
 10
913.0
 20
3112.0
 10
915.0
 20
3114.0
 10
916.0
 20
3114.0
 10
916.0
 20
3115.0
  0
LWPOLYLINE
  5
14F
330
17
100
AcDbEntity
  8
TRACE_TEXT_SYMBOL
 62
6
100
AcDbPolyline
 90
64
 70
0
 10
916.0
 20
3115.0
 10
918.0
 20
3117.0
 10
918.0
 20
3118.0
 10
920.0
 20
3120.0
 10
920.0
 20
3121.0
 10
921.0
 20
3122.0
 10
921.0
 20
3123.0
 10
923.0
 20
3125.0
 10
923.0
 20
3126.0
 10
925.0
 20
3128.0
 10
925.0
 20
3129.0
 10
927.0
 20
3131.0
 10
927.0
 20
3132.0
 10
928.0
 20
3133.0
 10
928.0
 20
3136.0
 10
929.0
 20
3137.0
 10
929.0
 20
3141.0
 10
930.0
 20
3142.0
 10
930.0
 20
3146.0
 10
931.0
 20
3147.0
 10
931.0
 20
3151.0
 10
932.0
 20
3152.0
 10
932.0
 20
3159.0
 10
931.0
 20
3160.0
 10
931.0
 20
3164.0
 10
930.0
 20
3165.0
 10
930.0
 20
3169.0
 10
929.0
 20
3170.0
 10
929.0
 20
3174.0
 10
928.0
 20
3175.0
 10
928.0
 20
3178.0
 10
926.0
 20
3180.0
 10
926.0
 20
3181.0
 10
924.0
 20
3183.0
 10
924.0
 20
3184.0
 10
922.0
 20
3186.0
 10
922.0
 20
3187.0
 10
920.0
 20
3189.0
 10
920.0
 20
3190.0
 10
918.0
 20
3192.0
 10
918.0
 20
3193.0
 10
916.0
 20
3195.0
 10
916.0
 20
3196.0
 10
915.0
 20
3197.0
 10
914.0
 20
3197.0
 10
912.0
 20
3199.0
 10
911.0
 20
3199.0
 10
909.0
 20
3201.0
 10
908.0
 20
3201.0
 10
907.0
 20
3202.0
 10
906.0
 20
3202.0
 10
904.0
 20
3204.0
 10
903.0
 20
3204.0
 10
901.0
 20
3206.0
 10
900.0
 20
3206.0
 10
898.0
 20
3208.0
 10
896.0
 20
3208.0
 10
895.0
 20
3209.0
 10
891.0
 20
3209.0
 10
890.0
 20
3210.0
 10
887.0
 20
3210.0
 10
886.0
 20
3211.0
 10
882.0
 20
3211.0
 10
881.0
 20
3212.0
  0
LWPOLYLINE
  5
150
330
17
100
AcDbEntity
  8
TRACE_TEXT_SYMBOL
 62
6
100
AcDbPolyline
 90
16
 70
0
 10
881.0
 20
3212.0
 10
878.0
 20
3212.0
 10
877.0
 20
3213.0
 10
874.0
 20
3213.0
 10
870.0
 20
3217.0
 10
870.0
 20
3218.0
 10
868.0
 20
3220.0
 10
868.0
 20
3221.0
 10
865.0
 20
3224.0
 10
865.0
 20
3225.0
 10
863.0
 20
3227.0
 10
863.0
 20
3228.0
 10
860.0
 20
3231.0
 10
860.0
 20
3232.0
 10
858.0
 20
3234.0
 10
858.0
 20
3235.0
  0
LINE
  5
151
330
17
100
AcDbEntity
  8
TRACE_STRAIGHT
 62
5
100
AcDbLine
 10
840.1694410426529
 20
3240.1826766067506
 30
0.0
 11
874.8153852725112
 21
3162.1376581477043
 31
0.0
  0
LWPOLYLINE
  5
152
330
17
100
AcDbEntity
  8
TRACE_TEXT_SYMBOL
 62
6
100
AcDbPolyline
 90
4
 70
1
 10
816.0
 20
3249.0
 10
817.0
 20
3249.0
 10
817.0
 20
3248.0
 10
816.0
 20
3248.0
  0
LWPOLYLINE
  5
153
330
17
100
AcDbEntity
  8
TRACE_TEXT_SYMBOL
 62
6
100
AcDbPolyline
 90
32
 70
1
 10
648.0
 20
3258.0
 10
647.0
 20
3257.0
 10
647.0
 20
3256.0
 10
644.0
 20
3253.0
 10
644.0
 20
3249.0
 10
643.0
 20
3248.0
 10
643.0
 20
3240.0
 10
644.0
 20
3239.0
 10
644.0
 20
3235.0
 10
645.0
 20
3234.0
 10
645.0
 20
3233.0
 10
647.0
 20
3231.0
 10
647.0
 20
3230.0
 10
648.0
 20
3229.0
 10
648.0
 20
3228.0
 10
649.0
 20
3229.0
 10
650.0
 20
3228.0
 10
649.0
 20
3229.0
 10
649.0
 20
3230.0
 10
648.0
 20
3231.0
 10
648.0
 20
3232.0
 10
646.0
 20
3234.0
 10
646.0
 20
3235.0
 10
645.0
 20
3236.0
 10
645.0
 20
3239.0
 10
644.0
 20
3240.0
 10
644.0
 20
3247.0
 10
645.0
 20
3248.0
 10
645.0
 20
3252.0
 10
649.0
 20
3256.0
 10
649.0
 20
3257.0
 10
650.0
 20
3258.0
  0
LWPOLYLINE
  5
154
330
17
100
AcDbEntity
  8
TRACE_TEXT_SYMBOL
 62
6
100
AcDbPolyline
 90
64
 70
0
 10
582.0
 20
3260.0
 10
582.0
 20
3259.0
 10
579.0
 20
3256.0
 10
579.0
 20
3254.0
 10
578.0
 20
3253.0
 10
578.0
 20
3252.0
 10
577.0
 20
3251.0
 10
577.0
 20
3250.0
 10
576.0
 20
3249.0
 10
576.0
 20
3248.0
 10
575.0
 20
3247.0
 10
575.0
 20
3246.0
 10
574.0
 20
3245.0
 10
574.0
 20
3232.0
 10
575.0
 20
3231.0
 10
575.0
 20
3229.0
 10
576.0
 20
3228.0
 10
576.0
 20
3226.0
 10
577.0
 20
3225.0
 10
577.0
 20
3223.0
 10
578.0
 20
3222.0
 10
578.0
 20
3221.0
 10
580.0
 20
3219.0
 10
580.0
 20
3218.0
 10
582.0
 20
3216.0
 10
582.0
 20
3215.0
 10
584.0
 20
3213.0
 10
584.0
 20
3212.0
 10
586.0
 20
3210.0
 10
586.0
 20
3209.0
 10
588.0
 20
3207.0
 10
588.0
 20
3206.0
 10
589.0
 20
3205.0
 10
589.0
 20
3204.0
 10
597.0
 20
3196.0
 10
598.0
 20
3197.0
 10
591.0
 20
3204.0
 10
591.0
 20
3205.0
 10
589.0
 20
3207.0
 10
589.0
 20
3208.0
 10
587.0
 20
3210.0
 10
587.0
 20
3211.0
 10
585.0
 20
3213.0
 10
585.0
 20
3214.0
 10
583.0
 20
3216.0
 10
583.0
 20
3217.0
 10
581.0
 20
3219.0
 10
581.0
 20
3220.0
 10
579.0
 20
3222.0
 10
579.0
 20
3223.0
 10
578.0
 20
3224.0
 10
578.0
 20
3225.0
 10
577.0
 20
3226.0
 10
577.0
 20
3229.0
 10
576.0
 20
3230.0
 10
576.0
 20
3232.0
 10
575.0
 20
3233.0
 10
575.0
 20
3244.0
 10
576.0
 20
3245.0
 10
576.0
 20
3246.0
 10
577.0
 20
3247.0
 10
577.0
 20
3248.0
 10
578.0
 20
3249.0
 10
578.0
 20
3250.0
  0
LWPOLYLINE
  5
155
330
17
100
AcDbEntity
  8
TRACE_TEXT_SYMBOL
 62
6
100
AcDbPolyline
 90
8
 70
0
 10
578.0
 20
3250.0
 10
579.0
 20
3251.0
 10
579.0
 20
3253.0
 10
581.0
 20
3255.0
 10
581.0
 20
3256.0
 10
583.0
 20
3258.0
 10
583.0
 20
3259.0
 10
582.0
 20
3260.0
  0
LINE
  5
156
330
17
100
AcDbEntity
  8
TRACE_STRAIGHT
 62
5
100
AcDbLine
 10
962.7443896915782
 20
3234.6726174695946
 30
0.0
 11
900.5305633047927
 21
3264.2224299184068
 31
0.0
  0
LWPOLYLINE
  5
157
330
17
100
AcDbEntity
  8
TRACE_TEXT_SYMBOL
 62
6
100
AcDbPolyline
 90
53
 70
1
 10
999.0
 20
3262.0
 10
998.0
 20
3261.0
 10
999.0
 20
3260.0
 10
999.0
 20
3259.0
 10
1003.0
 20
3255.0
 10
1003.0
 20
3254.0
 10
1007.0
 20
3250.0
 10
1007.0
 20
3249.0
 10
1011.0
 20
3245.0
 10
1011.0
 20
3244.0
 10
1016.0
 20
3239.0
 10
1016.0
 20
3238.0
 10
1020.0
 20
3234.0
 10
1020.0
 20
3233.0
 10
1025.0
 20
3228.0
 10
1025.0
 20
3227.0
 10
1029.0
 20
3223.0
 10
1029.0
 20
3222.0
 10
1031.0
 20
3220.0
 10
1034.0
 20
3220.0
 10
1035.0
 20
3219.0
 10
1036.0
 20
3219.0
 10
1037.0
 20
3218.0
 10
1037.0
 20
3217.0
 10
1038.0
 20
3216.0
 10
1037.0
 20
3215.0
 10
1037.0
 20
3212.0
 10
1063.0
 20
3212.0
 10
1065.0
 20
3210.0
 10
1065.0
 20
3178.0
 10
1066.0
 20
3177.0
 10
1066.0
 20
3176.0
 10
1068.0
 20
3174.0
 10
1068.0
 20
3173.0
 10
1073.0
 20
3168.0
 10
1073.0
 20
3167.0
 10
1077.0
 20
3163.0
 10
1077.0
 20
3162.0
 10
1081.0
 20
3158.0
 10
1081.0
 20
3157.0
 10
1085.0
 20
3153.0
 10
1085.0
 20
3152.0
 10
1090.0
 20
3147.0
 10
1090.0
 20
3146.0
 10
1094.0
 20
3142.0
 10
1094.0
 20
3141.0
 10
1098.0
 20
3137.0
 10
1098.0
 20
3136.0
 10
1102.0
 20
3132.0
 10
1102.0
 20
3131.0
 10
1106.0
 20
3127.0
 10
1106.0
 20
3261.0
 10
1105.0
 20
3262.0
  0
LWPOLYLINE
  5
158
330
17
100
AcDbEntity
  8
TRACE_TEXT_SYMBOL
 62
6
100
AcDbPolyline
 90
20
 70
1
 10
950.0
 20
3262.0
 10
950.0
 20
3260.0
 10
952.0
 20
3258.0
 10
953.0
 20
3258.0
 10
955.0
 20
3256.0
 10
956.0
 20
3256.0
 10
958.0
 20
3254.0
 10
959.0
 20
3254.0
 10
961.0
 20
3252.0
 10
962.0
 20
3253.0
 10
963.0
 20
3253.0
 10
962.0
 20
3253.0
 10
960.0
 20
3255.0
 10
959.0
 20
3255.0
 10
956.0
 20
3258.0
 10
955.0
 20
3258.0
 10
953.0
 20
3260.0
 10
954.0
 20
3261.0
 10
978.0
 20
3261.0
 10
979.0
 20
3262.0
  0
TEXT
  5
15B
330
17
100
AcDbEntity
  8
OCR_TEXT
 62
6
100
AcDbText
 10
1647.22
 20
3249.168
 30
0.0
 40
105.3
  1
图纸目录
  7
wqy-unicode
 41
0.6662961083319237
 11
1647.22
 21
3249.168
 31
0.0
100
AcDbText
1001
OCR_TEXT_LINE
1070
1
1000
图纸目录
1040
0.99995
1070
0
1040
0.0
  0
TEXT
  5
15C
330
17
100
AcDbEntity
  8
OCR_TEXT
 62
6
100
AcDbText
 10
1968.74
 20
3125.1536
 30
0.0
 40
40.56
  1
项目编号
  7
wqy-unicode
 41
0.7015998165493951
 11
1968.74
 21
3125.1536
 31
0.0
100
AcDbText
1001
OCR_TEXT_LINE
1070
2
1000
项目编号
1040
0.99989
1070
0
1040
0.0
  0
TEXT
  5
15D
330
17
100
AcDbEntity
  8
OCR_TEXT
 62
6
100
AcDbText
 10
1341.74
 20
3124.9968
 30
0.0
 40
39.78
  1
项目名称
  7
wqy-unicode
 41
0.7219158967133608
 11
1341.74
 21
3124.9968
 31
0.0
100
AcDbText
1001
OCR_TEXT_LINE
1070
3
1000
项目名称
1040
0.99994
1070
0
1040
0.0
  0
TEXT
  5
15E
330
17
100
AcDbEntity
  8
OCR_TEXT
 62
6
100
AcDbText
 10
1360.33
 20
3085.9584
 30
0.0
 40
29.64
  1
Project Name
  7
wqy-unicode
 41
0.39992848703438844
 11
1360.33
 21
3085.9584
 31
0.0
100
AcDbText
1001
OCR_TEXT_LINE
1070
4
1000
Project Name
1040
0.99926
1070
0
1040
0.0
  0
TEXT
  5
15F
330
17
100
AcDbEntity
  8
OCR_TEXT
 62
6
100
AcDbText
 10
1991.18
 20
3085.9584
 30
0.0
 40
29.64
  1
Project No.
  7
wqy-unicode
 41
0.4075839851873086
 11
1991.18
 21
3085.9584
 31
0.0
100
AcDbText
1001
OCR_TEXT_LINE
1070
5
1000
Project No.
1040
0.95325
1070
0
1040
0.0
  0
TEXT
  5
160
330
17
100
AcDbEntity
  8
OCR_TEXT
 62
6
100
AcDbText
 10
1969.72
 20
3012.1536
 30
0.0
 40
40.56
  1
子项编号
  7
wqy-unicode
 41
0.6594211365286552
 11
1969.72
 21
3012.1536
 31
0.0
100
AcDbText
1001
OCR_TEXT_LINE
1070
6
1000
子项编号
1040
0.99968
1070
0
1040
0.0
  0
TEXT
  5
161
330
17
100
AcDbEntity
  8
OCR_TEXT
 62
6
100
AcDbText
 10
1341.73
 20
3011.1536
 30
0.0
 40
40.56
  1
子项名称
  7
wqy-unicode
 41
0.6690347231941508
 11
1341.73
 21
3011.1536
 31
0.0
100
AcDbText
1001
OCR_TEXT_LINE
1070
7
1000
子项名称
1040
0.99972
1070
0
1040
0.0
  0
TEXT
  5
162
330
17
100
AcDbEntity
  8
OCR_TEXT
 62
6
100
AcDbText
 10
447.99679999999995
 20
2934.7275999999997
 30
0.0
 40
83.46364478022753
  1
申都设计集团
 50
-0.3654018031374991
  7
wqy-unicode
 41
0.9990436604626618
 11
447.99679999999995
 21
2934.7275999999997
 31
0.0
100
AcDbText
1001
OCR_TEXT_LINE
1070
8
1000
申都设计集团
1040
0.96952
1070
0
1040
0.0
  0
TEXT
  5
163
330
17
100
AcDbEntity
  8
OCR_TEXT
 62
6
100
AcDbText
 10
1365.3768
 20
2973.0952
 30
0.0
 40
30.42999835688461
  1
Sub-Project
 50
-0.9391909457355799
  7
wqy-unicode
 41
0.38462109744417056
 11
1365.3768
 21
2973.0952
 31
0.0
100
AcDbText
1001
OCR_TEXT_LINE
1070
9
1000
Sub-Project
1040
0.9999
1070
0
1040
0.0
  0
TEXT
  5
164
330
17
100
AcDbEntity
  8
OCR_TEXT
 62
6
100
AcDbText
 10
1976.54
 20
2971.9584
 30
0.0
 40
29.64
  1
Sub-Project No.
  7
wqy-unicode
 41
0.38415551120105695
 11
1976.54
 21
2971.9584
 31
0.0
100
AcDbText
1001
OCR_TEXT_LINE
1070
10
1000
Sub-Project No.
1040
0.98986
1070
0
1040
0.0
  0
TEXT
  5
165
330
17
100
AcDbEntity
  8
OCR_TEXT
 62
6
100
AcDbText
 10
1984.39
 20
2896.7808
 30
0.0
 40
43.68
  1
阶段
  7
wqy-unicode
 41
0.9810313768719922
 11
1984.39
 21
2896.7808
 31
0.0
100
AcDbText
1001
OCR_TEXT_LINE
1070
11
1000
阶段
1040
0.99998
1070
0
1040
0.0
  0
TEXT
  5
166
330
17
100
AcDbEntity
  8
OCR_TEXT
 62
6
100
AcDbText
 10
1343.71
 20
2896.9968
 30
0.0
 40
39.78
  1
图纸名称
  7
wqy-unicode
 41
0.683135624312095
 11
1343.71
 21
2896.9968
 31
0.0
100
AcDbText
1001
OCR_TEXT_LINE
1070
12
1000
图纸名称
1040
0.99996
1070
0
1040
0.0
  0
TEXT
  5
167
330
17
100
AcDbEntity
  8
OCR_TEXT
 62
6
100
AcDbText
 10
2225.23
 20
2877.1328
 30
0.0
 40
55.38
  1
施工图
  7
wqy-unicode
 41
0.4669697842321186
 11
2225.23
 21
2877.1328
 31
0.0
100
AcDbText
1001
OCR_TEXT_LINE
1070
13
1000
施工图
1040
0.99959
1070
0
1040
0.0
  0
TEXT
  5
168
330
17
100
AcDbEntity
  8
OCR_TEXT
 62
6
100
AcDbText
 10
520.87
 20
2884.2128
 30
0.0
 40
35.88
  1
SHENDU DESIGN
  7
wqy-unicode
 41
1.096382881424512
 11
520.87
 21
2884.2128
 31
0.0
100
AcDbText
1001
OCR_TEXT_LINE
1070
14
1000
SHENDU DESIGN
1040
0.98085
1070
0
1040
0.0
  0
TEXT
  5
169
330
17
100
AcDbEntity
  8
OCR_TEXT
 62
6
100
AcDbText
 10
983.74
 20
2884.056
 30
0.0
 40
35.1
  1
GROUP
  7
wqy-unicode
 41
0.967752919944155
 11
983.74
 21
2884.056
 31
0.0
100
AcDbText
1001
OCR_TEXT_LINE
1070
15
1000
GROUP
1040
0.99991
1070
0
1040
0.0
  0
TEXT
  5
16A
330
17
100
AcDbEntity
  8
OCR_TEXT
 62
6
100
AcDbText
 10
2020.9736
 20
2856.5555999999997
 30
0.0
 40
32.797121824940675
  1
Stage
 50
-2.602562202499806
  7
wqy-unicode
 41
0.4049098644527818
 11
2020.9736
 21
2856.5555999999997
 31
0.0
100
AcDbText
1001
OCR_TEXT_LINE
1070
16
1000
Stage
1040
0.99983
1070
0
1040
0.0
  0
TEXT
  5
16B
330
17
100
AcDbEntity
  8
OCR_TEXT
 62
6
100
AcDbText
 10
1367.21
 20
2858.9584
 30
0.0
 40
29.64
  1
Sheet Title
  7
wqy-unicode
 41
0.39355200431188025
 11
1367.21
 21
2858.9584
 31
0.0
100
AcDbText
1001
OCR_TEXT_LINE
1070
17
1000
Sheet Title
1040
0.99907
1070
0
1040
0.0
  0
TEXT
  5
16C
330
17
100
AcDbEntity
  8
OCR_TEXT
 62
6
100
AcDbText
 10
1360.37
 20
2781.7808
 30
0.0
 40
43.68
  1
专业
  7
wqy-unicode
 41
0.9961635411761447
 11
1360.37
 21
2781.7808
 31
0.0
100
AcDbText
1001
OCR_TEXT_LINE
1070
18
1000
专业
1040
0.99998
1070
0
1040
0.0
  0
TEXT
  5
16D
330
17
100
AcDbEntity
  8
OCR_TEXT
 62
6
100
AcDbText
 10
1987.37
 20
2782.3104
 30
0.0
 40
41.34
  1
版次
  7
wqy-unicode
 41
1.0234354990181846
 11
1987.37
 21
2782.3104
 31
0.0
100
AcDbText
1001
OCR_TEXT_LINE
1070
19
1000
版次
1040
1.0
1070
0
1040
0.0
  0
TEXT
  5
16E
330
17
100
AcDbEntity
  8
OCR_TEXT
 62
6
100
AcDbText
 10
1678.99
 20
2756.8576
 30
0.0
 40
63.96
  1
电气
  7
wqy-unicode
 41
0.4889674062048092
 11
1678.99
 21
2756.8576
 31
0.0
100
AcDbText
1001
OCR_TEXT_LINE
1070
20
1000
电气
1040
0.99992
1070
0
1040
0.0
  0
TEXT
  5
16F
330
17
100
AcDbEntity
  8
OCR_TEXT
 62
6
100
AcDbText
 10
2272.23
 20
2773.7424
 30
0.0
 40
33.54
  1
7
  7
wqy-unicode
 41
0.690445266743451
 11
2272.23
 21
2773.7424
 31
0.0
100
AcDbText
1001
OCR_TEXT_LINE
1070
21
1000
7
1040
0.91342
1070
0
1040
0.0
  0
TEXT
  5
170
330
17
100
AcDbEntity
  8
OCR_TEXT
 62
6
100
AcDbText
 10
1369.17
 20
2740.2128
 30
0.0
 40
35.88
  1
Discipline
  7
wqy-unicode
 41
0.33666006748469374
 11
1369.17
 21
2740.2128
 31
0.0
100
AcDbText
1001
OCR_TEXT_LINE
1070
22
1000
Discipline
1040
0.99992
1070
0
1040
0.0
  0
TEXT
  5
171
330
17
100
AcDbEntity
  8
OCR_TEXT
 62
6
100
AcDbText
 10
2025.52
 20
2742.4288
 30
0.0
 40
31.98
  1
Rev.
  7
wqy-unicode
 41
0.4437333977300169
 11
2025.52
 21
2742.4288
 31
0.0
100
AcDbText
1001
OCR_TEXT_LINE
1070
23
1000
Rev.
1040
0.99879
1070
0
1040
0.0
  0
TEXT
  5
172
330
17
100
AcDbEntity
  8
OCR_TEXT
 62
6
100
AcDbText
 10
1361.35
 20
2666.7808
 30
0.0
 40
43.68
  1
图号
  7
wqy-unicode
 41
0.9883834439672002
 11
1361.35
 21
2666.7808
 31
0.0
100
AcDbText
1001
OCR_TEXT_LINE
1070
24
1000
图号
1040
1.0
1070
0
1040
0.0
  0
TEXT
  5
173
330
17
100
AcDbEntity
  8
OCR_TEXT
 62
6
100
AcDbText
 10
401.74
 20
2667.1536
 30
0.0
 40
40.56
  1
建设单位
  7
wqy-unicode
 41
0.6669712340297704
 11
401.74
 21
2667.1536
 31
0.0
100
AcDbText
1001
OCR_TEXT_LINE
1070
25
1000
建设单位
1040
0.99994
1070
0
1040
0.0
  0
TEXT
  5
174
330
17
100
AcDbEntity
  8
OCR_TEXT
 62
6
100
AcDbText
 10
652.37
 20
2632.8868
 30
0.0
 40
69.03
  1
扬子江药业集团有限公司
 50
0.10669592790226687
  7
wqy-unicode
 41
0.4491254567017743
 11
652.37
 21
2632.8868
 31
0.0
100
AcDbText
1001
OCR_TEXT_LINE
1070
26
1000
扬子江药业集团有限公司
1040
0.99974
1070
0
1040
0.0
  0
TEXT
  5
175
330
17
100
AcDbEntity
  8
OCR_TEXT
 62
6
100
AcDbText
 10
1991.34
 20
2659.9376
 30
0.0
 40
44.46
  1
日期
  7
wqy-unicode
 41
1.0620453835963646
 11
1991.34
 21
2659.9376
 31
0.0
100
AcDbText
1001
OCR_TEXT_LINE
1070
27
1000
日期
1040
0.99954
1070
0
1040
0.0
  0
TEXT
  5
176
330
17
100
AcDbEntity
  8
OCR_TEXT
 62
6
100
AcDbText
 10
2183.09
 20
2653.0944
 30
0.0
 40
45.24
  1
2024.8.15
  7
wqy-unicode
 41
0.5951896633089778
 11
2183.09
 21
2653.0944
 31
0.0
100
AcDbText
1001
OCR_TEXT_LINE
1070
28
1000
2024.8.15
1040
0.99997
1070
0
1040
0.0
  0
TEXT
  5
177
330
17
100
AcDbEntity
  8
OCR_TEXT
 62
6
100
AcDbText
 10
450.75
 20
2628.272
 30
0.0
 40
31.200000000000003
  1
Client
  7
wqy-unicode
 41
0.4067905425349784
 11
450.75
 21
2628.272
 31
0.0
100
AcDbText
1001
OCR_TEXT_LINE
1070
29
1000
Client
1040
0.99995
1070
0
1040
0.0
  0
TEXT
  5
178
330
17
100
AcDbEntity
  8
OCR_TEXT
 62
6
100
AcDbText
 10
1374.99
 20
2629.1152
 30
0.0
 40
30.42
  1
Sheet No.
  7
wqy-unicode
 41
0.4045685977707444
 11
1374.99
 21
2629.1152
 31
0.0
100
AcDbText
1001
OCR_TEXT_LINE
1070
30
1000
Sheet No.
1040
0.9969
1070
0
1040
0.0
  0
TEXT
  5
179
330
17
100
AcDbEntity
  8
OCR_TEXT
 62
6
100
AcDbText
 10
2026.55
 20
2627.1152
 30
0.0
 40
30.42
  1
Date
  7
wqy-unicode
 41
0.4556213017751478
 11
2026.55
 21
2627.1152
 31
0.0
100
AcDbText
1001
OCR_TEXT_LINE
1070
31
1000
Date
1040
0.99996
1070
0
1040
0.0
  0
TEXT
  5
17A
330
17
100
AcDbEntity
  8
OCR_TEXT
 62
6
100
AcDbText
 10
633.12
 20
2539.5056
 30
0.0
 40
52.260000000000005
  1
图号
  7
wqy-unicode
 41
0.6853666070273388
 11
633.12
 21
2539.5056
 31
0.0
100
AcDbText
1001
OCR_TEXT_LINE
1070
32
1000
图号
1040
1.0
1070
0
1040
0.0
  0
TEXT
  5
17B
330
17
100
AcDbEntity
  8
OCR_TEXT
 62
6
100
AcDbText
 10
1912.17
 20
2538.6624
 30
0.0
 40
53.04
  1
版次
  7
wqy-unicode
 41
0.6812283737024221
 11
1912.17
 21
2538.6624
 31
0.0
100
AcDbText
1001
OCR_TEXT_LINE
1070
33
1000
版次
1040
1.0
1070
0
1040
0.0
  0
TEXT
  5
17C
330
17
100
AcDbEntity
  8
OCR_TEXT
 62
6
100
AcDbText
 10
425.18
 20
2538.5056
 30
0.0
 40
52.260000000000005
  1
序号
  7
wqy-unicode
 41
0.7009869828826786
 11
425.18
 21
2538.5056
 31
0.0
100
AcDbText
1001
OCR_TEXT_LINE
1070
34
1000
序号
1040
0.99998
1070
0
1040
0.0
  0
TEXT
  5
17D
330
17
100
AcDbEntity
  8
OCR_TEXT
 62
6
100
AcDbText
 10
1744.1
 20
2541.0352
 30
0.0
 40
49.92
  1
图幅
  7
wqy-unicode
 41
0.7161052377983108
 11
1744.1
 21
2541.0352
 31
0.0
100
AcDbText
1001
OCR_TEXT_LINE
1070
35
1000
图幅
1040
0.99992
1070
0
1040
0.0
  0
TEXT
  5
17E
330
17
100
AcDbEntity
  8
OCR_TEXT
 62
6
100
AcDbText
 10
2167.15
 20
2540.0352
 30
0.0
 40
49.92
  1
备注
  7
wqy-unicode
 41
0.7149370026525199
 11
2167.15
 21
2540.0352
 31
0.0
100
AcDbText
1001
OCR_TEXT_LINE
1070
36
1000
备注
1040
0.99573
1070
0
1040
0.0
  0
TEXT
  5
17F
330
17
100
AcDbEntity
  8
OCR_TEXT
 62
6
100
AcDbText
 10
1143.05
 20
2541.2512
 30
0.0
 40
46.02
  1
图纸名称
  7
wqy-unicode
 41
0.7079178265618945
 11
1143.05
 21
2541.2512
 31
0.0
100
AcDbText
1001
OCR_TEXT_LINE
1070
37
1000
图纸名称
1040
0.9999
1070
0
1040
0.0
  0
TEXT
  5
180
330
17
100
AcDbEntity
  8
OCR_TEXT
 62
6
100
AcDbText
 10
587.7668
 20
2442.6424
 30
0.0
 40
53.045734984068226
  1
电施-01
 50
-0.7117122060356939
  7
wqy-unicode
 41
0.5322424522139554
 11
587.7668
 21
2442.6424
 31
0.0
100
AcDbText
1001
OCR_TEXT_LINE
1070
38
1000
电施-01
1040
0.99979
1070
0
1040
0.0
  0
TEXT
  5
181
330
17
100
AcDbEntity
  8
OCR_TEXT
 62
6
100
AcDbText
 10
830.05
 20
2440.8192
 30
0.0
 40
53.82
  1
设计说明 火灾自动报警及联动系统图
  7
wqy-unicode
 41
0.43430354895367934
 11
830.05
 21
2440.8192
 31
0.0
100
AcDbText
1001
OCR_TEXT_LINE
1070
39
1000
设计说明 火灾自动报警及联动系统图
1040
0.98907
1070
0
1040
0.0
  0
TEXT
  5
182
330
17
100
AcDbEntity
  8
OCR_TEXT
 62
6
100
AcDbText
 10
1761.74
 20
2440.7216
 30
0.0
 40
48.36
  1
A1
  7
wqy-unicode
 41
0.8229437753434606
 11
1761.74
 21
2440.7216
 31
0.0
100
AcDbText
1001
OCR_TEXT_LINE
1070
40
1000
A1
1040
0.99696
1070
0
1040
0.0
  0
TEXT
  5
183
330
17
100
AcDbEntity
  8
OCR_TEXT
 62
6
100
AcDbText
 10
587.67
 20
2349.1328
 30
0.0
 40
55.38
  1
电施-02
  7
wqy-unicode
 41
0.5054535616470509
 11
587.67
 21
2349.1328
 31
0.0
100
AcDbText
1001
OCR_TEXT_LINE
1070
41
1000
电施-02
1040
0.99967
1070
0
1040
0.0
  0
TEXT
  5
184
330
17
100
AcDbEntity
  8
OCR_TEXT
 62
6
100
AcDbText
 10
830.97
 20
2352.0352
 30
0.0
 40
49.92
  1
一层火灾自动报警平面图
  7
wqy-unicode
 41
0.4598336754041815
 11
830.97
 21
2352.0352
 31
0.0
100
AcDbText
1001
OCR_TEXT_LINE
1070
42
1000
一层火灾自动报警平面图
1040
0.99924
1070
0
1040
0.0
  0
TEXT
  5
185
330
17
100
AcDbEntity
  8
OCR_TEXT
 62
6
100
AcDbText
 10
1751.93
 20
2349.7216
 30
0.0
 40
48.36
  1
A1+
  7
wqy-unicode
 41
0.6768371293510959
 11
1751.93
 21
2349.7216
 31
0.0
100
AcDbText
1001
OCR_TEXT_LINE
1070
43
1000
A1+
1040
0.99704
1070
0
1040
0.0
  0
TEXT
  5
186
330
17
100
AcDbEntity
  8
OCR_TEXT
 62
6
100
AcDbText
 10
464.48
 20
2349.408
 30
0.0
 40
46.800000000000004
  1
2
  7
wqy-unicode
 41
1.0531028924509716
 11
464.48
 21
2349.408
 31
0.0
100
AcDbText
1001
OCR_TEXT_LINE
1070
44
1000
2
1040
0.99998
1070
0
1040
0.0
  0
TEXT
  5
187
330
17
100
AcDbEntity
  8
OCR_TEXT
 62
6
100
AcDbText
 10
586.67
 20
2259.6624
 30
0.0
 40
53.04
  1
电施-03
  7
wqy-unicode
 41
0.5270518502742498
 11
586.67
 21
2259.6624
 31
0.0
100
AcDbText
1001
OCR_TEXT_LINE
1070
45
1000
电施-03
1040
0.99979
1070
0
1040
0.0
  0
TEXT
  5
188
330
17
100
AcDbEntity
  8
OCR_TEXT
 62
6
100
AcDbText
 10
830.97
 20
2261.0352
 30
0.0
 40
49.92
  1
二层火灾自动报警平面图
  7
wqy-unicode
 41
0.45779290462181077
 11
830.97
 21
2261.0352
 31
0.0
100
AcDbText
1001
OCR_TEXT_LINE
1070
46
1000
二层火灾自动报警平面图
1040
0.99922
1070
0
1040
0.0
  0
TEXT
  5
189
330
17
100
AcDbEntity
  8
OCR_TEXT
 62
6
100
AcDbText
 10
1752.92
 20
2257.8784
 30
0.0
 40
49.14
  1
A1+
  7
wqy-unicode
 41
0.6589313851883684
 11
1752.92
 21
2257.8784
 31
0.0
100
AcDbText
1001
OCR_TEXT_LINE
1070
47
1000
A1+
1040
0.99673
1070
0
1040
0.0
  0
TEXT
  5
18A
330
17
100
AcDbEntity
  8
OCR_TEXT
 62
6
100
AcDbText
 10
466.44
 20
2259.2512
 30
0.0
 40
46.02
  1
3
  7
wqy-unicode
 41
0.9737708175880955
 11
466.44
 21
2259.2512
 31
0.0
100
AcDbText
1001
OCR_TEXT_LINE
1070
48
1000
3
1040
0.99953
1070
0
1040
0.0
  0
TEXT
  5
18B
330
17
100
AcDbEntity
  8
OCR_TEXT
 62
6
100
AcDbText
 10
586.8168
 20
2168.1027999999997
 30
0.0
 40
55.38549268535941
  1
电施-04
 50
-1.0353531865449448
  7
wqy-unicode
 41
0.4936407367727339
 11
586.8168
 21
2168.1027999999997
 31
0.0
100
AcDbText
1001
OCR_TEXT_LINE
1070
49
1000
电施-04
1040
0.99973
1070
0
1040
0.0
  0
TEXT
  5
18C
330
17
100
AcDbEntity
  8
OCR_TEXT
 62
6
100
AcDbText
 10
831.96
 20
2170.0352
 30
0.0
 40
49.92
  1
三层火灾自动报警平面图
  7
wqy-unicode
 41
0.4582548215473287
 11
831.96
 21
2170.0352
 31
0.0
100
AcDbText
1001
OCR_TEXT_LINE
1070
50
1000
三层火灾自动报警平面图
1040
0.99893
1070
0
1040
0.0
  0
TEXT
  5
18D
330
17
100
AcDbEntity
  8
OCR_TEXT
 62
6
100
AcDbText
 10
1752.92
 20
2167.7216
 30
0.0
 40
48.36
  1
A1+
  7
wqy-unicode
 41
0.6695593107559228
 11
1752.92
 21
2167.7216
 31
0.0
100
AcDbText
1001
OCR_TEXT_LINE
1070
51
1000
A1+
1040
0.99599
1070
0
1040
0.0
  0
TEXT
  5
18E
330
17
100
AcDbEntity
  8
OCR_TEXT
 62
6
100
AcDbText
 10
467.7904
 20
2172.5064
 30
0.0
 40
37.513053728002475
  1
4
 50
-3.576334374997351
  7
wqy-unicode
 41
0.7910242957462265
 11
467.7904
 21
2172.5064
 31
0.0
100
AcDbText
1001
OCR_TEXT_LINE
1070
52
1000
4
1040
0.97835
1070
0
1040
0.0
  0
TEXT
  5
18F
330
17
100
AcDbEntity
  8
OCR_TEXT
 62
6
100
AcDbText
 10
588.65
 20
2075.8192
 30
0.0
 40
53.82
  1
电施-05
  7
wqy-unicode
 41
0.5156394694749088
 11
588.65
 21
2075.8192
 31
0.0
100
AcDbText
1001
OCR_TEXT_LINE
1070
53
1000
电施-05
1040
0.99991
1070
0
1040
0.0
  0
TEXT
  5
190
330
17
100
AcDbEntity
  8
OCR_TEXT
 62
6
100
AcDbText
 10
831.96
 20
2077.192
 30
0.0
 40
50.7
  1
四层火灾自动报警平面图
  7
wqy-unicode
 41
0.45206339542228724
 11
831.96
 21
2077.192
 31
0.0
100
AcDbText
1001
OCR_TEXT_LINE
1070
54
1000
四层火灾自动报警平面图
1040
0.99971
1070
0
1040
0.0
  0
TEXT
  5
191
330
17
100
AcDbEntity
  8
OCR_TEXT
 62
6
100
AcDbText
 10
1751.93
 20
2074.8784
 30
0.0
 40
49.14
  1
A1+
  7
wqy-unicode
 41
0.6660936828534593
 11
1751.93
 21
2074.8784
 31
0.0
100
AcDbText
1001
OCR_TEXT_LINE
1070
55
1000
A1+
1040
0.99688
1070
0
1040
0.0
  0
TEXT
  5
192
330
17
100
AcDbEntity
  8
OCR_TEXT
 62
6
100
AcDbText
 10
464.44
 20
2076.2512
 30
0.0
 40
46.02
  1
5
  7
wqy-unicode
 41
1.0027176314284074
 11
464.44
 21
2076.2512
 31
0.0
100
AcDbText
1001
OCR_TEXT_LINE
1070
56
1000
5
1040
0.99997
1070
0
1040
0.0
  0
TEXT
  5
193
330
17
100
AcDbEntity
  8
OCR_TEXT
 62
6
100
AcDbText
 10
588.63
 20
1984.6624
 30
0.0
 40
53.04
  1
电施-06
  7
wqy-unicode
 41
0.5145255053133923
 11
588.63
 21
1984.6624
 31
0.0
100
AcDbText
1001
OCR_TEXT_LINE
1070
57
1000
电施-06
1040
0.99981
1070
0
1040
0.0
  0
TEXT
  5
194
330
17
100
AcDbEntity
  8
OCR_TEXT
 62
6
100
AcDbText
 10
828.59
 20
1983.8192
 30
0.0
 40
53.82
  1
一层照明平面图
  7
wqy-unicode
 41
0.4376656635750846
 11
828.59
 21
1983.8192
 31
0.0
100
AcDbText
1001
OCR_TEXT_LINE
1070
58
1000
一层照明平面图
1040
0.9996
1070
0
1040
0.0
  0
TEXT
  5
195
330
17
100
AcDbEntity
  8
OCR_TEXT
 62
6
100
AcDbText
 10
1752.92
 20
1984.5648
 30
0.0
 40
47.58
  1
A1+
  7
wqy-unicode
 41
0.6805356928994625
 11
1752.92
 21
1984.5648
 31
0.0
100
AcDbText
1001
OCR_TEXT_LINE
1070
59
1000
A1+
1040
0.99667
1070
0
1040
0.0
  0
TEXT
  5
196
330
17
100
AcDbEntity
  8
OCR_TEXT
 62
6
100
AcDbText
 10
465.97720000000004
 20
1988.4372
 30
0.0
 40
42.23539747652436
  1
6
 50
-4.899092453787765
  7
wqy-unicode
 41
0.8480734588860415
 11
465.97720000000004
 21
1988.4372
 31
0.0
100
AcDbText
1001
OCR_TEXT_LINE
1070
60
1000
6
1040
0.99937
1070
0
1040
0.0
  0
TEXT
  5
197
330
17
100
AcDbEntity
  8
OCR_TEXT
 62
6
100
AcDbText
 10
1714.43
 20
638.6832
 30
0.0
 40
38.22
  1
本图须加盖出图签章，否则一律无效
  7
wqy-unicode
 41
0.6912219471030671
 11
1714.43
 21
638.6832
 31
0.0
100
AcDbText
1001
OCR_TEXT_LINE
1070
61
1000
本图须加盖出图签章，否则一律无效
1040
0.98564
1070
0
1040
0.0
  0
TEXT
  5
198
330
17
100
AcDbEntity
  8
OCR_TEXT
 62
6
100
AcDbText
 10
1918.27
 20
605.7826592660568
 30
0.0
 40
28.86526930819096
  1
Invalid Unless Stamped
 50
-0.5047955685558289
  7
wqy-unicode
 41
0.3826993010043878
 11
1918.27
 21
605.7826592660568
 31
0.0
100
AcDbText
1001
OCR_TEXT_LINE
1070
62
1000
Invalid Unless Stamped
1040
0.99776
1070
0
1040
0.0
  0
TEXT
  5
199
330
17
100
AcDbEntity
  8
OCR_TEXT
 62
6
100
AcDbText
 10
1172.3168
 20
534.4472000000001
 30
0.0
 40
42.127221603139226
  1
审核
 50
-0.98776039963981
  7
wqy-unicode
 41
0.8607386177940181
 11
1172.3168
 21
534.4472000000001
 31
0.0
100
AcDbText
1001
OCR_TEXT_LINE
1070
63
1000
审核
1040
0.9993
1070
0
1040
0.0
  0
TEXT
  5
19A
330
17
100
AcDbEntity
  8
OCR_TEXT
 62
6
100
AcDbText
 10
2209.16
 20
532.624
 30
0.0
 40
42.9
  1
绘图
  7
wqy-unicode
 41
0.8647190373078696
 11
2209.16
 21
532.624
 31
0.0
100
AcDbText
1001
OCR_TEXT_LINE
1070
64
1000
绘图
1040
0.99974
1070
0
1040
0.0
  0
TEXT
  5
19B
330
17
100
AcDbEntity
  8
OCR_TEXT
 62
6
100
AcDbText
 10
430.19
 20
532.4672
 30
0.0
 40
42.120000000000005
  1
职责
  7
wqy-unicode
 41
0.8725071225071224
 11
430.19
 21
532.4672
 31
0.0
100
AcDbText
1001
OCR_TEXT_LINE
1070
65
1000
职责
1040
0.99934
1070
0
1040
0.0
  0
TEXT
  5
19C
330
17
100
AcDbEntity
  8
OCR_TEXT
 62
6
100
AcDbText
 10
654.16
 20
532.4672
 30
0.0
 40
42.120000000000005
  1
审定
  7
wqy-unicode
 41
0.8684518516481332
 11
654.16
 21
532.4672
 31
0.0
100
AcDbText
1001
OCR_TEXT_LINE
1070
66
1000
审定
1040
0.99954
1070
0
1040
0.0
  0
TEXT
  5
19D
330
17
100
AcDbEntity
  8
OCR_TEXT
 62
6
100
AcDbText
 10
1432.16
 20
532.4672
 30
0.0
 40
42.120000000000005
  1
校对
  7
wqy-unicode
 41
0.8434235517568849
 11
1432.16
 21
532.4672
 31
0.0
100
AcDbText
1001
OCR_TEXT_LINE
1070
67
1000
校对
1040
0.99961
1070
0
1040
0.0
  0
TEXT
  5
19E
330
17
100
AcDbEntity
  8
OCR_TEXT
 62
6
100
AcDbText
 10
1950.17
 20
532.4672
 30
0.0
 40
42.120000000000005
  1
设计
  7
wqy-unicode
 41
0.8623724040830691
 11
1950.17
 21
532.4672
 31
0.0
100
AcDbText
1001
OCR_TEXT_LINE
1070
68
1000
设计
1040
0.99998
1070
0
1040
0.0
  0
TEXT
  5
19F
330
17
100
AcDbEntity
  8
OCR_TEXT
 62
6
100
AcDbText
 10
867.09
 20
534.5264
 30
0.0
 40
37.44
  1
设计负责人
  7
wqy-unicode
 41
0.6948289150871709
 11
867.09
 21
534.5264
 31
0.0
100
AcDbText
1001
OCR_TEXT_LINE
1070
69
1000
设计负责人
1040
0.99995
1070
0
1040
0.0
  0
TEXT
  5
1A0
330
17
100
AcDbEntity
  8
OCR_TEXT
 62
6
100
AcDbText
 10
1643.14
 20
534.5264
 30
0.0
 40
37.44
  1
专业负责人
  7
wqy-unicode
 41
0.7179359376026991
 11
1643.14
 21
534.5264
 31
0.0
100
AcDbText
1001
OCR_TEXT_LINE
1070
70
1000
专业负责人
1040
0.99996
1070
0
1040
0.0
  0
TEXT
  5
1A1
330
17
100
AcDbEntity
  8
OCR_TEXT
 62
6
100
AcDbText
 10
2216.2835999999998
 20
493.8592
 30
0.0
 40
34.35543625105058
  1
Drawn by
 50
-2.36137465817562
  7
wqy-unicode
 41
0.36962440398372515
 11
2216.2835999999998
 21
493.8592
 31
0.0
100
AcDbText
1001
OCR_TEXT_LINE
1070
71
1000
Drawn by
1040
0.9998
1070
0
1040
0.0
  0
TEXT
  5
1A2
330
17
100
AcDbEntity
  8
OCR_TEXT
 62
6
100
AcDbText
 10
1945.25
 20
491.056
 30
0.0
 40
35.1
  1
Designed by
  7
wqy-unicode
 41
0.33861854689797766
 11
1945.25
 21
491.056
 31
0.0
100
AcDbText
1001
OCR_TEXT_LINE
1070
72
1000
Designed by
1040
0.99831
1070
0
1040
0.0
  0
TEXT
  5
1A3
330
17
100
AcDbEntity
  8
OCR_TEXT
 62
6
100
AcDbText
 10
870.01
 20
494.252
 30
0.0
 40
31.200000000000003
  1
Principal in charge
 50
-0.5700884449988864
  7
wqy-unicode
 41
0.3705749747966402
 11
870.01
 21
494.252
 31
0.0
100
AcDbText
1001
OCR_TEXT_LINE
1070
73
1000
Principal in charge
1040
0.99931
1070
0
1040
0.0
  0
TEXT
  5
1A4
330
17
100
AcDbEntity
  8
OCR_TEXT
 62
6
100
AcDbText
 10
1168.22
 20
492.5856
 30
0.0
 40
32.76
  1
Reviewed by
  7
wqy-unicode
 41
0.34321999839241224
 11
1168.22
 21
492.5856
 31
0.0
100
AcDbText
1001
OCR_TEXT_LINE
1070
74
1000
Reviewed by
1040
0.99983
1070
0
1040
0.0
  0
TEXT
  5
1A5
330
17
100
AcDbEntity
  8
OCR_TEXT
 62
6
100
AcDbText
 10
1434.12
 20
492.5856
 30
0.0
 40
32.76
  1
Checked by
  7
wqy-unicode
 41
0.3566392212163945
 11
1434.12
 21
492.5856
 31
0.0
100
AcDbText
1001
OCR_TEXT_LINE
1070
75
1000
Checked by
1040
0.99923
1070
0
1040
0.0
  0
TEXT
  5
1A6
330
17
100
AcDbEntity
  8
OCR_TEXT
 62
6
100
AcDbText
 10
414.52
 20
492.4288
 30
0.0
 40
31.98
  1
Responsibility
  7
wqy-unicode
 41
0.3474036691014257
 11
414.52
 21
492.4288
 31
0.0
100
AcDbText
1001
OCR_TEXT_LINE
1070
76
1000
Responsibility
1040
0.99993
1070
0
1040
0.0
  0
TEXT
  5
1A7
330
17
100
AcDbEntity
  8
OCR_TEXT
 62
6
100
AcDbText
 10
649.22
 20
491.5856
 30
0.0
 40
32.76
  1
Approved by
  7
wqy-unicode
 41
0.34768872495134806
 11
649.22
 21
491.5856
 31
0.0
100
AcDbText
1001
OCR_TEXT_LINE
1070
77
1000
Approved by
1040
0.99993
1070
0
1040
0.0
  0
TEXT
  5
1A8
330
17
100
AcDbEntity
  8
OCR_TEXT
 62
6
100
AcDbText
 10
1638.24
 20
495.3312
 30
0.0
 40
26.52
  1
Discipline Responsible
  7
wqy-unicode
 41
0.4031699185872988
 11
1638.24
 21
495.3312
 31
0.0
100
AcDbText
1001
OCR_TEXT_LINE
1070
78
1000
Discipline Responsible
1040
0.99954
1070
0
1040
0.0
  0
TEXT
  5
1A9
330
17
100
AcDbEntity
  8
OCR_TEXT
 62
6
100
AcDbText
 10
430.37
 20
417.7808
 30
0.0
 40
43.68
  1
姓名
  7
wqy-unicode
 41
0.9943731681689985
 11
430.37
 21
417.7808
 31
0.0
100
AcDbText
1001
OCR_TEXT_LINE
1070
79
1000
姓名
1040
0.99996
1070
0
1040
0.0
  0
TEXT
  5
1AA
330
17
100
AcDbEntity
  8
OCR_TEXT
 62
6
100
AcDbText
 10
472.55
 20
379.9584
 30
0.0
 40
29.64
  1
Name
  7
wqy-unicode
 41
0.45908546314540255
 11
472.55
 21
379.9584
 31
0.0
100
AcDbText
1001
OCR_TEXT_LINE
1070
80
1000
Name
1040
0.99964
1070
0
1040
0.0
  0
TEXT
  5
1AB
330
17
100
AcDbEntity
  8
OCR_TEXT
 62
6
100
AcDbText
 10
430.3468
 20
304.06440000000003
 30
0.0
 40
45.24672363829231
  1
签字
 50
-1.4441255309358456
  7
wqy-unicode
 41
0.8237198396850405
 11
430.3468
 21
304.06440000000003
 31
0.0
100
AcDbText
1001
OCR_TEXT_LINE
1070
81
1000
签字
1040
0.99984
1070
0
1040
0.0
  0
TEXT
  5
1AC
330
17
100
AcDbEntity
  8
OCR_TEXT
 62
6
100
AcDbText
 10
437.06
 20
262.5856
 30
0.0
 40
32.76
  1
Signature
  7
wqy-unicode
 41
0.3693343022966421
 11
437.06
 21
262.5856
 31
0.0
100
AcDbText
1001
OCR_TEXT_LINE
1070
82
1000
Signature
1040
0.99986
1070
0
1040
0.0
  0
TEXT
  5
1AD
330
17
100
AcDbEntity
  8
OCR_TEXT
 62
6
100
AcDbText
 10
2021.88
 20
177.976
 30
0.0
 40
54.6
  1
共页第页
  7
wqy-unicode
 41
1.1212329709646347
 11
2021.88
 21
177.976
 31
0.0
100
AcDbText
1001
OCR_TEXT_LINE
1070
83
1000
共页第页
1040
0.99997
1070
0
1040
0.0
  0
ENDSEC
  0
SECTION
  2
OBJECTS
  0
DICTIONARY
  5
A
330
0
100
AcDbDictionary
281
1
  3
ACAD_COLOR
350
B
  3
ACAD_GROUP
350
C
  3
ACAD_LAYOUT
350
D
  3
ACAD_MATERIAL
350
E
  3
ACAD_MLEADERSTYLE
350
F
  3
ACAD_MLINESTYLE
350
10
  3
ACAD_PLOTSETTINGS
350
11
  3
ACAD_PLOTSTYLENAME
350
12
  3
ACAD_SCALELIST
350
14
  3
ACAD_TABLESTYLE
350
15
  3
ACAD_VISUALSTYLE
350
16
  3
EZDXF_META
350
2D
  0
DICTIONARY
  5
B
330
A
100
AcDbDictionary
281
1
  0
DICTIONARY
  5
C
330
A
100
AcDbDictionary
281
1
  0
DICTIONARY
  5
D
330
A
100
AcDbDictionary
281
1
  3
Model
350
1A
  3
Layout1
350
1E
  0
DICTIONARY
  5
E
330
A
100
AcDbDictionary
281
1
  3
ByBlock
350
1F
  3
ByLayer
350
20
  3
Global
350
21
  0
DICTIONARY
  5
F
330
A
100
AcDbDictionary
281
1
  3
Standard
350
2C
  0
DICTIONARY
  5
10
330
A
100
AcDbDictionary
281
1
  3
Standard
350
22
  0
DICTIONARY
  5
11
330
A
100
AcDbDictionary
281
1
  0
ACDBDICTIONARYWDFLT
  5
12
330
A
100
AcDbDictionary
281
1
  3
Normal
350
13
100
AcDbDictionaryWithDefault
340
13
  0
ACDBPLACEHOLDER
  5
13
330
12
  0
DICTIONARY
  5
14
330
A
100
AcDbDictionary
281
1
  0
DICTIONARY
  5
15
330
A
100
AcDbDictionary
281
1
  0
DICTIONARY
  5
16
330
A
100
AcDbDictionary
281
1
  3
2dWireframe
350
5A
  3
Basic
350
5B
  3
Brighten
350
5C
  3
ColorChange
350
5D
  3
Conceptual
350
5E
  3
Dim
350
5F
  3
EdgeColorOff
350
60
  3
Facepattern
350
61
  3
Flat
350
62
  3
FlatWithEdges
350
63
  3
Gouraud
350
64
  3
GouraudWithEdges
350
65
  3
Hidden
350
66
  3
JitterOff
350
67
  3
Linepattern
350
68
  3
Modeling
350
69
  3
OverhangOff
350
6A
  3
Realistic
350
6B
  3
Shaded
350
6C
  3
Shaded with edges
350
6D
  3
Shades of Gray
350
6E
  3
Sketchy
350
6F
  3
Thicken
350
70
  3
Wireframe
350
71
  3
X-Ray
350
72
  0
LAYOUT
  5
1A
330
D
100
AcDbPlotSettings
  1

  4
A3
  6

 40
7.5
 41
20.0
 42
7.5
 43
20.0
 44
420.0
 45
297.0
 46
0.0
 47
0.0
 48
0.0
 49
0.0
140
0.0
141
0.0
142
1.0
143
1.0
 70
1024
 72
1
 73
0
 74
5
  7

 75
16
 76
0
 77
2
 78
300
147
1.0
148
0.0
149
0.0
100
AcDbLayout
  1
Model
 70
1
 71
0
 10
0.0
 20
0.0
 11
420.0
 21
297.0
 12
0.0
 22
0.0
 32
0.0
 14
1e+20
 24
1e+20
 34
1e+20
 15
-1e+20
 25
-1e+20
 35
-1e+20
146
0.0
 13
0.0
 23
0.0
 33
0.0
 16
1.0
 26
0.0
 36
0.0
 17
0.0
 27
1.0
 37
0.0
 76
1
330
17
  0
LAYOUT
  5
1E
330
D
100
AcDbPlotSettings
  1

  4
A3
  6

 40
7.5
 41
20.0
 42
7.5
 43
20.0
 44
420.0
 45
297.0
 46
0.0
 47
0.0
 48
0.0
 49
0.0
140
0.0
141
0.0
142
1.0
143
1.0
 70
0
 72
1
 73
0
 74
5
  7

 75
16
 76
0
 77
2
 78
300
147
1.0
148
0.0
149
0.0
100
AcDbLayout
  1
Layout1
 70
1
 71
1
 10
0.0
 20
0.0
 11
420.0
 21
297.0
 12
0.0
 22
0.0
 32
0.0
 14
1e+20
 24
1e+20
 34
1e+20
 15
-1e+20
 25
-1e+20
 35
-1e+20
146
0.0
 13
0.0
 23
0.0
 33
0.0
 16
1.0
 26
0.0
 36
0.0
 17
0.0
 27
1.0
 37
0.0
 76
1
330
1B
  0
MATERIAL
  5
1F
102
{ACAD_REACTORS
330
E
102
}
330
E
100
AcDbMaterial
  1
ByBlock
  2

 70
0
 40
1.0
 71
1
 41
1.0
 91
-1023410177
 42
1.0
 72
1
  3

 73
1
 74
1
 75
1
 44
0.5
 73
0
 45
1.0
 46
1.0
 77
1
  4

 78
1
 79
1
170
1
 48
1.0
171
1
  6

172
1
173
1
174
1
140
1.0
141
1.0
175
1
  7

176
1
177
1
178
1
143
1.0
179
1
  8

270
1
271
1
272
1
145
1.0
146
1.0
273
1
  9

274
1
275
1
276
1
 42
1.0
 72
1
  3

 73
1
 74
1
 75
1
 94
63
  0
MATERIAL
  5
20
102
{ACAD_REACTORS
330
E
102
}
330
E
100
AcDbMaterial
  1
ByLayer
  2

 70
0
 40
1.0
 71
1
 41
1.0
 91
-1023410177
 42
1.0
 72
1
  3

 73
1
 74
1
 75
1
 44
0.5
 73
0
 45
1.0
 46
1.0
 77
1
  4

 78
1
 79
1
170
1
 48
1.0
171
1
  6

172
1
173
1
174
1
140
1.0
141
1.0
175
1
  7

176
1
177
1
178
1
143
1.0
179
1
  8

270
1
271
1
272
1
145
1.0
146
1.0
273
1
  9

274
1
275
1
276
1
 42
1.0
 72
1
  3

 73
1
 74
1
 75
1
 94
63
  0
MATERIAL
  5
21
102
{ACAD_REACTORS
330
E
102
}
330
E
100
AcDbMaterial
  1
Global
  2

 70
0
 40
1.0
 71
1
 41
1.0
 91
-1023410177
 42
1.0
 72
1
  3

 73
1
 74
1
 75
1
 44
0.5
 73
0
 45
1.0
 46
1.0
 77
1
  4

 78
1
 79
1
170
1
 48
1.0
171
1
  6

172
1
173
1
174
1
140
1.0
141
1.0
175
1
  7

176
1
177
1
178
1
143
1.0
179
1
  8

270
1
271
1
272
1
145
1.0
146
1.0
273
1
  9

274
1
275
1
276
1
 42
1.0
 72
1
  3

 73
1
 74
1
 75
1
 94
63
  0
MLINESTYLE
  5
22
102
{ACAD_REACTORS
330
10
102
}
330
10
100
AcDbMlineStyle
  2
Standard
 70
0
  3

 62
256
 51
90.0
 52
90.0
 71
2
 49
0.5
 62
256
  6
BYLAYER
 49
-0.5
 62
256
  6
BYLAYER
  0
MLEADERSTYLE
  5
2C
102
{ACAD_REACTORS
330
F
102
}
330
F
100
AcDbMLeaderStyle
179
2
170
2
171
1
172
0
 90
2
 40
0.0
 41
0.0
173
1
 91
-1056964608
 92
-2
290
1
 42
2.0
291
1
 43
8.0
  3
Standard
 44
4.0
300

342
29
174
1
175
1
176
0
178
1
 93
-1056964608
 45
4.0
292
0
297
0
 46
4.0
 94
-1056964608
 47
1.0
 49
1.0
140
1.0
294
1
141
0.0
177
0
142
1.0
295
0
296
0
143
3.75
271
0
272
9
273
9
  0
DICTIONARY
  5
2D
330
A
100
AcDbDictionary
280
1
281
1
  3
CREATED_BY_EZDXF
350
2E
  3
WRITTEN_BY_EZDXF
350
1B3
  0
DICTIONARYVAR
  5
2E
330
2D
100
DictionaryVariables
280
0
  1
1.4.4 @ 2026-07-24T08:19:26.575544+00:00
  0
VISUALSTYLE
  5
5A
102
{ACAD_REACTORS
330
16
102
}
330
16
100
AcDbVisualStyle
  2
2dWireframe
 70
4
 90
0
 40
0.6
 62
7
290
0
291
0
  0
VISUALSTYLE
  5
5B
102
{ACAD_REACTORS
330
16
102
}
330
16
100
AcDbVisualStyle
  2
Basic
 70
7
 90
1
 40
0.6
 62
7
290
0
291
1
  0
VISUALSTYLE
  5
5C
102
{ACAD_REACTORS
330
16
102
}
330
16
100
AcDbVisualStyle
  2
Brighten
 70
12
 90
2
 40
0.6
 62
7
290
0
291
1
  0
VISUALSTYLE
  5
5D
102
{ACAD_REACTORS
330
16
102
}
330
16
100
AcDbVisualStyle
  2
ColorChange
 70
16
 90
2
 40
0.6
 62
8
290
0
291
1
  0
VISUALSTYLE
  5
5E
102
{ACAD_REACTORS
330
16
102
}
330
16
100
AcDbVisualStyle
  2
Conceptual
 70
9
 90
3
 40
0.6
 62
7
290
0
291
0
  0
VISUALSTYLE
  5
5F
102
{ACAD_REACTORS
330
16
102
}
330
16
100
AcDbVisualStyle
  2
Dim
 70
11
 90
2
 40
0.6
 62
7
290
0
291
1
  0
VISUALSTYLE
  5
60
102
{ACAD_REACTORS
330
16
102
}
330
16
100
AcDbVisualStyle
  2
EdgeColorOff
 70
22
 90
2
 40
0.6
 62
7
290
0
291
1
  0
VISUALSTYLE
  5
61
102
{ACAD_REACTORS
330
16
102
}
330
16
100
AcDbVisualStyle
  2
Facepattern
 70
15
 90
2
 40
0.6
 62
7
290
0
291
1
  0
VISUALSTYLE
  5
62
102
{ACAD_REACTORS
330
16
102
}
330
16
100
AcDbVisualStyle
  2
Flat
 70
0
 90
2
 40
0.6
 62
7
290
0
291
1
  0
VISUALSTYLE
  5
63
102
{ACAD_REACTORS
330
16
102
}
330
16
100
AcDbVisualStyle
  2
FlatWithEdges
 70
1
 90
2
 40
0.6
 62
7
290
0
291
1
  0
VISUALSTYLE
  5
64
102
{ACAD_REACTORS
330
16
102
}
330
16
100
AcDbVisualStyle
  2
Gouraud
 70
2
 90
2
 40
0.6
 62
7
290
0
291
1
  0
VISUALSTYLE
  5
65
102
{ACAD_REACTORS
330
16
102
}
330
16
100
AcDbVisualStyle
  2
GouraudWithEdges
 70
3
 90
2
 40
0.6
 62
7
290
0
291
1
  0
VISUALSTYLE
  5
66
102
{ACAD_REACTORS
330
16
102
}
330
16
100
AcDbVisualStyle
  2
Hidden
 70
6
 90
1
 40
0.6
 62
7
290
0
291
0
  0
VISUALSTYLE
  5
67
102
{ACAD_REACTORS
330
16
102
}
330
16
100
AcDbVisualStyle
  2
JitterOff
 70
20
 90
2
 40
0.6
 62
7
290
0
291
1
  0
VISUALSTYLE
  5
68
102
{ACAD_REACTORS
330
16
102
}
330
16
100
AcDbVisualStyle
  2
Linepattern
 70
14
 90
2
 40
0.6
 62
7
290
0
291
1
  0
VISUALSTYLE
  5
69
102
{ACAD_REACTORS
330
16
102
}
330
16
100
AcDbVisualStyle
  2
Modeling
 70
10
 90
2
 40
0.6
 62
7
290
0
291
0
  0
VISUALSTYLE
  5
6A
102
{ACAD_REACTORS
330
16
102
}
330
16
100
AcDbVisualStyle
  2
OverhangOff
 70
21
 90
2
 40
0.6
 62
7
290
0
291
1
  0
VISUALSTYLE
  5
6B
102
{ACAD_REACTORS
330
16
102
}
330
16
100
AcDbVisualStyle
  2
Realistic
 70
8
 90
2
 40
0.6
 62
7
290
0
291
0
  0
VISUALSTYLE
  5
6C
102
{ACAD_REACTORS
330
16
102
}
330
16
100
AcDbVisualStyle
  2
Shaded
 70
27
 90
2
 40
0.6
 62
7
290
0
291
0
  0
VISUALSTYLE
  5
6D
102
{ACAD_REACTORS
330
16
102
}
330
16
100
AcDbVisualStyle
  2
Shaded with edges
 70
26
 90
2
 40
0.6
 62
7
290
0
291
0
  0
VISUALSTYLE
  5
6E
102
{ACAD_REACTORS
330
16
102
}
330
16
100
AcDbVisualStyle
  2
Shades of Gray
 70
23
 90
2
 40
0.6
 62
7
290
0
291
0
  0
VISUALSTYLE
  5
6F
102
{ACAD_REACTORS
330
16
102
}
330
16
100
AcDbVisualStyle
  2
Sketchy
 70
24
 90
1
 40
0.6
 62
7
290
0
291
0
  0
VISUALSTYLE
  5
70
102
{ACAD_REACTORS
330
16
102
}
330
16
100
AcDbVisualStyle
  2
Thicken
 70
13
 90
2
 40
0.6
 62
7
290
0
291
1
  0
VISUALSTYLE
  5
71
102
{ACAD_REACTORS
330
16
102
}
330
16
100
AcDbVisualStyle
  2
Wireframe
 70
5
 90
0
 40
0.6
 62
7
290
0
291
0
  0
VISUALSTYLE
  5
72
102
{ACAD_REACTORS
330
16
102
}
330
16
100
AcDbVisualStyle
  2
X-Ray
 70
25
 90
2
 40
0.5
 62
7
290
0
291
0
  0
DICTIONARY
  5
1AE
330
17
100
AcDbDictionary
280
1
281
1
  3
ACAD_SORTENTS
350
1AF
  0
SORTENTSTABLE
  5
1AF
330
1AE
100
AcDbSortentsTable
330
17
331
15B
  5
0
331
15C
  5
0
331
15D
  5
0
331
15E
  5
0
331
15F
  5
0
331
160
  5
0
331
161
  5
0
331
162
  5
0
331
163
  5
0
331
164
  5
0
331
165
  5
0
331
166
  5
0
331
167
  5
0
331
168
  5
0
331
169
  5
0
331
16A
  5
0
331
16B
  5
0
331
16C
  5
0
331
16D
  5
0
331
16E
  5
0
331
16F
  5
0
331
170
  5
0
331
171
  5
0
331
172
  5
0
331
173
  5
0
331
174
  5
0
331
175
  5
0
331
176
  5
0
331
177
  5
0
331
178
  5
0
331
179
  5
0
331
17A
  5
0
331
17B
  5
0
331
17C
  5
0
331
17D
  5
0
331
17E
  5
0
331
17F
  5
0
331
180
  5
0
331
181
  5
0
331
182
  5
0
331
183
  5
0
331
184
  5
0
331
185
  5
0
331
186
  5
0
331
187
  5
0
331
188
  5
0
331
189
  5
0
331
18A
  5
0
331
18B
  5
0
331
18C
  5
0
331
18D
  5
0
331
18E
  5
0
331
18F
  5
0
331
190
  5
0
331
191
  5
0
331
192
  5
0
331
193
  5
0
331
194
  5
0
331
195
  5
0
331
196
  5
0
331
197
  5
0
331
198
  5
0
331
199
  5
0
331
19A
  5
0
331
19B
  5
0
331
19C
  5
0
331
19D
  5
0
331
19E
  5
0
331
19F
  5
0
331
1A0
  5
0
331
1A1
  5
0
331
1A2
  5
0
331
1A3
  5
0
331
1A4
  5
0
331
1A5
  5
0
331
1A6
  5
0
331
1A7
  5
0
331
1A8
  5
0
331
1A9
  5
0
331
1AA
  5
0
331
1AB
  5
0
331
1AC
  5
0
331
1AD
  5
0
  0
DICTIONARYVAR
  5
1B3
330
2D
100
DictionaryVariables
280
0
  1
1.4.4 @ 2026-07-24T08:19:27.584536+00:00
  0
ENDSEC
  0
EOF
