  0
SECTION
  2
HEADER
  9
$ACADVER
  1
AC1024
  9
$ACADMAINTVER
 70
6
  9
$DWGCODEPAGE
  3
ANSI_1252
  9
$LASTSAVEDBY
  1
ezdxf
  9
$INSBASE
 10
0.0
 20
0.0
 30
0.0
  9
$EXTMIN
 10
1e+20
 20
1e+20
 30
1e+20
  9
$EXTMAX
 10
-1e+20
 20
-1e+20
 30
-1e+20
  9
$LIMMIN
 10
0.0
 20
0.0
  9
$LIMMAX
 10
420.0
 20
297.0
  9
$ORTHOMODE
 70
0
  9
$REGENMODE
 70
1
  9
$FILLMODE
 70
1
  9
$QTEXTMODE
 70
0
  9
$MIRRTEXT
 70
1
  9
$LTSCALE
 40
1.0
  9
$ATTMODE
 70
1
  9
$TEXTSIZE
 40
2.5
  9
$TRACEWID
 40
1.0
  9
$TEXTSTYLE
  7
OpenSans
  9
$CLAYER
  8
0
  9
$CELTYPE
  6
ByLayer
  9
$CECOLOR
 62
256
  9
$CELTSCALE
 40
1.0
  9
$DISPSILH
 70
0
  9
$DIMSCALE
 40
1.0
  9
$DIMASZ
 40
0.175
  9
$DIMEXO
 40
0.125
  9
$DIMDLI
 40
3.75
  9
$DIMRND
 40
0.0
  9
$DIMDLE
 40
0.0
  9
$DIMEXE
 40
0.375
  9
$DIMTP
 40
0.0
  9
$DIMTM
 40
0.0
  9
$DIMTXT
 40
0.25
  9
$DIMCEN
 40
2.5
  9
$DIMTSZ
 40
0.0
  9
$DIMTOL
 70
0
  9
$DIMLIM
 70
0
  9
$DIMTIH
 70
0
  9
$DIMTOH
 70
0
  9
$DIMSE1
 70
0
  9
$DIMSE2
 70
0
  9
$DIMTAD
 70
1
  9
$DIMZIN
 70
12
  9
$DIMBLK
  1
ARCHTICK
  9
$DIMASO
 70
1
  9
$DIMSHO
 70
1
  9
$DIMPOST
  1

  9
$DIMAPOST
  1

  9
$DIMALT
 70
0
  9
$DIMALTD
 70
3
  9
$DIMALTF
 40
0.03937007874
  9
$DIMLFAC
 40
100.0
  9
$DIMTOFL
 70
1
  9
$DIMTVP
 40
0.0
  9
$DIMTIX
 70
0
  9
$DIMSOXD
 70
0
  9
$DIMSAH
 70
0
  9
$DIMBLK1
  1

  9
$DIMBLK2
  1

  9
$DIMSTYLE
  2
EZDXF
  9
$DIMCLRD
 70
0
  9
$DIMCLRE
 70
0
  9
$DIMCLRT
 70
0
  9
$DIMTFAC
 40
0.5
  9
$DIMGAP
 40
0.1
  9
$DIMJUST
 70
0
  9
$DIMSD1
 70
0
  9
$DIMSD2
 70
0
  9
$DIMTOLJ
 70
0
  9
$DIMTZIN
 70
8
  9
$DIMALTZ
 70
0
  9
$DIMALTTZ
 70
0
  9
$DIMUPT
 70
1
  9
$DIMDEC
 70
2
  9
$DIMTDEC
 70
2
  9
$DIMALTU
 70
2
  9
$DIMALTTD
 70
3
  9
$DIMTXSTY
  7
OpenSansCondensed-Light
  9
$DIMAUNIT
 70
0
  9
$DIMADEC
 70
2
  9
$DIMALTRND
 40
0.0
  9
$DIMAZIN
 70
3
  9
$DIMDSEP
 70
46
  9
$DIMATFIT
 70
3
  9
$DIMFRAC
 70
0
  9
$DIMLDRBLK
  1

  9
$DIMLUNIT
 70
2
  9
$DIMLWD
 70
-2
  9
$DIMLWE
 70
-2
  9
$DIMTMOVE
 70
2
  9
$DIMFXL
 40
1.0
  9
$DIMFXLON
 70
0
  9
$DIMJOGANG
 40
0.785398163397
  9
$DIMTFILL
 70
0
  9
$DIMTFILLCLR
 70
0
  9
$DIMARCSYM
 70
0
  9
$DIMLTYPE
  6

  9
$DIMLTEX1
  6

  9
$DIMLTEX2
  6

  9
$DIMTXTDIRECTION
 70
0
  9
$LUNITS
 70
2
  9
$LUPREC
 70
4
  9
$SKETCHINC
 40
1.0
  9
$FILLETRAD
 40
10.0
  9
$AUNITS
 70
0
  9
$AUPREC
 70
2
  9
$MENU
  1
.
  9
$ELEVATION
 40
0.0
  9
$PELEVATION
 40
0.0
  9
$THICKNESS
 40
0.0
  9
$LIMCHECK
 70
0
  9
$CHAMFERA
 40
0.0
  9
$CHAMFERB
 40
0.0
  9
$CHAMFERC
 40
0.0
  9
$CHAMFERD
 40
0.0
  9
$SKPOLY
 70
0
  9
$TDCREATE
 40
2461232.3019791665
  9
$TDUCREATE
 40
2458532.153996898
  9
$TDUPDATE
 40
2461232.3019791665
  9
$TDUUPDATE
 40
2458532.1544311
  9
$TDINDWG
 40
0.0
  9
$TDUSRTIMER
 40
0.0
  9
$USRTIMER
 70
1
  9
$ANGBASE
 50
0.0
  9
$ANGDIR
 70
0
  9
$PDMODE
 70
0
  9
$PDSIZE
 40
0.0
  9
$PLINEWID
 40
0.0
  9
$SPLFRAME
 70
0
  9
$SPLINETYPE
 70
6
  9
$SPLINESEGS
 70
8
  9
$HANDSEED
  5
120
  9
$SURFTAB1
 70
6
  9
$SURFTAB2
 70
6
  9
$SURFTYPE
 70
6
  9
$SURFU
 70
6
  9
$SURFV
 70
6
  9
$UCSBASE
  2

  9
$UCSNAME
  2

  9
$UCSORG
 10
0.0
 20
0.0
 30
0.0
  9
$UCSXDIR
 10
1.0
 20
0.0
 30
0.0
  9
$UCSYDIR
 10
0.0
 20
1.0
 30
0.0
  9
$UCSORTHOREF
  2

  9
$UCSORTHOVIEW
 70
0
  9
$UCSORGTOP
 10
0.0
 20
0.0
 30
0.0
  9
$UCSORGBOTTOM
 10
0.0
 20
0.0
 30
0.0
  9
$UCSORGLEFT
 10
0.0
 20
0.0
 30
0.0
  9
$UCSORGRIGHT
 10
0.0
 20
0.0
 30
0.0
  9
$UCSORGFRONT
 10
0.0
 20
0.0
 30
0.0
  9
$UCSORGBACK
 10
0.0
 20
0.0
 30
0.0
  9
$PUCSBASE
  2

  9
$PUCSNAME
  2

  9
$PUCSORG
 10
0.0
 20
0.0
 30
0.0
  9
$PUCSXDIR
 10
1.0
 20
0.0
 30
0.0
  9
$PUCSYDIR
 10
0.0
 20
1.0
 30
0.0
  9
$PUCSORTHOREF
  2

  9
$PUCSORTHOVIEW
 70
0
  9
$PUCSORGTOP
 10
0.0
 20
0.0
 30
0.0
  9
$PUCSORGBOTTOM
 10
0.0
 20
0.0
 30
0.0
  9
$PUCSORGLEFT
 10
0.0
 20
0.0
 30
0.0
  9
$PUCSORGRIGHT
 10
0.0
 20
0.0
 30
0.0
  9
$PUCSORGFRONT
 10
0.0
 20
0.0
 30
0.0
  9
$PUCSORGBACK
 10
0.0
 20
0.0
 30
0.0
  9
$USERI1
 70
0
  9
$USERI2
 70
0
  9
$USERI3
 70
0
  9
$USERI4
 70
0
  9
$USERI5
 70
0
  9
$USERR1
 40
0.0
  9
$USERR2
 40
0.0
  9
$USERR3
 40
0.0
  9
$USERR4
 40
0.0
  9
$USERR5
 40
0.0
  9
$WORLDVIEW
 70
1
  9
$SHADEDGE
 70
3
  9
$SHADEDIF
 70
70
  9
$TILEMODE
 70
1
  9
$MAXACTVP
 70
64
  9
$PINSBASE
 10
0.0
 20
0.0
 30
0.0
  9
$PLIMCHECK
 70
0
  9
$PEXTMIN
 10
1e+20
 20
1e+20
 30
1e+20
  9
$PEXTMAX
 10
-1e+20
 20
-1e+20
 30
-1e+20
  9
$PLIMMIN
 10
0.0
 20
0.0
  9
$PLIMMAX
 10
420.0
 20
297.0
  9
$UNITMODE
 70
0
  9
$VISRETAIN
 70
1
  9
$PLINEGEN
 70
0
  9
$PSLTSCALE
 70
1
  9
$TREEDEPTH
 70
3020
  9
$CMLSTYLE
  2
Standard
  9
$CMLJUST
 70
0
  9
$CMLSCALE
 40
20.0
  9
$PROXYGRAPHICS
 70
1
  9
$MEASUREMENT
 70
1
  9
$CELWEIGHT
370
-1
  9
$ENDCAPS
280
0
  9
$JOINSTYLE
280
0
  9
$LWDISPLAY
290
0
  9
$INSUNITS
 70
4
  9
$HYPERLINKBASE
  1

  9
$STYLESHEET
  1

  9
$XEDIT
290
1
  9
$CEPSNTYPE
380
0
  9
$PSTYLEMODE
290
1
  9
$FINGERPRINTGUID
  2
{6AD6962F-18BD-4AC3-94FB-45A5ABC183C4}
  9
$VERSIONGUID
  2
{5CD58DD2-2F4E-4E9B-B6E9-38A6DCD7FE21}
  9
$EXTNAMES
290
1
  9
$PSVPSCALE
 40
0.0
  9
$OLESTARTUP
290
0
  9
$SORTENTS
280
127
  9
$INDEXCTL
280
0
  9
$HIDETEXT
280
1
  9
$XCLIPFRAME
280
1
  9
$HALOGAP
280
0
  9
$OBSCOLOR
 70
257
  9
$OBSLTYPE
280
0
  9
$INTERSECTIONDISPLAY
280
0
  9
$INTERSECTIONCOLOR
 70
257
  9
$DIMASSOC
280
2
  9
$PROJECTNAME
  1

  9
$CAMERADISPLAY
290
0
  9
$LENSLENGTH
 40
50.0
  9
$CAMERAHEIGHT
 40
0.0
  9
$STEPSPERSEC
 40
24.0
  9
$STEPSIZE
 40
100.0
  9
$3DDWFPREC
 40
2.0
  9
$PSOLWIDTH
 40
0.005
  9
$PSOLHEIGHT
 40
0.08
  9
$LOFTANG1
 40
1.570796326795
  9
$LOFTANG2
 40
1.570796326795
  9
$LOFTMAG1
 40
0.0
  9
$LOFTMAG2
 40
0.0
  9
$LOFTPARAM
 70
7
  9
$LOFTNORMALS
280
1
  9
$LATITUDE
 40
37.795
  9
$LONGITUDE
 40
-122.394
  9
$NORTHDIRECTION
 40
0.0
  9
$TIMEZONE
 70
-8000
  9
$LIGHTGLYPHDISPLAY
280
1
  9
$TILEMODELIGHTSYNCH
280
1
  9
$CMATERIAL
347
20
  9
$SOLIDHIST
280
0
  9
$SHOWHIST
280
1
  9
$DWFFRAME
280
2
  9
$DGNFRAME
280
2
  9
$REALWORLDSCALE
290
1
  9
$INTERFERECOLOR
 62
256
  9
$CSHADOW
280
0
  9
$SHADOWPLANELOCATION
 40
0.0
  0
ENDSEC
  0
SECTION
  2
CLASSES
  0
CLASS
  1
ACDBDICTIONARYWDFLT
  2
AcDbDictionaryWithDefault
  3
ObjectDBX Classes
 90
0
 91
0
280
0
281
0
  0
CLASS
  1
SUN
  2
AcDbSun
  3
SCENEOE
 90
1153
 91
0
280
0
281
0
  0
CLASS
  1
VISUALSTYLE
  2
AcDbVisualStyle
  3
ObjectDBX Classes
 90
4095
 91
0
280
0
281
0
  0
CLASS
  1
MATERIAL
  2
AcDbMaterial
  3
ObjectDBX Classes
 90
1153
 91
0
280
0
281
0
  0
CLASS
  1
SCALE
  2
AcDbScale
  3
ObjectDBX Classes
 90
1153
 91
0
280
0
281
0
  0
CLASS
  1
TABLESTYLE
  2
AcDbTableStyle
  3
ObjectDBX Classes
 90
4095
 91
0
280
0
281
0
  0
CLASS
  1
MLEADERSTYLE
  2
AcDbMLeaderStyle
  3
ACDB_MLEADERSTYLE_CLASS
 90
4095
 91
0
280
0
281
0
  0
CLASS
  1
DICTIONARYVAR
  2
AcDbDictionaryVar
  3
ObjectDBX Classes
 90
0
 91
0
280
0
281
0
  0
CLASS
  1
CELLSTYLEMAP
  2
AcDbCellStyleMap
  3
ObjectDBX Classes
 90
1152
 91
0
280
0
281
0
  0
CLASS
  1
MENTALRAYRENDERSETTINGS
  2
AcDbMentalRayRenderSettings
  3
SCENEOE
 90
1024
 91
0
280
0
281
0
  0
CLASS
  1
ACDBDETAILVIEWSTYLE
  2
AcDbDetailViewStyle
  3
ObjectDBX Classes
 90
1025
 91
0
280
0
281
0
  0
CLASS
  1
ACDBSECTIONVIEWSTYLE
  2
AcDbSectionViewStyle
  3
ObjectDBX Classes
 90
1025
 91
0
280
0
281
0
  0
CLASS
  1
RASTERVARIABLES
  2
AcDbRasterVariables
  3
ISM
 90
0
 91
0
280
0
281
0
  0
CLASS
  1
LAYOUT
  2
AcDbLayout
  3
ObjectDBX Classes
 90
0
 91
0
280
0
281
0
  0
CLASS
  1
ACDBPLACEHOLDER
  2
AcDbPlaceHolder
  3
ObjectDBX Classes
 90
0
 91
0
280
0
281
0
  0
ENDSEC
  0
SECTION
  2
TABLES
  0
TABLE
  2
VPORT
  5
8
330
0
100
AcDbSymbolTable
 70
1
  0
VPORT
  5
23
330
8
100
AcDbSymbolTableRecord
100
AcDbViewportTableRecord
  2
*Active
 70
0
 10
0.0
 20
0.0
 11
1.0
 21
1.0
 12
0.0
 22
0.0
 13
0.0
 23
0.0
 14
0.5
 24
0.5
 15
0.5
 25
0.5
 16
0.0
 26
0.0
 36
1.0
 17
0.0
 27
0.0
 37
0.0
 40
1000.0
 41
1.34
 42
50.0
 43
0.0
 44
0.0
 50
0.0
 51
0.0
 71
0
 72
1000
 73
1
 74
3
 75
0
 76
0
 77
0
 78
0
281
0
 65
0
146
0.0
  0
ENDTAB
  0
TABLE
  2
LTYPE
  5
2
330
0
100
AcDbSymbolTable
 70
21
  0
LTYPE
  5
24
330
2
100
AcDbSymbolTableRecord
100
AcDbLinetypeTableRecord
  2
ByBlock
 70
0
  3

 72
65
 73
0
 40
0.0
  0
LTYPE
  5
25
330
2
100
AcDbSymbolTableRecord
100
AcDbLinetypeTableRecord
  2
ByLayer
 70
0
  3

 72
65
 73
0
 40
0.0
  0
LTYPE
  5
26
330
2
100
AcDbSymbolTableRecord
100
AcDbLinetypeTableRecord
  2
Continuous
 70
0
  3

 72
65
 73
0
 40
0.0
  0
LTYPE
  5
2F
330
2
100
AcDbSymbolTableRecord
100
AcDbLinetypeTableRecord
  2
CENTER
 70
0
  3
Center ____ _ ____ _ ____ _ ____ _ ____ _ ____
 72
65
 73
4
 40
5.08
 49
3.175
 74
0
 49
-0.635
 74
0
 49
0.635
 74
0
 49
-0.635
 74
0
  0
LTYPE
  5
30
330
2
100
AcDbSymbolTableRecord
100
AcDbLinetypeTableRecord
  2
CENTERX2
 70
0
  3
Center (2x) ________  __  ________  __  ________
 72
65
 73
4
 40
8.89
 49
6.35
 74
0
 49
-0.635
 74
0
 49
1.27
 74
0
 49
-0.635
 74
0
  0
LTYPE
  5
31
330
2
100
AcDbSymbolTableRecord
100
AcDbLinetypeTableRecord
  2
CENTER2
 70
0
  3
Center (.5x) ____ _ ____ _ ____ _ ____ _ ____
 72
65
 73
4
 40
2.54
 49
1.587
 74
0
 49
-0.318
 74
0
 49
0.318
 74
0
 49
-0.318
 74
0
  0
LTYPE
  5
32
330
2
100
AcDbSymbolTableRecord
100
AcDbLinetypeTableRecord
  2
DASHED
 70
0
  3
Dashed __ __ __ __ __ __ __ __ __ __ __ __ __ _
 72
65
 73
2
 40
1.524
 49
1.27
 74
0
 49
-0.254
 74
0
  0
LTYPE
  5
33
330
2
100
AcDbSymbolTableRecord
100
AcDbLinetypeTableRecord
  2
DASHEDX2
 70
0
  3
Dashed (2x) ____  ____  ____  ____  ____  ____
 72
65
 73
2
 40
3.048
 49
2.54
 74
0
 49
-0.508
 74
0
  0
LTYPE
  5
34
330
2
100
AcDbSymbolTableRecord
100
AcDbLinetypeTableRecord
  2
DASHED2
 70
0
  3
Dashed (.5x) _ _ _ _ _ _ _ _ _ _ _ _ _ _
 72
65
 73
2
 40
0.762
 49
0.635
 74
0
 49
-0.127
 74
0
  0
LTYPE
  5
35
330
2
100
AcDbSymbolTableRecord
100
AcDbLinetypeTableRecord
  2
PHANTOM
 70
0
  3
Phantom ______  __  __  ______  __  __  ______
 72
65
 73
6
 40
6.35
 49
3.175
 74
0
 49
-0.635
 74
0
 49
0.635
 74
0
 49
-0.635
 74
0
 49
0.635
 74
0
 49
-0.635
 74
0
  0
LTYPE
  5
36
330
2
100
AcDbSymbolTableRecord
100
AcDbLinetypeTableRecord
  2
PHANTOMX2
 70
0
  3
Phantom (2x)____________    ____    ____    ____________
 72
65
 73
6
 40
10.795
 49
6.35
 74
0
 49
-0.635
 74
0
 49
1.27
 74
0
 49
-0.635
 74
0
 49
1.27
 74
0
 49
-0.635
 74
0
  0
LTYPE
  5
37
330
2
100
AcDbSymbolTableRecord
100
AcDbLinetypeTableRecord
  2
PHANTOM2
 70
0
  3
Phantom (.5x) ___ _ _ ___ _ _ ___ _ _ ___ _ _ ___
 72
65
 73
6
 40
3.175
 49
1.587
 74
0
 49
-0.318
 74
0
 49
0.318
 74
0
 49
-0.318
 74
0
 49
0.318
 74
0
 49
-0.318
 74
0
  0
LTYPE
  5
38
330
2
100
AcDbSymbolTableRecord
100
AcDbLinetypeTableRecord
  2
DASHDOT
 70
0
  3
Dash dot __ . __ . __ . __ . __ . __ . __ . __
 72
65
 73
4
 40
3.556
 49
2.54
 74
0
 49
-0.508
 74
0
 49
0.0
 74
0
 49
-0.508
 74
0
  0
LTYPE
  5
39
330
2
100
AcDbSymbolTableRecord
100
AcDbLinetypeTableRecord
  2
DASHDOTX2
 70
0
  3
Dash dot (2x) ____  .  ____  .  ____  .  ____
 72
65
 73
4
 40
6.096
 49
5.08
 74
0
 49
-0.508
 74
0
 49
0.0
 74
0
 49
-0.508
 74
0
  0
LTYPE
  5
3A
330
2
100
AcDbSymbolTableRecord
100
AcDbLinetypeTableRecord
  2
DASHDOT2
 70
0
  3
Dash dot (.5x) _ . _ . _ . _ . _ . _ . _ . _
 72
65
 73
4
 40
1.778
 49
1.27
 74
0
 49
-0.254
 74
0
 49
0.0
 74
0
 49
-0.254
 74
0
  0
LTYPE
  5
3B
330
2
100
AcDbSymbolTableRecord
100
AcDbLinetypeTableRecord
  2
DOT
 70
0
  3
Dot .  .  .  .  .  .  .  .  .  .  .  .  .  .  .  .
 72
65
 73
2
 40
0.508
 49
0.0
 74
0
 49
-0.508
 74
0
  0
LTYPE
  5
3C
330
2
100
AcDbSymbolTableRecord
100
AcDbLinetypeTableRecord
  2
DOTX2
 70
0
  3
Dot (2x) .    .    .    .    .    .    .    . 
 72
65
 73
2
 40
1.016
 49
0.0
 74
0
 49
-1.016
 74
0
  0
LTYPE
  5
3D
330
2
100
AcDbSymbolTableRecord
100
AcDbLinetypeTableRecord
  2
DOT2
 70
0
  3
Dot (.5) . . . . . . . . . . . . . . . . . . . 
 72
65
 73
2
 40
0.254
 49
0.0
 74
0
 49
-0.254
 74
0
  0
LTYPE
  5
3E
330
2
100
AcDbSymbolTableRecord
100
AcDbLinetypeTableRecord
  2
DIVIDE
 70
0
  3
Divide __ . . __ . . __ . . __ . . __ . . __
 72
65
 73
6
 40
4.064
 49
2.54
 74
0
 49
-0.508
 74
0
 49
0.0
 74
0
 49
-0.508
 74
0
 49
0.0
 74
0
 49
-0.508
 74
0
  0
LTYPE
  5
3F
330
2
100
AcDbSymbolTableRecord
100
AcDbLinetypeTableRecord
  2
DIVIDEX2
 70
0
  3
Divide (2x) ____  . .  ____  . .  ____  . .  ____
 72
65
 73
6
 40
6.604
 49
5.08
 74
0
 49
-0.508
 74
0
 49
0.0
 74
0
 49
-0.508
 74
0
 49
0.0
 74
0
 49
-0.508
 74
0
  0
LTYPE
  5
40
330
2
100
AcDbSymbolTableRecord
100
AcDbLinetypeTableRecord
  2
DIVIDE2
 70
0
  3
Divide(.5x) _ . _ . _ . _ . _ . _ . _ . _
 72
65
 73
6
 40
2.032
 49
1.27
 74
0
 49
-0.254
 74
0
 49
0.0
 74
0
 49
-0.254
 74
0
 49
0.0
 74
0
 49
-0.254
 74
0
  0
ENDTAB
  0
TABLE
  2
LAYER
  5
1
330
0
100
AcDbSymbolTable
 70
7
  0
LAYER
  5
27
330
1
100
AcDbSymbolTableRecord
100
AcDbLayerTableRecord
  2
0
 70
0
 62
7
  6
Continuous
370
-3
390
13
347
21
  0
LAYER
  5
28
330
1
100
AcDbSymbolTableRecord
100
AcDbLayerTableRecord
  2
Defpoints
 70
0
 62
7
  6
Continuous
290
0
370
-3
390
13
347
21
  0
LAYER
  5
8A
330
1
100
AcDbSymbolTableRecord
100
AcDbLayerTableRecord
  2
OUTLINE
 70
0
 62
1
  6
Continuous
370
50
390
13
347
21
  0
LAYER
  5
8B
330
1
100
AcDbSymbolTableRecord
100
AcDbLayerTableRecord
  2
WALL_OR_FRAME
 70
0
 62
3
  6
Continuous
370
25
390
13
347
21
  0
LAYER
  5
8C
330
1
100
AcDbSymbolTableRecord
100
AcDbLayerTableRecord
  2
GRID_OR_AXIS
 70
0
 62
5
  6
Continuous
370
13
390
13
347
21
  0
LAYER
  5
8D
330
1
100
AcDbSymbolTableRecord
100
AcDbLayerTableRecord
  2
HATCH
 70
0
 62
6
  6
Continuous
370
9
390
13
347
21
  0
LAYER
  5
8E
330
1
100
AcDbSymbolTableRecord
100
AcDbLayerTableRecord
  2
DETAIL
 70
0
 62
7
  6
Continuous
370
9
390
13
347
21
  0
ENDTAB
  0
TABLE
  2
STYLE
  5
5
330
0
100
AcDbSymbolTable
 70
26
  0
STYLE
  5
29
330
5
100
AcDbSymbolTableRecord
100
AcDbTextStyleTableRecord
  2
Standard
 70
0
 40
0.0
 41
1.0
 50
0.0
 71
0
 42
2.5
  3
txt
  4

  0
STYLE
  5
41
330
5
100
AcDbSymbolTableRecord
100
AcDbTextStyleTableRecord
  2
OpenSans-Light
 70
0
 40
0.0
 41
1.0
 50
0.0
 71
0
 42
2.5
  3
OpenSans-Light.ttf
  4

  0
STYLE
  5
42
330
5
100
AcDbSymbolTableRecord
100
AcDbTextStyleTableRecord
  2
OpenSans-Light-Italic
 70
0
 40
0.0
 41
1.0
 50
0.0
 71
0
 42
2.5
  3
OpenSans-LightItalic.ttf
  4

  0
STYLE
  5
43
330
5
100
AcDbSymbolTableRecord
100
AcDbTextStyleTableRecord
  2
OpenSans
 70
0
 40
0.0
 41
1.0
 50
0.0
 71
0
 42
2.5
  3
OpenSans-Regular.ttf
  4

  0
STYLE
  5
44
330
5
100
AcDbSymbolTableRecord
100
AcDbTextStyleTableRecord
  2
OpenSans-Italic
 70
0
 40
0.0
 41
1.0
 50
0.0
 71
0
 42
2.5
  3
OpenSans-Italic.ttf
  4

  0
STYLE
  5
45
330
5
100
AcDbSymbolTableRecord
100
AcDbTextStyleTableRecord
  2
OpenSans-SemiBold
 70
0
 40
0.0
 41
1.0
 50
0.0
 71
0
 42
2.5
  3
OpenSans-SemiBold.ttf
  4

  0
STYLE
  5
46
330
5
100
AcDbSymbolTableRecord
100
AcDbTextStyleTableRecord
  2
OpenSans-SemiBoldItalic
 70
0
 40
0.0
 41
1.0
 50
0.0
 71
0
 42
2.5
  3
OpenSans-SemiBoldItalic.ttf
  4

  0
STYLE
  5
47
330
5
100
AcDbSymbolTableRecord
100
AcDbTextStyleTableRecord
  2
OpenSans-Bold
 70
0
 40
0.0
 41
1.0
 50
0.0
 71
0
 42
2.5
  3
OpenSans-Bold.ttf
  4

  0
STYLE
  5
48
330
5
100
AcDbSymbolTableRecord
100
AcDbTextStyleTableRecord
  2
OpenSans-BoldItalic
 70
0
 40
0.0
 41
1.0
 50
0.0
 71
0
 42
2.5
  3
OpenSans-BoldItalic.ttf
  4

  0
STYLE
  5
49
330
5
100
AcDbSymbolTableRecord
100
AcDbTextStyleTableRecord
  2
OpenSans-ExtraBold
 70
0
 40
0.0
 41
1.0
 50
0.0
 71
0
 42
2.5
  3
OpenSans-ExtraBold.ttf
  4

  0
STYLE
  5
4A
330
5
100
AcDbSymbolTableRecord
100
AcDbTextStyleTableRecord
  2
OpenSans-ExtraBoldItalic
 70
0
 40
0.0
 41
1.0
 50
0.0
 71
0
 42
2.5
  3
OpenSans-ExtraBoldItalic.ttf
  4

  0
STYLE
  5
4B
330
5
100
AcDbSymbolTableRecord
100
AcDbTextStyleTableRecord
  2
OpenSansCondensed-Bold
 70
0
 40
0.0
 41
1.0
 50
0.0
 71
0
 42
2.5
  3
OpenSansCondensed-Bold.ttf
  4

  0
STYLE
  5
4C
330
5
100
AcDbSymbolTableRecord
100
AcDbTextStyleTableRecord
  2
OpenSansCondensed-Light
 70
0
 40
0.0
 41
1.0
 50
0.0
 71
0
 42
2.5
  3
OpenSansCondensed-Light.ttf
  4

  0
STYLE
  5
4D
330
5
100
AcDbSymbolTableRecord
100
AcDbTextStyleTableRecord
  2
OpenSansCondensed-Italic
 70
0
 40
0.0
 41
1.0
 50
0.0
 71
0
 42
2.5
  3
OpenSansCondensed-LightItalic.ttf
  4

  0
STYLE
  5
4E
330
5
100
AcDbSymbolTableRecord
100
AcDbTextStyleTableRecord
  2
LiberationSans
 70
0
 40
0.0
 41
1.0
 50
0.0
 71
0
 42
2.5
  3
LiberationSans-Regular.ttf
  4

  0
STYLE
  5
4F
330
5
100
AcDbSymbolTableRecord
100
AcDbTextStyleTableRecord
  2
LiberationSans-Bold
 70
0
 40
0.0
 41
1.0
 50
0.0
 71
0
 42
2.5
  3
LiberationSans-Bold.ttf
  4

  0
STYLE
  5
50
330
5
100
AcDbSymbolTableRecord
100
AcDbTextStyleTableRecord
  2
LiberationSans-BoldItalic
 70
0
 40
0.0
 41
1.0
 50
0.0
 71
0
 42
2.5
  3
LiberationSans-BoldItalic.ttf
  4

  0
STYLE
  5
51
330
5
100
AcDbSymbolTableRecord
100
AcDbTextStyleTableRecord
  2
LiberationSans-Italic
 70
0
 40
0.0
 41
1.0
 50
0.0
 71
0
 42
2.5
  3
LiberationSans-Italic.ttf
  4

  0
STYLE
  5
52
330
5
100
AcDbSymbolTableRecord
100
AcDbTextStyleTableRecord
  2
LiberationSerif
 70
0
 40
0.0
 41
1.0
 50
0.0
 71
0
 42
2.5
  3
LiberationSerif-Regular.ttf
  4

  0
STYLE
  5
53
330
5
100
AcDbSymbolTableRecord
100
AcDbTextStyleTableRecord
  2
LiberationSerif-Bold
 70
0
 40
0.0
 41
1.0
 50
0.0
 71
0
 42
2.5
  3
LiberationSerif-Bold.ttf
  4

  0
STYLE
  5
54
330
5
100
AcDbSymbolTableRecord
100
AcDbTextStyleTableRecord
  2
LiberationSerif-BoldItalic
 70
0
 40
0.0
 41
1.0
 50
0.0
 71
0
 42
2.5
  3
LiberationSerif-BoldItalic.ttf
  4

  0
STYLE
  5
55
330
5
100
AcDbSymbolTableRecord
100
AcDbTextStyleTableRecord
  2
LiberationSerif-Italic
 70
0
 40
0.0
 41
1.0
 50
0.0
 71
0
 42
2.5
  3
LiberationSerif-Italic.ttf
  4

  0
STYLE
  5
56
330
5
100
AcDbSymbolTableRecord
100
AcDbTextStyleTableRecord
  2
LiberationMono
 70
0
 40
0.0
 41
1.0
 50
0.0
 71
0
 42
2.5
  3
LiberationMono-Regular.ttf
  4

  0
STYLE
  5
57
330
5
100
AcDbSymbolTableRecord
100
AcDbTextStyleTableRecord
  2
LiberationMono-Bold
 70
0
 40
0.0
 41
1.0
 50
0.0
 71
0
 42
2.5
  3
LiberationMono-Bold.ttf
  4

  0
STYLE
  5
58
330
5
100
AcDbSymbolTableRecord
100
AcDbTextStyleTableRecord
  2
LiberationMono-BoldItalic
 70
0
 40
0.0
 41
1.0
 50
0.0
 71
0
 42
2.5
  3
LiberationMono-BoldItalic.ttf
  4

  0
STYLE
  5
59
330
5
100
AcDbSymbolTableRecord
100
AcDbTextStyleTableRecord
  2
LiberationMono-Italic
 70
0
 40
0.0
 41
1.0
 50
0.0
 71
0
 42
2.5
  3
LiberationMono-Italic.ttf
  4

  0
ENDTAB
  0
TABLE
  2
VIEW
  5
7
330
0
100
AcDbSymbolTable
 70
0
  0
ENDTAB
  0
TABLE
  2
UCS
  5
6
330
0
100
AcDbSymbolTable
 70
0
  0
ENDTAB
  0
TABLE
  2
APPID
  5
3
330
0
100
AcDbSymbolTable
 70
3
  0
APPID
  5
2A
330
3
100
AcDbSymbolTableRecord
100
AcDbRegAppTableRecord
  2
ACAD
 70
0
  0
APPID
  5
11D
330
3
100
AcDbSymbolTableRecord
100
AcDbRegAppTableRecord
  2
HATCHBACKGROUNDCOLOR
 70
0
  0
APPID
  5
11E
330
3
100
AcDbSymbolTableRecord
100
AcDbRegAppTableRecord
  2
EZDXF
 70
0
  0
ENDTAB
  0
TABLE
  2
DIMSTYLE
  5
4
330
0
100
AcDbSymbolTable
 70
12
100
AcDbDimStyleTable
  0
DIMSTYLE
105
2B
330
4
100
AcDbSymbolTableRecord
100
AcDbDimStyleTableRecord
  2
Standard
 70
0
 40
1.0
 41
2.5
 42
0.625
 43
3.75
 44
1.25
 45
0.0
 46
0.0
 47
0.0
 48
0.0
 49
2.5
140
2.5
141
2.5
142
0.0
143
0.03937007874
144
1.0
145
0.0
146
1.0
147
0.625
148
0.0
 69
0
 70
0
 71
0
 72
0
 73
0
 74
0
 75
0
 76
0
 77
1
 78
8
 79
3
170
0
171
3
172
1
173
0
174
0
175
0
176
0
177
0
178
0
179
2
271
2
272
2
273
2
274
3
275
0
276
0
277
2
278
44
279
0
280
0
281
0
282
0
283
0
284
8
285
0
286
0
288
0
289
3
290
0
371
-2
372
-2
  0
DIMSTYLE
105
73
330
4
100
AcDbSymbolTableRecord
100
AcDbDimStyleTableRecord
  2
EZDXF
 70
0
 40
1.0
 41
0.175
 42
0.125
 43
3.75
 44
0.375
 45
0.0
 46
0.0
 47
0.0
 48
0.0
 49
2.5
140
0.25
141
2.5
142
0.0
143
0.03937007874
144
100.0
145
0.0
146
0.5
147
0.1
148
0.0
 69
0
 70
0
 71
0
 72
0
 73
0
 74
0
 75
0
 76
0
 77
1
 78
12
 79
3
170
0
171
3
172
1
173
0
174
0
175
0
176
0
177
0
178
0
179
2
271
2
272
2
273
2
274
3
275
0
276
0
277
2
278
46
279
2
280
0
281
0
282
0
283
0
284
8
285
0
286
0
288
1
289
3
290
0
340
4C
342
74
371
-2
372
-2
  0
DIMSTYLE
105
7C
330
4
100
AcDbSymbolTableRecord
100
AcDbDimStyleTableRecord
  2
EZ_M_100_H25_CM
 70
0
 40
1.0
 41
0.25
 42
0.125
 43
3.75
 44
0.375
 45
0.0
 46
0.0
 47
0.0
 48
0.0
 49
2.5
140
0.25
141
2.5
142
0.125
143
0.03937007874
144
100.0
145
0.0
146
0.5
147
0.1
148
0.0
 69
0
 70
0
 71
0
 72
0
 73
0
 74
0
 75
0
 76
0
 77
1
 78
12
 79
3
170
0
171
3
172
1
173
0
174
0
175
0
176
0
177
0
178
0
179
2
271
2
272
2
273
2
274
3
275
0
276
0
277
2
278
46
279
2
280
0
281
0
282
0
283
0
284
8
285
0
286
0
288
1
289
3
290
0
340
4C
371
-2
372
-2
  0
DIMSTYLE
105
7D
330
4
100
AcDbSymbolTableRecord
100
AcDbDimStyleTableRecord
  2
EZ_M_50_H25_CM
 70
0
 40
1.0
 41
0.125
 42
0.0625
 43
3.75
 44
0.1875
 45
0.0
 46
0.0
 47
0.0
 48
0.0
 49
2.5
140
0.125
141
2.5
142
0.0625
143
0.03937007874
144
100.0
145
0.0
146
0.5
147
0.05
148
0.0
 69
0
 70
0
 71
0
 72
0
 73
0
 74
0
 75
0
 76
0
 77
1
 78
12
 79
3
170
0
171
3
172
1
173
0
174
0
175
0
176
0
177
0
178
0
179
2
271
2
272
2
273
2
274
3
275
0
276
0
277
2
278
46
279
2
280
0
281
0
282
0
283
0
284
8
285
0
286
0
288
1
289
3
290
0
340
4C
371
-2
372
-2
  0
DIMSTYLE
105
7E
330
4
100
AcDbSymbolTableRecord
100
AcDbDimStyleTableRecord
  2
EZ_M_25_H25_CM
 70
0
 40
1.0
 41
0.0625
 42
0.03125
 43
3.75
 44
0.09375
 45
0.0
 46
0.0
 47
0.0
 48
0.0
 49
2.5
140
0.0625
141
2.5
142
0.03125
143
0.03937007874
144
100.0
145
0.0
146
0.5
147
0.025
148
0.0
 69
0
 70
0
 71
0
 72
0
 73
0
 74
0
 75
0
 76
0
 77
1
 78
12
 79
3
170
0
171
3
172
1
173
0
174
0
175
0
176
0
177
0
178
0
179
2
271
2
272
2
273
2
274
3
275
0
276
0
277
2
278
46
279
2
280
0
281
0
282
0
283
0
284
8
285
0
286
0
288
1
289
3
290
0
340
4C
371
-2
372
-2
  0
DIMSTYLE
105
7F
330
4
100
AcDbSymbolTableRecord
100
AcDbDimStyleTableRecord
  2
EZ_M_20_H25_CM
 70
0
 40
1.0
 41
0.05
 42
0.025
 43
3.75
 44
0.07500000000000001
 45
0.0
 46
0.0
 47
0.0
 48
0.0
 49
2.5
140
0.05
141
2.5
142
0.025
143
0.03937007874
144
100.0
145
0.0
146
0.5
147
0.020000000000000004
148
0.0
 69
0
 70
0
 71
0
 72
0
 73
0
 74
0
 75
0
 76
0
 77
1
 78
12
 79
3
170
0
171
3
172
1
173
0
174
0
175
0
176
0
177
0
178
0
179
2
271
2
272
2
273
2
274
3
275
0
276
0
277
2
278
46
279
2
280
0
281
0
282
0
283
0
284
8
285
0
286
0
288
1
289
3
290
0
340
4C
371
-2
372
-2
  0
DIMSTYLE
105
80
330
4
100
AcDbSymbolTableRecord
100
AcDbDimStyleTableRecord
  2
EZ_M_10_H25_CM
 70
0
 40
1.0
 41
0.025
 42
0.0125
 43
3.75
 44
0.037500000000000006
 45
0.0
 46
0.0
 47
0.0
 48
0.0
 49
2.5
140
0.025
141
2.5
142
0.0125
143
0.03937007874
144
100.0
145
0.0
146
0.5
147
0.010000000000000002
148
0.0
 69
0
 70
0
 71
0
 72
0
 73
0
 74
0
 75
0
 76
0
 77
1
 78
12
 79
3
170
0
171
3
172
1
173
0
174
0
175
0
176
0
177
0
178
0
179
2
271
2
272
2
273
2
274
3
275
0
276
0
277
2
278
46
279
2
280
0
281
0
282
0
283
0
284
8
285
0
286
0
288
1
289
3
290
0
340
4C
371
-2
372
-2
  0
DIMSTYLE
105
81
330
4
100
AcDbSymbolTableRecord
100
AcDbDimStyleTableRecord
  2
EZ_M_5_H25_CM
 70
0
 40
1.0
 41
0.0125
 42
0.00625
 43
3.75
 44
0.018750000000000003
 45
0.0
 46
0.0
 47
0.0
 48
0.0
 49
2.5
140
0.0125
141
2.5
142
0.00625
143
0.03937007874
144
100.0
145
0.0
146
0.5
147
0.005000000000000001
148
0.0
 69
0
 70
0
 71
0
 72
0
 73
0
 74
0
 75
0
 76
0
 77
1
 78
12
 79
3
170
0
171
3
172
1
173
0
174
0
175
0
176
0
177
0
178
0
179
2
271
2
272
2
273
2
274
3
275
0
276
0
277
2
278
46
279
2
280
0
281
0
282
0
283
0
284
8
285
0
286
0
288
1
289
3
290
0
340
4C
371
-2
372
-2
  0
DIMSTYLE
105
82
330
4
100
AcDbSymbolTableRecord
100
AcDbDimStyleTableRecord
  2
EZ_M_1_H25_CM
 70
0
 40
1.0
 41
0.0025
 42
0.00125
 43
3.75
 44
0.00375
 45
0.0
 46
0.0
 47
0.0
 48
0.0
 49
2.5
140
0.0025
141
2.5
142
0.00125
143
0.03937007874
144
100.0
145
0.0
146
0.5
147
0.001
148
0.0
 69
0
 70
0
 71
0
 72
0
 73
0
 74
0
 75
0
 76
0
 77
1
 78
12
 79
3
170
0
171
3
172
1
173
0
174
0
175
0
176
0
177
0
178
0
179
2
271
2
272
2
273
2
274
3
275
0
276
0
277
2
278
46
279
2
280
0
281
0
282
0
283
0
284
8
285
0
286
0
288
1
289
3
290
0
340
4C
371
-2
372
-2
  0
DIMSTYLE
105
83
330
4
100
AcDbSymbolTableRecord
100
AcDbDimStyleTableRecord
  2
EZ_RADIUS
 70
0
 40
1.0
 41
0.25
 42
0.125
 43
3.75
 44
0.375
 45
0.0
 46
0.0
 47
0.0
 48
0.0
 49
2.5
140
0.25
141
0.0
142
0.0
143
0.03937007874
144
100.0
145
0.0
146
0.5
147
0.1
148
0.0
 69
0
 70
0
 71
0
 72
0
 73
0
 74
0
 75
0
 76
0
 77
1
 78
12
 79
3
170
0
171
3
172
0
173
0
174
0
175
0
176
0
177
0
178
0
179
2
271
2
272
2
273
2
274
3
275
0
276
0
277
2
278
46
279
1
280
0
281
0
282
0
283
0
284
8
285
0
286
0
288
1
289
3
290
0
340
4C
342
84
371
-2
372
-2
  0
DIMSTYLE
105
88
330
4
100
AcDbSymbolTableRecord
100
AcDbDimStyleTableRecord
  2
EZ_RADIUS_INSIDE
 70
0
 40
1.0
 41
0.25
 42
0.125
 43
3.75
 44
0.375
 45
0.0
 46
0.0
 47
0.0
 48
0.0
 49
2.5
140
0.25
141
0.0
142
0.0
143
0.03937007874
144
100.0
145
0.0
146
0.5
147
0.1
148
0.0
 69
0
 70
0
 71
0
 72
0
 73
0
 74
0
 75
0
 76
0
 77
0
 78
12
 79
3
170
0
171
3
172
0
173
0
174
1
175
0
176
0
177
0
178
0
179
2
271
2
272
2
273
2
274
3
275
0
276
0
277
2
278
46
279
0
280
0
281
0
282
0
283
0
284
8
285
0
286
0
288
1
289
0
290
0
340
4C
342
84
371
-2
372
-2
  0
DIMSTYLE
105
89
330
4
100
AcDbSymbolTableRecord
100
AcDbDimStyleTableRecord
  2
EZ_CURVED
 70
0
 40
1.0
 41
0.25
 42
0.125
 43
3.75
 44
0.375
 45
0.0
 46
0.0
 47
0.0
 48
0.0
 49
2.5
140
0.25
141
2.5
142
0.0
143
0.03937007874
144
100.0
145
0.0
146
0.5
147
0.1
148
0.0
 69
0
 70
0
 71
0
 72
0
 73
0
 74
0
 75
0
 76
0
 77
1
 78
12
 79
2
 90
2
170
0
171
3
172
1
173
0
174
0
175
0
176
0
177
0
178
0
179
2
271
2
272
2
273
2
274
3
275
0
276
0
277
2
278
46
279
2
280
0
281
0
282
0
283
0
284
8
285
0
286
0
288
1
289
3
290
0
340
4C
371
-2
372
-2
  0
ENDTAB
  0
TABLE
  2
BLOCK_RECORD
  5
9
330
0
100
AcDbSymbolTable
 70
5
  0
BLOCK_RECORD
  5
17
330
9
100
AcDbSymbolTableRecord
100
AcDbBlockTableRecord
  2
*Model_Space
340
1A
 70
0
280
1
281
0
  0
BLOCK_RECORD
  5
1B
330
9
100
AcDbSymbolTableRecord
100
AcDbBlockTableRecord
  2
*Paper_Space
340
1E
 70
0
280
1
281
0
  0
BLOCK_RECORD
  5
74
330
9
100
AcDbSymbolTableRecord
100
AcDbBlockTableRecord
  2
_ARCHTICK
340
0
 70
0
280
1
281
0
  0
BLOCK_RECORD
  5
78
330
9
100
AcDbSymbolTableRecord
100
AcDbBlockTableRecord
  2
_CLOSEDFILLED
340
0
 70
0
280
1
281
0
  0
BLOCK_RECORD
  5
84
330
9
100
AcDbSymbolTableRecord
100
AcDbBlockTableRecord
  2
_CLOSEDBLANK
340
0
 70
0
280
1
281
0
  0
ENDTAB
  0
ENDSEC
  0
SECTION
  2
BLOCKS
  0
BLOCK
  5
18
330
17
100
AcDbEntity
  8
0
100
AcDbBlockBegin
  2
*Model_Space
 70
0
 10
0.0
 20
0.0
 30
0.0
  3
*Model_Space
  1

  0
ENDBLK
  5
19
330
17
100
AcDbEntity
  8
0
100
AcDbBlockEnd
  0
BLOCK
  5
1C
330
1B
100
AcDbEntity
  8
0
100
AcDbBlockBegin
  2
*Paper_Space
 70
0
 10
0.0
 20
0.0
 30
0.0
  3
*Paper_Space
  1

  0
ENDBLK
  5
1D
330
1B
100
AcDbEntity
  8
0
100
AcDbBlockEnd
  0
BLOCK
  5
75
330
74
100
AcDbEntity
  8
0
100
AcDbBlockBegin
  2
_ARCHTICK
 70
0
 10
0.0
 20
0.0
 30
0.0
  3
_ARCHTICK
  1

  0
LWPOLYLINE
  5
77
330
74
100
AcDbEntity
  8
0
  6
BYBLOCK
 62
0
100
AcDbPolyline
 90
2
 70
0
 43
0.15
 10
-0.5
 20
-0.5
 10
0.5
 20
0.5
  0
ENDBLK
  5
76
330
74
100
AcDbEntity
  8
0
100
AcDbBlockEnd
  0
BLOCK
  5
79
330
78
100
AcDbEntity
  8
0
100
AcDbBlockBegin
  2
_CLOSEDFILLED
 70
0
 10
0.0
 20
0.0
 30
0.0
  3
_CLOSEDFILLED
  1

  0
SOLID
  5
7B
330
78
100
AcDbEntity
  8
0
  6
BYBLOCK
 62
0
100
AcDbTrace
 10
-1.0
 20
0.16439898372402537
 30
0.0
 11
0.0
 21
0.0
 31
0.0
 12
-1.0
 22
-0.16439898372402537
 32
0.0
 13
-1.0
 23
-0.16439898372402537
 33
0.0
  0
ENDBLK
  5
7A
330
78
100
AcDbEntity
  8
0
100
AcDbBlockEnd
  0
BLOCK
  5
85
330
84
100
AcDbEntity
  8
0
100
AcDbBlockBegin
  2
_CLOSEDBLANK
 70
0
 10
0.0
 20
0.0
 30
0.0
  3
_CLOSEDBLANK
  1

  0
LWPOLYLINE
  5
87
330
84
100
AcDbEntity
  8
0
  6
BYBLOCK
 62
0
100
AcDbPolyline
 90
3
 70
1
 10
-1.0
 20
0.16439898372402537
 10
0.0
 20
0.0
 10
-1.0
 20
-0.16439898372402537
  0
ENDBLK
  5
86
330
84
100
AcDbEntity
  8
0
100
AcDbBlockEnd
  0
ENDSEC
  0
SECTION
  2
ENTITIES
  0
LINE
  5
8F
330
17
100
AcDbEntity
  8
GRID_OR_AXIS
100
AcDbLine
 10
3.1053348183631893
 20
3.9124816171206476
 30
0.0
 11
1671.5662755593034
 21
3.9124816171206476
 31
0.0
  0
LINE
  5
90
330
17
100
AcDbEntity
  8
GRID_OR_AXIS
100
AcDbLine
 10
3.917952287687114
 20
1074.0387344378544
 30
0.0
 11
1670.3446559562724
 21
1074.0387344378544
 31
0.0
  0
LINE
  5
91
330
17
100
AcDbEntity
  8
GRID_OR_AXIS
100
AcDbLine
 10
65.14997736612958
 20
109.86465971918187
 30
0.0
 11
1609.518701807
 21
109.86465971918187
 31
0.0
  0
LINE
  5
92
330
17
100
AcDbEntity
  8
GRID_OR_AXIS
100
AcDbLine
 10
68.13968785478686
 20
1009.8917203333164
 30
0.0
 11
1609.5252562284336
 21
1009.8917203333164
 31
0.0
  0
LINE
  5
93
330
17
100
AcDbEntity
  8
GRID_OR_AXIS
100
AcDbLine
 10
91.87490604903616
 20
114.26048252604255
 30
0.0
 11
1601.8516792323014
 21
114.26048252604255
 31
0.0
  0
LINE
  5
94
330
17
100
AcDbEntity
  8
GRID_OR_AXIS
100
AcDbLine
 10
125.21039203053621
 20
881.69556705111
 30
0.0
 11
1504.6839229810184
 21
881.69556705111
 31
0.0
  0
LINE
  5
95
330
17
100
AcDbEntity
  8
GRID_OR_AXIS
100
AcDbLine
 10
375.0
 20
1014.8264589309692
 30
0.0
 11
1514.0
 21
1014.8264589309692
 31
0.0
  0
LINE
  5
96
330
17
100
AcDbEntity
  8
GRID_OR_AXIS
100
AcDbLine
 10
245.3003027978017
 20
818.9758143350068
 30
0.0
 11
1316.4456630626137
 21
818.9758143350068
 31
0.0
  0
LINE
  5
97
330
17
100
AcDbEntity
  8
GRID_OR_AXIS
100
AcDbLine
 10
1670.9554657577878
 20
1074.3168623838753
 30
0.0
 11
1670.9554657577878
 21
3.6936003192020053
 31
0.0
  0
LINE
  5
98
330
17
100
AcDbEntity
  8
GRID_OR_AXIS
100
AcDbLine
 10
3.5116435530251513
 20
1073.7606064918332
 30
0.0
 11
3.5116435530251513
 21
4.1313629150390625
 31
0.0
  0
LINE
  5
99
330
17
100
AcDbEntity
  8
GRID_OR_AXIS
100
AcDbLine
 10
247.56221448225335
 20
835.1524193003656
 30
0.0
 11
1316.3127604522974
 21
835.1524193003656
 31
0.0
  0
LINE
  5
9A
330
17
100
AcDbEntity
  8
GRID_OR_AXIS
100
AcDbLine
 10
247.43732562052608
 20
842.3970381508674
 30
0.0
 11
1315.0002037254746
 21
842.3970381508674
 31
0.0
  0
LINE
  5
9B
330
17
100
AcDbEntity
  8
GRID_OR_AXIS
100
AcDbLine
 10
74.9972152709961
 20
1005.4884958267212
 30
0.0
 11
1095.625244140625
 21
1005.4884958267212
 31
0.0
  0
LINE
  5
9C
330
17
100
AcDbEntity
  8
WALL_OR_FRAME
100
AcDbLine
 10
66.64483261045822
 20
1011.7214881843797
 30
0.0
 11
66.64483261045822
 21
111.375
 31
0.0
  0
LINE
  5
9D
330
17
100
AcDbEntity
  8
WALL_OR_FRAME
100
AcDbLine
 10
1609.5219790177168
 20
1008.061952482253
 30
0.0
 11
1609.5219790177168
 21
108.35431943836363
 31
0.0
  0
LINE
  5
9E
330
17
100
AcDbEntity
  8
WALL_OR_FRAME
100
AcDbLine
 10
1601.0430216974278
 20
1005.7866805336527
 30
0.0
 11
1601.0430216974278
 21
114.49677336311629
 31
0.0
  0
LINE
  5
9F
330
17
100
AcDbEntity
  8
WALL_OR_FRAME
100
AcDbLine
 10
74.59097671508789
 20
114.4375
 30
0.0
 11
74.59097671508789
 21
1005.3673305511475
 31
0.0
  0
LINE
  5
A0
330
17
100
AcDbEntity
  8
WALL_OR_FRAME
100
AcDbLine
 10
657.9974081445196
 20
368.33197781497176
 30
0.0
 11
1505.8099081445198
 21
368.33197781497176
 31
0.0
  0
LINE
  5
A1
330
17
100
AcDbEntity
  8
WALL_OR_FRAME
100
AcDbLine
 10
203.1253391668024
 20
965.1256578912245
 30
0.0
 11
203.1253391668024
 21
303.43719913064444
 31
0.0
  0
LINE
  5
A2
330
17
100
AcDbEntity
  8
WALL_OR_FRAME
100
AcDbLine
 10
265.999913382219
 20
395.61196741528966
 30
0.0
 11
925.1874133822191
 21
395.61196741528966
 31
0.0
  0
LINE
  5
A3
330
17
100
AcDbEntity
  8
WALL_OR_FRAME
100
AcDbLine
 10
273.82215881347656
 20
402.7915222167969
 30
0.0
 11
924.0
 21
402.7915222167969
 31
0.0
  0
LINE
  5
A4
330
17
100
AcDbEntity
  8
WALL_OR_FRAME
100
AcDbLine
 10
315.62191483393286
 20
536.2168916736288
 30
0.0
 11
943.9959335083329
 21
536.2168916736288
 31
0.0
  0
LINE
  5
A5
330
17
100
AcDbEntity
  8
WALL_OR_FRAME
100
AcDbLine
 10
377.0
 20
513.5672353108724
 30
0.0
 11
944.0
 21
513.5672353108724
 31
0.0
  0
LINE
  5
A6
330
17
100
AcDbEntity
  8
WALL_OR_FRAME
100
AcDbLine
 10
384.4999385108988
 20
520.2729764274544
 30
0.0
 11
944.9999385108988
 21
520.2729764274544
 31
0.0
  0
LINE
  5
A7
330
17
100
AcDbEntity
  8
WALL_OR_FRAME
100
AcDbLine
 10
270.31232932923393
 20
373.8235669767523
 30
0.0
 11
811.0000276934918
 21
373.8235669767523
 31
0.0
  0
LINE
  5
A8
330
17
100
AcDbEntity
  8
WALL_OR_FRAME
100
AcDbLine
 10
125.83385743518156
 20
366.12439564529495
 30
0.0
 11
579.0013633352468
 21
366.12439564529495
 31
0.0
  0
LINE
  5
A9
330
17
100
AcDbEntity
  8
HATCH
100
AcDbLine
 10
245.71655229926358
 20
818.3814771145373
 30
0.0
 11
245.71655229926358
 21
365.9961959865142
 31
0.0
  0
LINE
  5
AA
330
17
100
AcDbEntity
  8
WALL_OR_FRAME
100
AcDbLine
 10
1319.7563255149166
 20
819.5701515554763
 30
0.0
 11
1319.7563255149166
 21
368.98139831665594
 31
0.0
  0
LINE
  5
AB
330
17
100
AcDbEntity
  8
WALL_OR_FRAME
100
AcDbLine
 10
266.2578995809474
 20
812.8124291974823
 30
0.0
 11
266.2578995809474
 21
364.9999291974824
 31
0.0
  0
LINE
  5
AC
330
17
100
AcDbEntity
  8
WALL_OR_FRAME
100
AcDbLine
 10
125.80948892114712
 20
622.8160959151702
 30
0.0
 11
571.4981451116348
 21
622.8160959151702
 31
0.0
  0
LINE
  5
AD
330
17
100
AcDbEntity
  8
WALL_OR_FRAME
100
AcDbLine
 10
1297.3572577584437
 20
813.4375319811264
 30
0.0
 11
1297.3572577584437
 21
368.9995493176368
 31
0.0
  0
LINE
  5
AE
330
17
100
AcDbEntity
  8
WALL_OR_FRAME
100
AcDbLine
 10
1169.0070183481864
 20
216.44894505046364
 30
0.0
 11
1611.0070183481855
 21
216.44894505046364
 31
0.0
  0
LINE
  5
AF
330
17
100
AcDbEntity
  8
WALL_OR_FRAME
100
AcDbLine
 10
1169.5143033870643
 20
172.22402184459577
 30
0.0
 11
1611.0143033870636
 21
172.22402184459577
 31
0.0
  0
LINE
  5
B0
330
17
100
AcDbEntity
  8
WALL_OR_FRAME
100
AcDbLine
 10
1172.94029643432
 20
258.6384932623423
 30
0.0
 11
1611.0
 21
258.6384932623423
 31
0.0
  0
LINE
  5
B1
330
17
100
AcDbEntity
  8
WALL_OR_FRAME
100
AcDbLine
 10
1173.1251080711759
 20
136.09277831300506
 30
0.0
 11
1611.0001385887538
 21
136.09277831300506
 31
0.0
  0
LINE
  5
B2
330
17
100
AcDbEntity
  8
HATCH
100
AcDbLine
 10
862.0031806187326
 20
375.25236425799335
 30
0.0
 11
1297.119025345295
 21
375.25236425799335
 31
0.0
  0
LINE
  5
B3
330
17
100
AcDbEntity
  8
HATCH
100
AcDbLine
 10
251.34323968259602
 20
377.62506028701773
 30
0.0
 11
251.34323968259602
 21
812.3125022444153
 31
0.0
  0
LINE
  5
B4
330
17
100
AcDbEntity
  8
WALL_OR_FRAME
100
AcDbLine
 10
273.7265918037265
 20
812.7757485574036
 30
0.0
 11
273.7265918037265
 21
381.18529554625025
 31
0.0
  0
LINE
  5
B5
330
17
100
AcDbEntity
  8
HATCH
100
AcDbLine
 10
1271.3178833916875
 20
822.001997245223
 30
0.0
 11
1271.3178833916875
 21
395.5019972452227
 31
0.0
  0
LINE
  5
B6
330
17
100
AcDbEntity
  8
WALL_OR_FRAME
100
AcDbLine
 10
915.0800942785002
 20
811.1927645724899
 30
0.0
 11
915.0800942785002
 21
404.12421933052667
 31
0.0
  0
LINE
  5
B7
330
17
100
AcDbEntity
  8
WALL_OR_FRAME
100
AcDbLine
 10
600.000836247186
 20
542.1607640105915
 30
0.0
 11
945.221081608514
 21
542.1607640105915
 31
0.0
  0
LINE
  5
B8
330
17
100
AcDbEntity
  8
WALL_OR_FRAME
100
AcDbLine
 10
974.7764586848375
 20
814.1433956681515
 30
0.0
 11
1311.6809214463563
 21
814.1433956681515
 31
0.0
  0
LINE
  5
B9
330
17
100
AcDbEntity
  8
WALL_OR_FRAME
100
AcDbLine
 10
600.2188510342145
 20
624.4743008750949
 30
0.0
 11
935.0013979698266
 21
624.4743008750949
 31
0.0
  0
LINE
  5
BA
330
17
100
AcDbEntity
  8
HATCH
100
AcDbLine
 10
967.1970744929117
 20
813.4379119903828
 30
0.0
 11
967.1970744929117
 21
487.8124084503437
 31
0.0
  0
LINE
  5
BB
330
17
100
AcDbEntity
  8
HATCH
100
AcDbLine
 10
952.2444315130447
 20
812.3127140352893
 30
0.0
 11
952.2444315130447
 21
486.8124393770862
 31
0.0
  0
LINE
  5
BC
330
17
100
AcDbEntity
  8
HATCH
100
AcDbLine
 10
945.1558890411782
 20
813.4375605795803
 30
0.0
 11
945.1558890411782
 21
487.999969026846
 31
0.0
  0
LINE
  5
BD
330
17
100
AcDbEntity
  8
WALL_OR_FRAME
100
AcDbLine
 10
578.6875
 20
380.79962158203125
 30
0.0
 11
896.3125305175781
 21
380.79962158203125
 31
0.0
  0
LINE
  5
BE
330
17
100
AcDbEntity
  8
WALL_OR_FRAME
100
AcDbLine
 10
1313.4272468570875
 20
819.5701515554763
 30
0.0
 11
1313.4272468570875
 21
502.5481238831344
 31
0.0
  0
LINE
  5
BF
330
17
100
AcDbEntity
  8
WALL_OR_FRAME
100
AcDbLine
 10
274.2240661330628
 20
588.5703080759766
 30
0.0
 11
585.0002705601462
 21
588.5703080759766
 31
0.0
  0
LINE
  5
C0
330
17
100
AcDbEntity
  8
WALL_OR_FRAME
100
AcDbLine
 10
1294.1868896484375
 20
262.32484436035156
 30
0.0
 11
1601.6095174153645
 21
262.32484436035156
 31
0.0
  0
LINE
  5
C1
330
17
100
AcDbEntity
  8
WALL_OR_FRAME
100
AcDbLine
 10
607.489522298177
 20
811.984471784129
 30
0.0
 11
914.9069179141824
 21
811.984471784129
 31
0.0
  0
LINE
  5
C2
330
17
100
AcDbEntity
  8
HATCH
100
AcDbLine
 10
974.4659180363608
 20
813.9319145582081
 30
0.0
 11
974.4659180363608
 21
508.8689173042236
 31
0.0
  0
LINE
  5
C3
330
17
100
AcDbEntity
  8
WALL_OR_FRAME
100
AcDbLine
 10
280.0
 20
595.8047409057617
 30
0.0
 11
585.0
 21
595.8047409057617
 31
0.0
  0
LINE
  5
C4
330
17
100
AcDbEntity
  8
WALL_OR_FRAME
100
AcDbLine
 10
274.18659149377254
 20
619.4127017086563
 30
0.0
 11
571.4981451116348
 21
619.4127017086563
 31
0.0
  0
LINE
  5
C5
330
17
100
AcDbEntity
  8
OUTLINE
100
AcDbLine
 10
995.4377443583242
 20
396.0295550064758
 30
0.0
 11
1290.6253053934804
 21
396.0295550064758
 31
0.0
  0
LINE
  5
C6
330
17
100
AcDbEntity
  8
WALL_OR_FRAME
100
AcDbLine
 10
995.8126895027955
 20
402.9808326297182
 30
0.0
 11
1290.859624828308
 21
402.9808326297182
 31
0.0
  0
LINE
  5
C7
330
17
100
AcDbEntity
  8
WALL_OR_FRAME
100
AcDbLine
 10
273.6106892047311
 20
812.8818337055817
 30
0.0
 11
557.9862289428711
 21
812.8818337055817
 31
0.0
  0
LINE
  5
C8
330
17
100
AcDbEntity
  8
WALL_OR_FRAME
100
AcDbLine
 10
937.8121688832456
 20
380.96056374175805
 30
0.0
 11
1218.999630462429
 21
380.96056374175805
 31
0.0
  0
LINE
  5
C9
330
17
100
AcDbEntity
  8
HATCH
100
AcDbLine
 10
274.6875762939453
 20
609.8337020874023
 30
0.0
 11
540.18798828125
 21
609.8337020874023
 31
0.0
  0
LINE
  5
CA
330
17
100
AcDbEntity
  8
WALL_OR_FRAME
100
AcDbLine
 10
273.8424944027219
 20
380.97802229696526
 30
0.0
 11
539.0624568315285
 21
380.97802229696526
 31
0.0
  0
LINE
  5
CB
330
17
100
AcDbEntity
  8
WALL_OR_FRAME
100
AcDbLine
 10
292.74918538189763
 20
433.8705254780863
 30
0.0
 11
556.5
 21
433.8705254780863
 31
0.0
  0
LINE
  5
CC
330
17
100
AcDbEntity
  8
HATCH
100
AcDbLine
 10
585.2604943983781
 20
666.0614785695823
 30
0.0
 11
585.2604943983781
 21
402.624434018775
 31
0.0
  0
LINE
  5
CD
330
17
100
AcDbEntity
  8
HATCH
100
AcDbLine
 10
607.5689314425058
 20
666.0006047406646
 30
0.0
 11
607.5689314425058
 21
403.49852954535186
 31
0.0
  0
LINE
  5
CE
330
17
100
AcDbEntity
  8
HATCH
100
AcDbLine
 10
599.968731781171
 20
664.9998766425848
 30
0.0
 11
599.968731781171
 21
404.5623766425848
 31
0.0
  0
LINE
  5
CF
330
17
100
AcDbEntity
  8
WALL_OR_FRAME
100
AcDbLine
 10
1227.8029915909733
 20
775.054050313282
 30
0.0
 11
1227.8029915909733
 21
517.6590099797872
 31
0.0
  0
LINE
  5
D0
330
17
100
AcDbEntity
  8
HATCH
100
AcDbLine
 10
1003.4824917762819
 20
775.7562526573295
 30
0.0
 11
1003.4824917762819
 21
518.828789814092
 31
0.0
  0
LINE
  5
D1
330
17
100
AcDbEntity
  8
WALL_OR_FRAME
100
AcDbLine
 10
1290.6500684978284
 20
606.6863679122796
 30
0.0
 11
1290.6500684978284
 21
380.99982361039145
 31
0.0
  0
LINE
  5
D2
330
17
100
AcDbEntity
  8
HATCH
100
AcDbLine
 10
1021.9284090373418
 20
566.2702700517309
 30
0.0
 11
1228.6673455066796
 21
517.6590099797872
 31
0.0
  0
LINE
  5
D3
330
17
100
AcDbEntity
  8
WALL_OR_FRAME
100
AcDbLine
 10
316.77657186696774
 20
430.48351982668237
 30
0.0
 11
526.3125305175781
 21
430.48351982668237
 31
0.0
  0
LINE
  5
D4
330
17
100
AcDbEntity
  8
HATCH
100
AcDbLine
 10
577.9927262399597
 20
606.9998293730637
 30
0.0
 11
577.9927262399597
 21
403.91483791798555
 31
0.0
  0
LINE
  5
D5
330
17
100
AcDbEntity
  8
HATCH
100
AcDbLine
 10
1012.6625536040681
 20
624.2428396318587
 30
0.0
 11
1210.551805313053
 21
580.5404089067608
 31
0.0
  0
LINE
  5
D6
330
17
100
AcDbEntity
  8
WALL_OR_FRAME
100
AcDbLine
 10
1004.339343176378
 20
518.9403306311549
 30
0.0
 11
1199.4144995965596
 21
518.9403306311549
 31
0.0
  0
LINE
  5
D7
330
17
100
AcDbEntity
  8
DETAIL
100
AcDbLine
 10
1020.7902947261773
 20
758.6283697149879
 30
0.0
 11
1209.6150475337954
 21
717.0394567511206
 31
0.0
  0
LINE
  5
D8
330
17
100
AcDbEntity
  8
HATCH
100
AcDbLine
 10
1022.1276611137586
 20
720.2864123112341
 30
0.0
 11
1210.2254597791232
 21
675.9566597070675
 31
0.0
  0
LINE
  5
D9
330
17
100
AcDbEntity
  8
HATCH
100
AcDbLine
 10
1021.5726862568796
 20
738.8986125443366
 30
0.0
 11
1209.9627822855257
 21
696.2079794063156
 31
0.0
  0
LINE
  5
DA
330
17
100
AcDbEntity
  8
HATCH
100
AcDbLine
 10
1022.2624739736307
 20
699.6629793173747
 30
0.0
 11
1210.4668501943345
 21
657.1164476401285
 31
0.0
  0
LINE
  5
DB
330
17
100
AcDbEntity
  8
HATCH
100
AcDbLine
 10
1022.3213782538706
 20
681.6739613861484
 30
0.0
 11
1210.1550981431938
 21
639.5521046966953
 31
0.0
  0
LINE
  5
DC
330
17
100
AcDbEntity
  8
HATCH
100
AcDbLine
 10
1022.7182659339209
 20
642.1991302314893
 30
0.0
 11
1210.461767521639
 21
599.9244698812795
 31
0.0
  0
LINE
  5
DD
330
17
100
AcDbEntity
  8
HATCH
100
AcDbLine
 10
1022.2590789794918
 20
603.9406280517578
 30
0.0
 11
1209.5704956054688
 21
561.6857604980469
 31
0.0
  0
LINE
  5
DE
330
17
100
AcDbEntity
  8
HATCH
100
AcDbLine
 10
1022.3823072931766
 20
583.2084683264525
 30
0.0
 11
1209.2908359390099
 21
541.5954617346556
 31
0.0
  0
LINE
  5
DF
330
17
100
AcDbEntity
  8
WALL_OR_FRAME
100
AcDbLine
 10
1312.329561828677
 20
626.9136114803747
 30
0.0
 11
1503.7808557739895
 21
626.9136114803747
 31
0.0
  0
LINE
  5
E0
330
17
100
AcDbEntity
  8
WALL_OR_FRAME
100
AcDbLine
 10
1313.1524353027344
 20
560.1255493164062
 30
0.0
 11
1313.1524353027344
 21
369.0
 31
0.0
  0
LINE
  5
E1
330
17
100
AcDbEntity
  8
HATCH
100
AcDbLine
 10
1024.23237741443
 20
663.3273860364238
 30
0.0
 11
1200.5323064917627
 21
622.4507907992975
 31
0.0
  0
LINE
  5
E2
330
17
100
AcDbEntity
  8
HATCH
100
AcDbLine
 10
560.0980400156026
 20
588.3519498694333
 30
0.0
 11
560.0980400156026
 21
408.00147837285135
 31
0.0
  0
LINE
  5
E3
330
17
100
AcDbEntity
  8
WALL_OR_FRAME
100
AcDbLine
 10
1290.0717330627463
 20
814.1016418082149
 30
0.0
 11
1290.0717330627463
 21
642.6246444327267
 31
0.0
  0
LINE
  5
E4
330
17
100
AcDbEntity
  8
HATCH
100
AcDbLine
 10
389.79884078976977
 20
434.61851254007104
 30
0.0
 11
500.59990022061737
 21
542.4388064916075
 31
0.0
  0
LINE
  5
E5
330
17
100
AcDbEntity
  8
HATCH
100
AcDbLine
 10
403.361932488654
 20
434.46076003400697
 30
0.0
 11
513.9773296240706
 21
540.5020808347883
 31
0.0
  0
LINE
  5
E6
330
17
100
AcDbEntity
  8
WALL_OR_FRAME
100
AcDbLine
 10
1002.6256403761859
 20
774.2084732999524
 30
0.0
 11
1154.4092850707216
 21
774.2084732999524
 31
0.0
  0
LINE
  5
E7
330
17
100
AcDbEntity
  8
HATCH
100
AcDbLine
 10
307.0376912856617
 20
431.90815656339635
 30
0.0
 11
416.2501535731818
 21
535.7040091573786
 31
0.0
  0
LINE
  5
E8
330
17
100
AcDbEntity
  8
HATCH
100
AcDbLine
 10
316.77657186696774
 20
432.1172319141067
 30
0.0
 11
426.54791259765625
 21
534.6337280273438
 31
0.0
  0
LINE
  5
E9
330
17
100
AcDbEntity
  8
HATCH
100
AcDbLine
 10
347.91999992139927
 20
432.8399291014897
 30
0.0
 11
454.96511792466214
 21
536.6689271677005
 31
0.0
  0
LINE
  5
EA
330
17
100
AcDbEntity
  8
HATCH
100
AcDbLine
 10
443.0410599268237
 20
434.3692059968099
 30
0.0
 11
549.63704254746
 21
538.3966107229732
 31
0.0
  0
LINE
  5
EB
330
17
100
AcDbEntity
  8
HATCH
100
AcDbLine
 10
457.0568287367044
 20
434.30956423061923
 30
0.0
 11
563.4355976576029
 21
538.5554901339395
 31
0.0
  0
LINE
  5
EC
330
17
100
AcDbEntity
  8
HATCH
100
AcDbLine
 10
468.6839217673208
 20
432.090640968682
 30
0.0
 11
574.4590804872455
 21
535.9428516656902
 31
0.0
  0
LINE
  5
ED
330
17
100
AcDbEntity
  8
HATCH
100
AcDbLine
 10
359.4998778535505
 20
433.7979674064226
 30
0.0
 11
467.2759144720227
 21
534.975308166102
 31
0.0
  0
LINE
  5
EE
330
17
100
AcDbEntity
  8
HATCH
100
AcDbLine
 10
292.74918538189763
 20
432.24105095617256
 30
0.0
 11
398.9907124906932
 21
533.9780072111755
 31
0.0
  0
LINE
  5
EF
330
17
100
AcDbEntity
  8
HATCH
100
AcDbLine
 10
413.1022165871473
 20
432.6387212961956
 30
0.0
 11
519.810407505116
 21
533.3927190989299
 31
0.0
  0
LINE
  5
F0
330
17
100
AcDbEntity
  8
HATCH
100
AcDbLine
 10
373.9236824166219
 20
435.1739729299418
 30
0.0
 11
480.5864776872477
 21
533.4778083273318
 31
0.0
  0
LINE
  5
F1
330
17
100
AcDbEntity
  8
HATCH
100
AcDbLine
 10
334.0661970702713
 20
435.2003182813005
 30
0.0
 11
440.38301720776286
 21
533.5605384994499
 31
0.0
  0
LINE
  5
F2
330
17
100
AcDbEntity
  8
WALL_OR_FRAME
100
AcDbLine
 10
1172.2760565688677
 20
258.75741744560344
 30
0.0
 11
1172.2760565688677
 21
114.12968353531812
 31
0.0
  0
LINE
  5
F3
330
17
100
AcDbEntity
  8
WALL_OR_FRAME
100
AcDbLine
 10
1472.8462778916974
 20
257.30413176407853
 30
0.0
 11
1472.8462778916974
 21
115.12458922257451
 31
0.0
  0
LINE
  5
F4
330
17
100
AcDbEntity
  8
HATCH
100
AcDbLine
 10
556.25
 20
435.5
 30
0.0
 11
556.25
 21
577.0
 31
0.0
  0
LINE
  5
F5
330
17
100
AcDbEntity
  8
WALL_OR_FRAME
100
AcDbLine
 10
1316.3546346028643
 20
260.4450174967451
 30
0.0
 11
1316.3546346028643
 21
119.50000000000034
 31
0.0
  0
LINE
  5
F6
330
17
100
AcDbEntity
  8
HATCH
100
AcDbLine
 10
430.15135327922223
 20
434.6030696783796
 30
0.0
 11
530.5749236083096
 21
533.4478384742922
 31
0.0
  0
LINE
  5
F7
330
17
100
AcDbEntity
  8
WALL_OR_FRAME
100
AcDbLine
 10
559.7074828278962
 20
965.8139301961264
 30
0.0
 11
559.7074828278962
 21
826.0141836269762
 31
0.0
  0
LINE
  5
F8
330
17
100
AcDbEntity
  8
HATCH
100
AcDbLine
 10
373.9236824166219
 20
435.1739729299418
 30
0.0
 11
467.2759144720227
 21
534.975308166102
 31
0.0
  0
LINE
  5
F9
330
17
100
AcDbEntity
  8
HATCH
100
AcDbLine
 10
334.0661970702713
 20
435.2003182813005
 30
0.0
 11
426.54791259765625
 21
534.6337280273438
 31
0.0
  0
LINE
  5
FA
330
17
100
AcDbEntity
  8
HATCH
100
AcDbLine
 10
480.8782868488169
 20
432.36311531467106
 30
0.0
 11
571.1972886859496
 21
519.554536106395
 31
0.0
  0
LINE
  5
FB
330
17
100
AcDbEntity
  8
DETAIL
100
AcDbLine
 10
1024.6071485152295
 20
545.789982447161
 30
0.0
 11
1143.9620069136668
 21
516.9096316984633
 31
0.0
  0
LINE
  5
FC
330
17
100
AcDbEntity
  8
WALL_OR_FRAME
100
AcDbLine
 10
1270.3948083361825
 20
967.8674036862187
 30
0.0
 11
1270.3948083361825
 21
849.992106139832
 31
0.0
  0
LINE
  5
FD
330
17
100
AcDbEntity
  8
WALL_OR_FRAME
100
AcDbLine
 10
967.2335713704427
 20
626.3425750732422
 30
0.0
 11
1079.3985595703125
 21
626.3425750732422
 31
0.0
  0
LINE
  5
FE
330
17
100
AcDbEntity
  8
WALL_OR_FRAME
100
AcDbLine
 10
316.1992433504503
 20
537.4023140796864
 30
0.0
 11
316.1992433504503
 21
432.1172319141067
 31
0.0
  0
LINE
  5
FF
330
17
100
AcDbEntity
  8
HATCH
100
AcDbLine
 10
523.96875
 20
540.8002319335938
 30
0.0
 11
523.96875
 21
436.0
 31
0.0
  0
LINE
  5
100
330
17
100
AcDbEntity
  8
WALL_OR_FRAME
100
AcDbLine
 10
559.8242675207289
 20
395.4037621557412
 30
0.0
 11
559.8242675207289
 21
302.00072667397035
 31
0.0
  0
LINE
  5
101
330
17
100
AcDbEntity
  8
HATCH
100
AcDbLine
 10
116.01898185600368
 20
73.8826563041722
 30
0.0
 11
209.01898185600365
 21
73.8826563041722
 31
0.0
  0
LINE
  5
102
330
17
100
AcDbEntity
  8
HATCH
100
AcDbLine
 10
531.0
 20
469.0
 30
0.0
 11
598.2128448486328
 21
532.3115234375
 31
0.0
  0
LINE
  5
103
330
17
100
AcDbEntity
  8
WALL_OR_FRAME
100
AcDbLine
 10
1135.0
 20
776.527025156641
 30
0.0
 11
1226.938637675267
 21
776.527025156641
 31
0.0
  0
LINE
  5
104
330
17
100
AcDbEntity
  8
WALL_OR_FRAME
100
AcDbLine
 10
914.691446940104
 20
966.1670888264974
 30
0.0
 11
914.691446940104
 21
883.1105473836263
 31
0.0
  0
LINE
  5
105
330
17
100
AcDbEntity
  8
WALL_OR_FRAME
100
AcDbLine
 10
1273.4186478170354
 20
382.0005944527112
 30
0.0
 11
1273.4186478170354
 21
303.25006548135696
 31
0.0
  0
LINE
  5
106
330
17
100
AcDbEntity
  8
DETAIL
100
AcDbLine
 10
102.0
 20
63.5
 30
0.0
 11
178.87500000000006
 21
57.499999999999886
 31
0.0
  0
LINE
  5
107
330
17
100
AcDbEntity
  8
WALL_OR_FRAME
100
AcDbLine
 10
1212.0
 20
623.0
 30
0.0
 11
1284.0
 21
623.0
 31
0.0
  0
LINE
  5
108
330
17
100
AcDbEntity
  8
WALL_OR_FRAME
100
AcDbLine
 10
1224.3657684326172
 20
626.37939453125
 30
0.0
 11
1224.3657684326172
 21
556.3707275390625
 31
0.0
  0
LINE
  5
109
330
17
100
AcDbEntity
  8
WALL_OR_FRAME
100
AcDbLine
 10
917.0
 20
369.0
 30
0.0
 11
917.0
 21
302.0
 31
0.0
  0
LINE
  5
10A
330
17
100
AcDbEntity
  8
DETAIL
100
AcDbLine
 10
571.8486443429748
 20
454.0
 30
0.0
 11
571.8486443429748
 21
519.554536106395
 31
0.0
  0
LINE
  5
10B
330
17
100
AcDbEntity
  8
DETAIL
100
AcDbLine
 10
1128.939697265625
 20
623.0795237223308
 30
0.0
 11
1187.3752441406248
 21
623.0795237223308
 31
0.0
  0
LINE
  5
10C
330
17
100
AcDbEntity
  8
HATCH
100
AcDbLine
 10
607.3306528727212
 20
812.7761789957683
 30
0.0
 11
607.3306528727212
 21
754.5616912841797
 31
0.0
  0
LINE
  5
10D
330
17
100
AcDbEntity
  8
HATCH
100
AcDbLine
 10
585.0616279987295
 20
812.6540183635013
 30
0.0
 11
585.0616279987295
 21
754.5504722209232
 31
0.0
  0
LINE
  5
10E
330
17
100
AcDbEntity
  8
DETAIL
100
AcDbLine
 10
1044.4294433593748
 20
622.754107284546
 30
0.0
 11
1102.025048828125
 21
622.754107284546
 31
0.0
  0
LINE
  5
10F
330
17
100
AcDbEntity
  8
HATCH
100
AcDbLine
 10
578.1084289550781
 20
812.6218566894531
 30
0.0
 11
578.1084289550781
 21
755.1151123046875
 31
0.0
  0
LINE
  5
110
330
17
100
AcDbEntity
  8
HATCH
100
AcDbLine
 10
600.2266998291016
 20
812.8130950927734
 30
0.0
 11
600.2266998291016
 21
755.5620574951172
 31
0.0
  0
LINE
  5
111
330
17
100
AcDbEntity
  8
HATCH
100
AcDbLine
 10
558.1714337666829
 20
757.0828959147136
 30
0.0
 11
558.1714337666829
 21
812.9879188537598
 31
0.0
  0
LINE
  5
112
330
17
100
AcDbEntity
  8
DETAIL
100
AcDbLine
 10
1172.94029643432
 20
258.75741744560344
 30
0.0
 11
1228.146728515625
 21
261.8911437988281
 31
0.0
  0
LINE
  5
113
330
17
100
AcDbEntity
  8
DETAIL
100
AcDbLine
 10
1173.7373906488006
 20
258.75741744560344
 30
0.0
 11
1173.7373906488006
 21
205.10125732421875
 31
0.0
  0
LINE
  5
114
330
17
100
AcDbEntity
  8
DETAIL
100
AcDbLine
 10
552.5
 20
451.0
 30
0.0
 11
552.5
 21
504.0
 31
0.0
  0
LINE
  5
115
330
17
100
AcDbEntity
  8
DETAIL
100
AcDbLine
 10
578.3191223144531
 20
587.625
 30
0.0
 11
574.4590804872455
 21
535.9428516656902
 31
0.0
  0
LINE
  5
116
330
17
100
AcDbEntity
  8
DETAIL
100
AcDbLine
 10
336.625
 20
71.9375
 30
0.0
 11
386.0
 21
71.9375
 31
0.0
  0
LINE
  5
117
330
17
100
AcDbEntity
  8
DETAIL
100
AcDbLine
 10
161.0
 20
81.0
 30
0.0
 11
210.0
 21
81.0
 31
0.0
  0
LINE
  5
118
330
17
100
AcDbEntity
  8
DETAIL
100
AcDbLine
 10
1180.3106689453125
 20
514.5834350585938
 30
0.0
 11
1228.6673455066796
 21
517.6590099797872
 31
0.0
  0
LINE
  5
119
330
17
100
AcDbEntity
  8
DETAIL
100
AcDbLine
 10
131.28571428571428
 20
57.07142857142844
 30
0.0
 11
178.87500000000006
 21
57.07142857142844
 31
0.0
  0
LINE
  5
11A
330
17
100
AcDbEntity
  8
DETAIL
100
AcDbLine
 10
92.0
 20
68.5
 30
0.0
 11
139.0
 21
68.5
 31
0.0
  0
LINE
  5
11B
330
17
100
AcDbEntity
  8
DETAIL
100
AcDbLine
 10
205.0
 20
53.0
 30
0.0
 11
252.0
 21
53.0
 31
0.0
  0
LINE
  5
11C
330
17
100
AcDbEntity
  8
DETAIL
100
AcDbLine
 10
1548.0872802734375
 20
1015.3047866821289
 30
0.0
 11
1594.3863525390625
 21
1015.3047866821289
 31
0.0
  0
ENDSEC
  0
SECTION
  2
OBJECTS
  0
DICTIONARY
  5
A
330
0
100
AcDbDictionary
281
1
  3
ACAD_COLOR
350
B
  3
ACAD_GROUP
350
C
  3
ACAD_LAYOUT
350
D
  3
ACAD_MATERIAL
350
E
  3
ACAD_MLEADERSTYLE
350
F
  3
ACAD_MLINESTYLE
350
10
  3
ACAD_PLOTSETTINGS
350
11
  3
ACAD_PLOTSTYLENAME
350
12
  3
ACAD_SCALELIST
350
14
  3
ACAD_TABLESTYLE
350
15
  3
ACAD_VISUALSTYLE
350
16
  3
EZDXF_META
350
2D
  0
DICTIONARY
  5
B
330
A
100
AcDbDictionary
281
1
  0
DICTIONARY
  5
C
330
A
100
AcDbDictionary
281
1
  0
DICTIONARY
  5
D
330
A
100
AcDbDictionary
281
1
  3
Model
350
1A
  3
Layout1
350
1E
  0
DICTIONARY
  5
E
330
A
100
AcDbDictionary
281
1
  3
ByBlock
350
1F
  3
ByLayer
350
20
  3
Global
350
21
  0
DICTIONARY
  5
F
330
A
100
AcDbDictionary
281
1
  3
Standard
350
2C
  0
DICTIONARY
  5
10
330
A
100
AcDbDictionary
281
1
  3
Standard
350
22
  0
DICTIONARY
  5
11
330
A
100
AcDbDictionary
281
1
  0
ACDBDICTIONARYWDFLT
  5
12
330
A
100
AcDbDictionary
281
1
  3
Normal
350
13
100
AcDbDictionaryWithDefault
340
13
  0
ACDBPLACEHOLDER
  5
13
330
12
  0
DICTIONARY
  5
14
330
A
100
AcDbDictionary
281
1
  0
DICTIONARY
  5
15
330
A
100
AcDbDictionary
281
1
  0
DICTIONARY
  5
16
330
A
100
AcDbDictionary
281
1
  3
2dWireframe
350
5A
  3
Basic
350
5B
  3
Brighten
350
5C
  3
ColorChange
350
5D
  3
Conceptual
350
5E
  3
Dim
350
5F
  3
EdgeColorOff
350
60
  3
Facepattern
350
61
  3
Flat
350
62
  3
FlatWithEdges
350
63
  3
Gouraud
350
64
  3
GouraudWithEdges
350
65
  3
Hidden
350
66
  3
JitterOff
350
67
  3
Linepattern
350
68
  3
Modeling
350
69
  3
OverhangOff
350
6A
  3
Realistic
350
6B
  3
Shaded
350
6C
  3
Shaded with edges
350
6D
  3
Shades of Gray
350
6E
  3
Sketchy
350
6F
  3
Thicken
350
70
  3
Wireframe
350
71
  3
X-Ray
350
72
  0
LAYOUT
  5
1A
330
D
100
AcDbPlotSettings
  1

  4
A3
  6

 40
7.5
 41
20.0
 42
7.5
 43
20.0
 44
420.0
 45
297.0
 46
0.0
 47
0.0
 48
0.0
 49
0.0
140
0.0
141
0.0
142
1.0
143
1.0
 70
1024
 72
1
 73
0
 74
5
  7

 75
16
 76
0
 77
2
 78
300
147
1.0
148
0.0
149
0.0
100
AcDbLayout
  1
Model
 70
1
 71
0
 10
0.0
 20
0.0
 11
420.0
 21
297.0
 12
0.0
 22
0.0
 32
0.0
 14
1e+20
 24
1e+20
 34
1e+20
 15
-1e+20
 25
-1e+20
 35
-1e+20
146
0.0
 13
0.0
 23
0.0
 33
0.0
 16
1.0
 26
0.0
 36
0.0
 17
0.0
 27
1.0
 37
0.0
 76
1
330
17
  0
LAYOUT
  5
1E
330
D
100
AcDbPlotSettings
  1

  4
A3
  6

 40
7.5
 41
20.0
 42
7.5
 43
20.0
 44
420.0
 45
297.0
 46
0.0
 47
0.0
 48
0.0
 49
0.0
140
0.0
141
0.0
142
1.0
143
1.0
 70
0
 72
1
 73
0
 74
5
  7

 75
16
 76
0
 77
2
 78
300
147
1.0
148
0.0
149
0.0
100
AcDbLayout
  1
Layout1
 70
1
 71
1
 10
0.0
 20
0.0
 11
420.0
 21
297.0
 12
0.0
 22
0.0
 32
0.0
 14
1e+20
 24
1e+20
 34
1e+20
 15
-1e+20
 25
-1e+20
 35
-1e+20
146
0.0
 13
0.0
 23
0.0
 33
0.0
 16
1.0
 26
0.0
 36
0.0
 17
0.0
 27
1.0
 37
0.0
 76
1
330
1B
  0
MATERIAL
  5
1F
102
{ACAD_REACTORS
330
E
102
}
330
E
100
AcDbMaterial
  1
ByBlock
  2

 70
0
 40
1.0
 71
1
 41
1.0
 91
-1023410177
 42
1.0
 72
1
  3

 73
1
 74
1
 75
1
 44
0.5
 73
0
 45
1.0
 46
1.0
 77
1
  4

 78
1
 79
1
170
1
 48
1.0
171
1
  6

172
1
173
1
174
1
140
1.0
141
1.0
175
1
  7

176
1
177
1
178
1
143
1.0
179
1
  8

270
1
271
1
272
1
145
1.0
146
1.0
273
1
  9

274
1
275
1
276
1
 42
1.0
 72
1
  3

 73
1
 74
1
 75
1
 94
63
  0
MATERIAL
  5
20
102
{ACAD_REACTORS
330
E
102
}
330
E
100
AcDbMaterial
  1
ByLayer
  2

 70
0
 40
1.0
 71
1
 41
1.0
 91
-1023410177
 42
1.0
 72
1
  3

 73
1
 74
1
 75
1
 44
0.5
 73
0
 45
1.0
 46
1.0
 77
1
  4

 78
1
 79
1
170
1
 48
1.0
171
1
  6

172
1
173
1
174
1
140
1.0
141
1.0
175
1
  7

176
1
177
1
178
1
143
1.0
179
1
  8

270
1
271
1
272
1
145
1.0
146
1.0
273
1
  9

274
1
275
1
276
1
 42
1.0
 72
1
  3

 73
1
 74
1
 75
1
 94
63
  0
MATERIAL
  5
21
102
{ACAD_REACTORS
330
E
102
}
330
E
100
AcDbMaterial
  1
Global
  2

 70
0
 40
1.0
 71
1
 41
1.0
 91
-1023410177
 42
1.0
 72
1
  3

 73
1
 74
1
 75
1
 44
0.5
 73
0
 45
1.0
 46
1.0
 77
1
  4

 78
1
 79
1
170
1
 48
1.0
171
1
  6

172
1
173
1
174
1
140
1.0
141
1.0
175
1
  7

176
1
177
1
178
1
143
1.0
179
1
  8

270
1
271
1
272
1
145
1.0
146
1.0
273
1
  9

274
1
275
1
276
1
 42
1.0
 72
1
  3

 73
1
 74
1
 75
1
 94
63
  0
MLINESTYLE
  5
22
102
{ACAD_REACTORS
330
10
102
}
330
10
100
AcDbMlineStyle
  2
Standard
 70
0
  3

 62
256
 51
90.0
 52
90.0
 71
2
 49
0.5
 62
256
  6
BYLAYER
 49
-0.5
 62
256
  6
BYLAYER
  0
MLEADERSTYLE
  5
2C
102
{ACAD_REACTORS
330
F
102
}
330
F
100
AcDbMLeaderStyle
179
2
170
2
171
1
172
0
 90
2
 40
0.0
 41
0.0
173
1
 91
-1056964608
 92
-2
290
1
 42
2.0
291
1
 43
8.0
  3
Standard
 44
4.0
300

342
29
174
1
175
1
176
0
178
1
 93
-1056964608
 45
4.0
292
0
297
0
 46
4.0
 94
-1056964608
 47
1.0
 49
1.0
140
1.0
294
1
141
0.0
177
0
142
1.0
295
0
296
0
143
3.75
271
0
272
9
273
9
  0
DICTIONARY
  5
2D
330
A
100
AcDbDictionary
280
1
281
1
  3
CREATED_BY_EZDXF
350
2E
  3
WRITTEN_BY_EZDXF
350
11F
  0
DICTIONARYVAR
  5
2E
330
2D
100
DictionaryVariables
280
0
  1
1.4.4 @ 2026-07-10T07:14:51.985772+00:00
  0
VISUALSTYLE
  5
5A
102
{ACAD_REACTORS
330
16
102
}
330
16
100
AcDbVisualStyle
  2
2dWireframe
 70
4
 90
0
 40
0.6
 62
7
290
0
291
0
  0
VISUALSTYLE
  5
5B
102
{ACAD_REACTORS
330
16
102
}
330
16
100
AcDbVisualStyle
  2
Basic
 70
7
 90
1
 40
0.6
 62
7
290
0
291
1
  0
VISUALSTYLE
  5
5C
102
{ACAD_REACTORS
330
16
102
}
330
16
100
AcDbVisualStyle
  2
Brighten
 70
12
 90
2
 40
0.6
 62
7
290
0
291
1
  0
VISUALSTYLE
  5
5D
102
{ACAD_REACTORS
330
16
102
}
330
16
100
AcDbVisualStyle
  2
ColorChange
 70
16
 90
2
 40
0.6
 62
8
290
0
291
1
  0
VISUALSTYLE
  5
5E
102
{ACAD_REACTORS
330
16
102
}
330
16
100
AcDbVisualStyle
  2
Conceptual
 70
9
 90
3
 40
0.6
 62
7
290
0
291
0
  0
VISUALSTYLE
  5
5F
102
{ACAD_REACTORS
330
16
102
}
330
16
100
AcDbVisualStyle
  2
Dim
 70
11
 90
2
 40
0.6
 62
7
290
0
291
1
  0
VISUALSTYLE
  5
60
102
{ACAD_REACTORS
330
16
102
}
330
16
100
AcDbVisualStyle
  2
EdgeColorOff
 70
22
 90
2
 40
0.6
 62
7
290
0
291
1
  0
VISUALSTYLE
  5
61
102
{ACAD_REACTORS
330
16
102
}
330
16
100
AcDbVisualStyle
  2
Facepattern
 70
15
 90
2
 40
0.6
 62
7
290
0
291
1
  0
VISUALSTYLE
  5
62
102
{ACAD_REACTORS
330
16
102
}
330
16
100
AcDbVisualStyle
  2
Flat
 70
0
 90
2
 40
0.6
 62
7
290
0
291
1
  0
VISUALSTYLE
  5
63
102
{ACAD_REACTORS
330
16
102
}
330
16
100
AcDbVisualStyle
  2
FlatWithEdges
 70
1
 90
2
 40
0.6
 62
7
290
0
291
1
  0
VISUALSTYLE
  5
64
102
{ACAD_REACTORS
330
16
102
}
330
16
100
AcDbVisualStyle
  2
Gouraud
 70
2
 90
2
 40
0.6
 62
7
290
0
291
1
  0
VISUALSTYLE
  5
65
102
{ACAD_REACTORS
330
16
102
}
330
16
100
AcDbVisualStyle
  2
GouraudWithEdges
 70
3
 90
2
 40
0.6
 62
7
290
0
291
1
  0
VISUALSTYLE
  5
66
102
{ACAD_REACTORS
330
16
102
}
330
16
100
AcDbVisualStyle
  2
Hidden
 70
6
 90
1
 40
0.6
 62
7
290
0
291
0
  0
VISUALSTYLE
  5
67
102
{ACAD_REACTORS
330
16
102
}
330
16
100
AcDbVisualStyle
  2
JitterOff
 70
20
 90
2
 40
0.6
 62
7
290
0
291
1
  0
VISUALSTYLE
  5
68
102
{ACAD_REACTORS
330
16
102
}
330
16
100
AcDbVisualStyle
  2
Linepattern
 70
14
 90
2
 40
0.6
 62
7
290
0
291
1
  0
VISUALSTYLE
  5
69
102
{ACAD_REACTORS
330
16
102
}
330
16
100
AcDbVisualStyle
  2
Modeling
 70
10
 90
2
 40
0.6
 62
7
290
0
291
0
  0
VISUALSTYLE
  5
6A
102
{ACAD_REACTORS
330
16
102
}
330
16
100
AcDbVisualStyle
  2
OverhangOff
 70
21
 90
2
 40
0.6
 62
7
290
0
291
1
  0
VISUALSTYLE
  5
6B
102
{ACAD_REACTORS
330
16
102
}
330
16
100
AcDbVisualStyle
  2
Realistic
 70
8
 90
2
 40
0.6
 62
7
290
0
291
0
  0
VISUALSTYLE
  5
6C
102
{ACAD_REACTORS
330
16
102
}
330
16
100
AcDbVisualStyle
  2
Shaded
 70
27
 90
2
 40
0.6
 62
7
290
0
291
0
  0
VISUALSTYLE
  5
6D
102
{ACAD_REACTORS
330
16
102
}
330
16
100
AcDbVisualStyle
  2
Shaded with edges
 70
26
 90
2
 40
0.6
 62
7
290
0
291
0
  0
VISUALSTYLE
  5
6E
102
{ACAD_REACTORS
330
16
102
}
330
16
100
AcDbVisualStyle
  2
Shades of Gray
 70
23
 90
2
 40
0.6
 62
7
290
0
291
0
  0
VISUALSTYLE
  5
6F
102
{ACAD_REACTORS
330
16
102
}
330
16
100
AcDbVisualStyle
  2
Sketchy
 70
24
 90
1
 40
0.6
 62
7
290
0
291
0
  0
VISUALSTYLE
  5
70
102
{ACAD_REACTORS
330
16
102
}
330
16
100
AcDbVisualStyle
  2
Thicken
 70
13
 90
2
 40
0.6
 62
7
290
0
291
1
  0
VISUALSTYLE
  5
71
102
{ACAD_REACTORS
330
16
102
}
330
16
100
AcDbVisualStyle
  2
Wireframe
 70
5
 90
0
 40
0.6
 62
7
290
0
291
0
  0
VISUALSTYLE
  5
72
102
{ACAD_REACTORS
330
16
102
}
330
16
100
AcDbVisualStyle
  2
X-Ray
 70
25
 90
2
 40
0.5
 62
7
290
0
291
0
  0
DICTIONARYVAR
  5
11F
330
2D
100
DictionaryVariables
280
0
  1
1.4.4 @ 2026-07-10T07:14:51.994522+00:00
  0
ENDSEC
  0
EOF
